DINishExpanded-Bold.ufo
<glyph name="dollar" format="2">
  <advance width="547"/>
  <unicode hex="0024"/>
  <outline>
    <contour>
      <point x="226" y="-61" type="line"/>
      <point x="317" y="-61" type="line"/>
      <point x="317" y="33" type="line"/>
      <point x="442" y="47"/>
      <point x="515" y="114"/>
      <point x="515" y="229" type="curve" smooth="yes"/>
      <point x="515" y="332"/>
      <point x="457" y="392"/>
      <point x="342" y="409" type="curve" smooth="yes"/>
      <point x="262" y="420" type="line" smooth="yes"/>
      <point x="196" y="430"/>
      <point x="169" y="454"/>
      <point x="169" y="498" type="curve" smooth="yes"/>
      <point x="169" y="547"/>
      <point x="205" y="574"/>
      <point x="272" y="574" type="curve" smooth="yes"/>
      <point x="344" y="574"/>
      <point x="379" y="548"/>
      <point x="385" y="490" type="curve"/>
      <point x="505" y="490" type="line"/>
      <point x="497" y="600"/>
      <point x="431" y="667"/>
      <point x="317" y="679" type="curve"/>
      <point x="317" y="758" type="line"/>
      <point x="226" y="758" type="line"/>
      <point x="226" y="678" type="line"/>
      <point x="111" y="664"/>
      <point x="45" y="593"/>
      <point x="45" y="488" type="curve" smooth="yes"/>
      <point x="45" y="386"/>
      <point x="107" y="327"/>
      <point x="230" y="310" type="curve" smooth="yes"/>
      <point x="307" y="300" type="line" smooth="yes"/>
      <point x="365" y="294"/>
      <point x="390" y="268"/>
      <point x="390" y="220" type="curve" smooth="yes"/>
      <point x="390" y="164"/>
      <point x="347" y="139"/>
      <point x="275" y="139" type="curve" smooth="yes"/>
      <point x="193" y="139"/>
      <point x="154" y="166"/>
      <point x="146" y="232" type="curve"/>
      <point x="29" y="232" type="line"/>
      <point x="35" y="113"/>
      <point x="105" y="44"/>
      <point x="226" y="32" type="curve"/>
    </contour>
  </outline>
</glyph>
<glyph name="percent" format="2">
  <advance width="1006"/>
  <unicode hex="0025"/>
  <outline>
    <contour>
      <point x="202" y="270" type="curve" smooth="yes"/>
      <point x="305" y="270"/>
      <point x="356" y="326"/>
      <point x="356" y="438" type="curve" smooth="yes"/>
      <point x="356" y="553" type="line" smooth="yes"/>
      <point x="356" y="661"/>
      <point x="306" y="713"/>
      <point x="204" y="713" type="curve" smooth="yes"/>
      <point x="102" y="713"/>
      <point x="47" y="659"/>
      <point x="47" y="553" type="curve" smooth="yes"/>
      <point x="47" y="438" type="line" smooth="yes"/>
      <point x="47" y="326"/>
      <point x="99" y="270"/>
    </contour>
    <contour>
      <point x="805" y="-6" type="curve" smooth="yes"/>
      <point x="908" y="-6"/>
      <point x="959" y="50"/>
      <point x="959" y="162" type="curve" smooth="yes"/>
      <point x="959" y="276" type="line" smooth="yes"/>
      <point x="959" y="384"/>
      <point x="909" y="436"/>
      <point x="807" y="436" type="curve" smooth="yes"/>
      <point x="705" y="436"/>
      <point x="650" y="382"/>
      <point x="650" y="276" type="curve" smooth="yes"/>
      <point x="650" y="162" type="line" smooth="yes"/>
      <point x="650" y="50"/>
      <point x="702" y="-6"/>
    </contour>
    <contour>
      <point x="225" y="0" type="line"/>
      <point x="329" y="0" type="line"/>
      <point x="783" y="712" type="line"/>
      <point x="679" y="712" type="line"/>
    </contour>
    <contour>
      <point x="153" y="443" type="curve" smooth="yes"/>
      <point x="153" y="540" type="line" smooth="yes"/>
      <point x="153" y="600"/>
      <point x="165" y="623"/>
      <point x="203" y="623" type="curve" smooth="yes"/>
      <point x="239" y="623"/>
      <point x="251" y="600"/>
      <point x="251" y="540" type="curve" smooth="yes"/>
      <point x="251" y="443" type="line" smooth="yes"/>
      <point x="251" y="381"/>
      <point x="240" y="361"/>
      <point x="203" y="361" type="curve" smooth="yes"/>
      <point x="166" y="361"/>
      <point x="153" y="381"/>
    </contour>
    <contour>
      <point x="756" y="167" type="curve" smooth="yes"/>
      <point x="756" y="263" type="line" smooth="yes"/>
      <point x="756" y="323"/>
      <point x="768" y="346"/>
      <point x="806" y="346" type="curve" smooth="yes"/>
      <point x="844" y="346"/>
      <point x="854" y="323"/>
      <point x="854" y="263" type="curve" smooth="yes"/>
      <point x="854" y="167" type="line" smooth="yes"/>
      <point x="854" y="104"/>
      <point x="842" y="85"/>
      <point x="806" y="85" type="curve" smooth="yes"/>
      <point x="769" y="85"/>
      <point x="756" y="105"/>
    </contour>
  </outline>
</glyph>
<glyph name="ampersand" format="2">
  <advance width="681"/>
  <unicode hex="0026"/>
  <outline>
    <contour>
      <point x="263" y="-14" type="curve" smooth="yes"/>
      <point x="299" y="-14"/>
      <point x="333" y="-8"/>
      <point x="364" y="5" type="curve" smooth="yes"/>
      <point x="395" y="17"/>
      <point x="425" y="38"/>
      <point x="456" y="67" type="curve"/>
      <point x="459" y="63" type="line" smooth="yes"/>
      <point x="479" y="39"/>
      <point x="498" y="23"/>
      <point x="516" y="14" type="curve" smooth="yes"/>
      <point x="533" y="5"/>
      <point x="554" y="0"/>
      <point x="579" y="0" type="curve" smooth="yes"/>
      <point x="634" y="0" type="line"/>
      <point x="634" y="110" type="line"/>
      <point x="611" y="110" type="line" smooth="yes"/>
      <point x="597" y="110"/>
      <point x="585" y="112"/>
      <point x="576" y="117" type="curve" smooth="yes"/>
      <point x="566" y="122"/>
      <point x="556" y="130"/>
      <point x="545" y="142" type="curve" smooth="yes"/>
      <point x="535" y="154" type="line"/>
      <point x="636" y="267" type="line"/>
      <point x="557" y="339" type="line"/>
      <point x="465" y="236" type="line"/>
      <point x="352" y="367" type="line"/>
      <point x="402" y="399"/>
      <point x="438" y="429"/>
      <point x="459" y="457" type="curve" smooth="yes"/>
      <point x="480" y="484"/>
      <point x="490" y="516"/>
      <point x="490" y="551" type="curve" smooth="yes"/>
      <point x="490" y="602"/>
      <point x="472" y="643"/>
      <point x="437" y="674" type="curve" smooth="yes"/>
      <point x="402" y="705"/>
      <point x="356" y="721"/>
      <point x="299" y="721" type="curve" smooth="yes"/>
      <point x="243" y="721"/>
      <point x="198" y="706"/>
      <point x="163" y="675" type="curve" smooth="yes"/>
      <point x="128" y="644"/>
      <point x="110" y="602"/>
      <point x="110" y="551" type="curve" smooth="yes"/>
      <point x="110" y="525"/>
      <point x="115" y="500"/>
      <point x="126" y="477" type="curve" smooth="yes"/>
      <point x="137" y="454"/>
      <point x="156" y="425"/>
      <point x="183" y="391" type="curve"/>
      <point x="136" y="361"/>
      <point x="101" y="330"/>
      <point x="80" y="297" type="curve" smooth="yes"/>
      <point x="58" y="264"/>
      <point x="47" y="227"/>
      <point x="47" y="186" type="curve" smooth="yes"/>
      <point x="47" y="127"/>
      <point x="66" y="79"/>
      <point x="105" y="42" type="curve" smooth="yes"/>
      <point x="143" y="5"/>
      <point x="196" y="-14"/>
    </contour>
    <contour>
      <point x="195" y="121" type="curve" smooth="yes"/>
      <point x="177" y="138"/>
      <point x="168" y="161"/>
      <point x="168" y="191" type="curve" smooth="yes"/>
      <point x="168" y="213"/>
      <point x="174" y="233"/>
      <point x="187" y="251" type="curve" smooth="yes"/>
      <point x="200" y="268"/>
      <point x="222" y="287"/>
      <point x="253" y="308" type="curve"/>
      <point x="387" y="150" type="line"/>
      <point x="366" y="130"/>
      <point x="346" y="116"/>
      <point x="328" y="108" type="curve" smooth="yes"/>
      <point x="309" y="99"/>
      <point x="290" y="95"/>
      <point x="269" y="95" type="curve" smooth="yes"/>
      <point x="238" y="95"/>
      <point x="213" y="104"/>
    </contour>
    <contour>
      <point x="285" y="446" type="curve"/>
      <point x="263" y="472"/>
      <point x="248" y="493"/>
      <point x="240" y="509" type="curve" smooth="yes"/>
      <point x="232" y="525"/>
      <point x="228" y="541"/>
      <point x="228" y="556" type="curve" smooth="yes"/>
      <point x="228" y="577"/>
      <point x="234" y="593"/>
      <point x="247" y="605" type="curve" smooth="yes"/>
      <point x="260" y="617"/>
      <point x="277" y="623"/>
      <point x="300" y="623" type="curve" smooth="yes"/>
      <point x="323" y="623"/>
      <point x="341" y="617"/>
      <point x="354" y="604" type="curve" smooth="yes"/>
      <point x="367" y="591"/>
      <point x="374" y="575"/>
      <point x="374" y="554" type="curve" smooth="yes"/>
      <point x="374" y="536"/>
      <point x="368" y="519"/>
      <point x="356" y="503" type="curve" smooth="yes"/>
      <point x="343" y="486"/>
      <point x="320" y="467"/>
    </contour>
  </outline>
</glyph>
<glyph name="parenleft" format="2">
  <advance width="330"/>
  <unicode hex="0028"/>
  <outline>
    <contour>
      <point x="190" y="-86" type="curve"/>
      <point x="284" y="-86" type="line"/>
      <point x="210" y="35"/>
      <point x="173" y="181"/>
      <point x="173" y="336" type="curve" smooth="yes"/>
      <point x="173" y="489"/>
      <point x="211" y="635"/>
      <point x="285" y="758" type="curve"/>
      <point x="191" y="758" type="line"/>
      <point x="97" y="640"/>
      <point x="47" y="497"/>
      <point x="47" y="337" type="curve" smooth="yes"/>
      <point x="47" y="179"/>
      <point x="96" y="36"/>
    </contour>
  </outline>
</glyph>
<glyph name="parenright" format="2">
  <advance width="330"/>
  <unicode hex="0029"/>
  <outline>
    <contour>
      <point x="47" y="-86" type="curve"/>
      <point x="141" y="-86" type="line"/>
      <point x="235" y="36"/>
      <point x="285" y="179"/>
      <point x="285" y="337" type="curve" smooth="yes"/>
      <point x="285" y="495"/>
      <point x="234" y="640"/>
      <point x="140" y="758" type="curve"/>
      <point x="47" y="758" type="line"/>
      <point x="121" y="635"/>
      <point x="159" y="489"/>
      <point x="159" y="336" type="curve" smooth="yes"/>
      <point x="159" y="181"/>
      <point x="119" y="35"/>
    </contour>
  </outline>
</glyph>
<glyph name="zero" format="2">
  <advance width="577"/>
  <unicode hex="0030"/>
  <outline>
    <contour>
      <point x="294" y="-11" type="curve" smooth="yes"/>
      <point x="451" y="-11"/>
      <point x="531" y="77"/>
      <point x="531" y="248" type="curve" smooth="yes"/>
      <point x="531" y="467" type="line" smooth="yes"/>
      <point x="531" y="632"/>
      <point x="453" y="718"/>
      <point x="294" y="718" type="curve" smooth="yes"/>
      <point x="136" y="718"/>
      <point x="56" y="631"/>
      <point x="56" y="467" type="curve" smooth="yes"/>
      <point x="56" y="248" type="line" smooth="yes"/>
      <point x="56" y="75"/>
      <point x="135" y="-11"/>
    </contour>
    <contour>
      <point x="191" y="259" type="curve" smooth="yes"/>
      <point x="191" y="447" type="line" smooth="yes"/>
      <point x="191" y="555"/>
      <point x="220" y="600"/>
      <point x="294" y="600" type="curve" smooth="yes"/>
      <point x="368" y="600"/>
      <point x="397" y="555"/>
      <point x="397" y="447" type="curve" smooth="yes"/>
      <point x="397" y="259" type="line" smooth="yes"/>
      <point x="397" y="148"/>
      <point x="366" y="105"/>
      <point x="294" y="105" type="curve" smooth="yes"/>
      <point x="221" y="105"/>
      <point x="191" y="149"/>
    </contour>
  </outline>
</glyph>
<glyph name="two" format="2">
  <advance width="557"/>
  <unicode hex="0032"/>
  <outline>
    <contour>
      <point x="55" y="0" type="line"/>
      <point x="516" y="0" type="line"/>
      <point x="516" y="118" type="line"/>
      <point x="237" y="118" type="line"/>
      <point x="427" y="318" type="line" smooth="yes"/>
      <point x="487" y="380"/>
      <point x="515" y="434"/>
      <point x="515" y="506" type="curve" smooth="yes"/>
      <point x="515" y="519" type="line" smooth="yes"/>
      <point x="515" y="636"/>
      <point x="425" y="718"/>
      <point x="281" y="718" type="curve" smooth="yes"/>
      <point x="139" y="718"/>
      <point x="51" y="643"/>
      <point x="51" y="527" type="curve" smooth="yes"/>
      <point x="51" y="503" type="line"/>
      <point x="179" y="503" type="line"/>
      <point x="179" y="519" type="line" smooth="yes"/>
      <point x="179" y="573"/>
      <point x="217" y="604"/>
      <point x="279" y="604" type="curve" smooth="yes"/>
      <point x="342" y="604"/>
      <point x="380" y="569"/>
      <point x="380" y="516" type="curve" smooth="yes"/>
      <point x="380" y="505" type="line" smooth="yes"/>
      <point x="380" y="463"/>
      <point x="365" y="433"/>
      <point x="319" y="389" type="curve" smooth="yes"/>
      <point x="55" y="106" type="line"/>
    </contour>
  </outline>
</glyph>
<glyph name="three" format="2">
  <advance width="568"/>
  <unicode hex="0033"/>
  <outline>
    <contour>
      <point x="286" y="-11" type="curve" smooth="yes"/>
      <point x="430" y="-11"/>
      <point x="522" y="69"/>
      <point x="522" y="197" type="curve" smooth="yes"/>
      <point x="522" y="213" type="line" smooth="yes"/>
      <point x="522" y="292"/>
      <point x="485" y="352"/>
      <point x="412" y="376" type="curve"/>
      <point x="476" y="404"/>
      <point x="510" y="454"/>
      <point x="510" y="520" type="curve" smooth="yes"/>
      <point x="510" y="534" type="line" smooth="yes"/>
      <point x="510" y="649"/>
      <point x="424" y="718"/>
      <point x="283" y="718" type="curve" smooth="yes"/>
      <point x="137" y="718"/>
      <point x="57" y="647"/>
      <point x="57" y="521" type="curve" smooth="yes"/>
      <point x="57" y="512" type="line"/>
      <point x="180" y="512" type="line"/>
      <point x="180" y="521" type="line" smooth="yes"/>
      <point x="180" y="574"/>
      <point x="215" y="604"/>
      <point x="280" y="604" type="curve" smooth="yes"/>
      <point x="342" y="604"/>
      <point x="378" y="574"/>
      <point x="378" y="520" type="curve" smooth="yes"/>
      <point x="378" y="508" type="line" smooth="yes"/>
      <point x="378" y="451"/>
      <point x="340" y="421"/>
      <point x="271" y="421" type="curve" smooth="yes"/>
      <point x="232" y="421" type="line"/>
      <point x="232" y="307" type="line"/>
      <point x="272" y="307" type="line" smooth="yes"/>
      <point x="352" y="307"/>
      <point x="390" y="277"/>
      <point x="390" y="213" type="curve" smooth="yes"/>
      <point x="390" y="198" type="line" smooth="yes"/>
      <point x="390" y="137"/>
      <point x="351" y="102"/>
      <point x="284" y="102" type="curve" smooth="yes"/>
      <point x="213" y="102"/>
      <point x="176" y="131"/>
      <point x="176" y="184" type="curve" smooth="yes"/>
      <point x="176" y="193" type="line"/>
      <point x="51" y="193" type="line"/>
      <point x="51" y="181" type="line" smooth="yes"/>
      <point x="51" y="58"/>
      <point x="133" y="-11"/>
    </contour>
  </outline>
</glyph>
<glyph name="five" format="2">
  <advance width="560"/>
  <unicode hex="0035"/>
  <outline>
    <contour>
      <point x="280" y="-11" type="curve" smooth="yes"/>
      <point x="428" y="-11"/>
      <point x="514" y="72"/>
      <point x="514" y="210" type="curve" smooth="yes"/>
      <point x="514" y="249" type="line" smooth="yes"/>
      <point x="514" y="385"/>
      <point x="439" y="465"/>
      <point x="309" y="465" type="curve" smooth="yes"/>
      <point x="260" y="465"/>
      <point x="218" y="452"/>
      <point x="184" y="427" type="curve"/>
      <point x="184" y="592" type="line"/>
      <point x="493" y="592" type="line"/>
      <point x="493" y="707" type="line"/>
      <point x="69" y="707" type="line"/>
      <point x="69" y="304" type="line"/>
      <point x="186" y="304" type="line"/>
      <point x="204" y="335"/>
      <point x="236" y="355"/>
      <point x="281" y="355" type="curve" smooth="yes"/>
      <point x="347" y="355"/>
      <point x="382" y="316"/>
      <point x="382" y="244" type="curve" smooth="yes"/>
      <point x="382" y="212" type="line" smooth="yes"/>
      <point x="382" y="142"/>
      <point x="347" y="102"/>
      <point x="281" y="102" type="curve" smooth="yes"/>
      <point x="222" y="102"/>
      <point x="184" y="133"/>
      <point x="184" y="174" type="curve" smooth="yes"/>
      <point x="184" y="178" type="line"/>
      <point x="56" y="178" type="line"/>
      <point x="56" y="170" type="line" smooth="yes"/>
      <point x="56" y="57"/>
      <point x="141" y="-11"/>
    </contour>
  </outline>
</glyph>
<glyph name="six" format="2">
  <advance width="582"/>
  <unicode hex="0036"/>
  <outline>
    <contour>
      <point x="296" y="-11" type="curve" smooth="yes"/>
      <point x="445" y="-11"/>
      <point x="542" y="71"/>
      <point x="542" y="208" type="curve" smooth="yes"/>
      <point x="542" y="229" type="line" smooth="yes"/>
      <point x="542" y="353"/>
      <point x="459" y="431"/>
      <point x="337" y="431" type="curve" smooth="yes"/>
      <point x="306" y="431"/>
      <point x="281" y="426"/>
      <point x="262" y="417" type="curve"/>
      <point x="430" y="707" type="line"/>
      <point x="285" y="707" type="line"/>
      <point x="102" y="392" type="line" smooth="yes"/>
      <point x="68" y="332"/>
      <point x="51" y="276"/>
      <point x="51" y="224" type="curve" smooth="yes"/>
      <point x="51" y="204" type="line" smooth="yes"/>
      <point x="51" y="67"/>
      <point x="143" y="-11"/>
    </contour>
    <contour>
      <point x="185" y="203" type="curve" smooth="yes"/>
      <point x="185" y="222" type="line" smooth="yes"/>
      <point x="185" y="283"/>
      <point x="225" y="319"/>
      <point x="296" y="319" type="curve" smooth="yes"/>
      <point x="366" y="319"/>
      <point x="408" y="283"/>
      <point x="408" y="221" type="curve" smooth="yes"/>
      <point x="408" y="203" type="line" smooth="yes"/>
      <point x="408" y="141"/>
      <point x="366" y="102"/>
      <point x="296" y="102" type="curve" smooth="yes"/>
      <point x="225" y="102"/>
      <point x="185" y="142"/>
    </contour>
  </outline>
</glyph>
<glyph name="eight" format="2">
  <advance width="591"/>
  <unicode hex="0038"/>
  <outline>
    <contour>
      <point x="301" y="-11" type="curve" smooth="yes"/>
      <point x="376" y="-11"/>
      <point x="435" y="8"/>
      <point x="480" y="46" type="curve" smooth="yes"/>
      <point x="524" y="84"/>
      <point x="546" y="136"/>
      <point x="546" y="201" type="curve" smooth="yes"/>
      <point x="546" y="215" type="line" smooth="yes"/>
      <point x="546" y="248"/>
      <point x="537" y="278"/>
      <point x="520" y="306" type="curve" smooth="yes"/>
      <point x="503" y="333"/>
      <point x="478" y="355"/>
      <point x="447" y="371" type="curve"/>
      <point x="473" y="384"/>
      <point x="494" y="403"/>
      <point x="509" y="428" type="curve" smooth="yes"/>
      <point x="524" y="453"/>
      <point x="532" y="480"/>
      <point x="532" y="511" type="curve" smooth="yes"/>
      <point x="532" y="522" type="line" smooth="yes"/>
      <point x="532" y="561"/>
      <point x="523" y="595"/>
      <point x="505" y="625" type="curve" smooth="yes"/>
      <point x="486" y="654"/>
      <point x="460" y="677"/>
      <point x="425" y="694" type="curve" smooth="yes"/>
      <point x="390" y="710"/>
      <point x="349" y="718"/>
      <point x="302" y="718" type="curve" smooth="yes"/>
      <point x="255" y="718"/>
      <point x="214" y="710"/>
      <point x="179" y="694" type="curve" smooth="yes"/>
      <point x="144" y="677"/>
      <point x="118" y="654"/>
      <point x="100" y="624" type="curve" smooth="yes"/>
      <point x="81" y="594"/>
      <point x="72" y="560"/>
      <point x="72" y="522" type="curve" smooth="yes"/>
      <point x="72" y="511" type="line" smooth="yes"/>
      <point x="72" y="480"/>
      <point x="80" y="452"/>
      <point x="95" y="427" type="curve" smooth="yes"/>
      <point x="110" y="402"/>
      <point x="130" y="384"/>
      <point x="156" y="371" type="curve"/>
      <point x="125" y="356"/>
      <point x="100" y="334"/>
      <point x="83" y="307" type="curve" smooth="yes"/>
      <point x="65" y="279"/>
      <point x="56" y="248"/>
      <point x="56" y="214" type="curve" smooth="yes"/>
      <point x="56" y="200" type="line" smooth="yes"/>
      <point x="56" y="135"/>
      <point x="78" y="83"/>
      <point x="123" y="46" type="curve" smooth="yes"/>
      <point x="167" y="8"/>
      <point x="226" y="-11"/>
    </contour>
    <contour>
      <point x="218" y="129" type="curve" smooth="yes"/>
      <point x="198" y="146"/>
      <point x="188" y="171"/>
      <point x="188" y="202" type="curve" smooth="yes"/>
      <point x="188" y="217" type="line" smooth="yes"/>
      <point x="188" y="247"/>
      <point x="198" y="271"/>
      <point x="219" y="288" type="curve" smooth="yes"/>
      <point x="239" y="305"/>
      <point x="267" y="313"/>
      <point x="302" y="313" type="curve" smooth="yes"/>
      <point x="337" y="313"/>
      <point x="365" y="305"/>
      <point x="385" y="288" type="curve" smooth="yes"/>
      <point x="405" y="271"/>
      <point x="415" y="247"/>
      <point x="415" y="217" type="curve" smooth="yes"/>
      <point x="415" y="202" type="line" smooth="yes"/>
      <point x="415" y="171"/>
      <point x="405" y="146"/>
      <point x="385" y="129" type="curve" smooth="yes"/>
      <point x="365" y="111"/>
      <point x="337" y="102"/>
      <point x="302" y="102" type="curve" smooth="yes"/>
      <point x="266" y="102"/>
      <point x="238" y="111"/>
    </contour>
    <contour>
      <point x="229" y="447" type="curve" smooth="yes"/>
      <point x="212" y="462"/>
      <point x="203" y="483"/>
      <point x="203" y="510" type="curve" smooth="yes"/>
      <point x="203" y="521" type="line" smooth="yes"/>
      <point x="203" y="547"/>
      <point x="212" y="567"/>
      <point x="229" y="582" type="curve" smooth="yes"/>
      <point x="246" y="597"/>
      <point x="271" y="604"/>
      <point x="302" y="604" type="curve" smooth="yes"/>
      <point x="333" y="604"/>
      <point x="357" y="597"/>
      <point x="374" y="582" type="curve" smooth="yes"/>
      <point x="391" y="567"/>
      <point x="400" y="547"/>
      <point x="400" y="521" type="curve" smooth="yes"/>
      <point x="400" y="510" type="line" smooth="yes"/>
      <point x="400" y="483"/>
      <point x="392" y="462"/>
      <point x="375" y="447" type="curve" smooth="yes"/>
      <point x="358" y="432"/>
      <point x="333" y="424"/>
      <point x="302" y="424" type="curve" smooth="yes"/>
      <point x="270" y="424"/>
      <point x="246" y="432"/>
    </contour>
  </outline>
</glyph>
<glyph name="nine" format="2">
  <advance width="582"/>
  <unicode hex="0039"/>
  <outline>
    <contour>
      <point x="163" y="0" type="line"/>
      <point x="307" y="0" type="line"/>
      <point x="489" y="314" type="line" smooth="yes"/>
      <point x="524" y="373"/>
      <point x="542" y="429"/>
      <point x="542" y="482" type="curve" smooth="yes"/>
      <point x="542" y="504" type="line" smooth="yes"/>
      <point x="542" y="638"/>
      <point x="450" y="718"/>
      <point x="296" y="718" type="curve" smooth="yes"/>
      <point x="143" y="718"/>
      <point x="51" y="635"/>
      <point x="51" y="500" type="curve" smooth="yes"/>
      <point x="51" y="478" type="line" smooth="yes"/>
      <point x="51" y="357"/>
      <point x="133" y="275"/>
      <point x="256" y="275" type="curve" smooth="yes"/>
      <point x="284" y="276"/>
      <point x="309" y="281"/>
      <point x="330" y="290" type="curve"/>
    </contour>
    <contour>
      <point x="185" y="486" type="curve" smooth="yes"/>
      <point x="185" y="504" type="line" smooth="yes"/>
      <point x="185" y="564"/>
      <point x="224" y="604"/>
      <point x="296" y="604" type="curve" smooth="yes"/>
      <point x="365" y="604"/>
      <point x="407" y="568"/>
      <point x="407" y="505" type="curve" smooth="yes"/>
      <point x="407" y="485" type="line" smooth="yes"/>
      <point x="407" y="422"/>
      <point x="365" y="387"/>
      <point x="296" y="387" type="curve" smooth="yes"/>
      <point x="225" y="387"/>
      <point x="185" y="425"/>
    </contour>
  </outline>
</glyph>
<glyph name="colon" format="2">
  <advance width="220"/>
  <unicode hex="003A"/>
  <outline>
    <contour>
      <point x="39" y="0" type="line"/>
      <point x="181" y="0" type="line"/>
      <point x="181" y="145" type="line"/>
      <point x="39" y="145" type="line"/>
    </contour>
    <contour>
      <point x="39" y="346" type="line"/>
      <point x="181" y="346" type="line"/>
      <point x="181" y="492" type="line"/>
      <point x="39" y="492" type="line"/>
    </contour>
  </outline>
</glyph>
<glyph name="question" format="2">
  <advance width="512"/>
  <unicode hex="003F"/>
  <outline>
    <contour>
      <point x="184" y="245" type="line" smooth="yes"/>
      <point x="184" y="278"/>
      <point x="188" y="304"/>
      <point x="196" y="323" type="curve" smooth="yes"/>
      <point x="203" y="342"/>
      <point x="219" y="362"/>
      <point x="243" y="384" type="curve" smooth="yes"/>
      <point x="295" y="438" type="line" smooth="yes"/>
      <point x="314" y="456"/>
      <point x="328" y="472"/>
      <point x="335" y="485" type="curve" smooth="yes"/>
      <point x="342" y="498"/>
      <point x="346" y="512"/>
      <point x="346" y="527" type="curve" smooth="yes"/>
      <point x="346" y="551"/>
      <point x="338" y="569"/>
      <point x="322" y="582" type="curve" smooth="yes"/>
      <point x="305" y="595"/>
      <point x="281" y="601"/>
      <point x="248" y="601" type="curve" smooth="yes"/>
      <point x="215" y="601"/>
      <point x="191" y="594"/>
      <point x="176" y="581" type="curve" smooth="yes"/>
      <point x="161" y="568"/>
      <point x="153" y="547"/>
      <point x="152" y="520" type="curve"/>
      <point x="28" y="520" type="line"/>
      <point x="32" y="651"/>
      <point x="106" y="717"/>
      <point x="251" y="717" type="curve" smooth="yes"/>
      <point x="322" y="717"/>
      <point x="377" y="701"/>
      <point x="417" y="669" type="curve" smooth="yes"/>
      <point x="457" y="636"/>
      <point x="477" y="591"/>
      <point x="477" y="534" type="curve" smooth="yes"/>
      <point x="477" y="477"/>
      <point x="455" y="428"/>
      <point x="411" y="386" type="curve" smooth="yes"/>
      <point x="352" y="324" type="line" smooth="yes"/>
      <point x="336" y="309"/>
      <point x="325" y="295"/>
      <point x="320" y="282" type="curve" smooth="yes"/>
      <point x="314" y="269"/>
      <point x="311" y="251"/>
      <point x="311" y="229" type="curve" smooth="yes"/>
      <point x="311" y="198" type="line"/>
      <point x="184" y="198" type="line"/>
    </contour>
    <contour>
      <point x="180" y="129" type="line"/>
      <point x="314" y="129" type="line"/>
      <point x="314" y="0" type="line"/>
      <point x="180" y="0" type="line"/>
    </contour>
  </outline>
</glyph>
<glyph name="at" format="2">
  <advance width="894"/>
  <unicode hex="0040"/>
  <outline>
    <contour>
      <point x="47" y="252" type="curve" smooth="yes"/>
      <point x="47" y="324" type="line" smooth="yes"/>
      <point x="47" y="401"/>
      <point x="64" y="469"/>
      <point x="98" y="528" type="curve" smooth="yes"/>
      <point x="131" y="587"/>
      <point x="179" y="633"/>
      <point x="240" y="666" type="curve" smooth="yes"/>
      <point x="301" y="699"/>
      <point x="370" y="715"/>
      <point x="449" y="715" type="curve" smooth="yes"/>
      <point x="526" y="715"/>
      <point x="595" y="699"/>
      <point x="656" y="666" type="curve" smooth="yes"/>
      <point x="716" y="633"/>
      <point x="763" y="588"/>
      <point x="798" y="529" type="curve" smooth="yes"/>
      <point x="832" y="470"/>
      <point x="849" y="404"/>
      <point x="849" y="329" type="curve" smooth="yes"/>
      <point x="849" y="257" type="line" smooth="yes"/>
      <point x="849" y="192"/>
      <point x="833" y="142"/>
      <point x="800" y="107" type="curve" smooth="yes"/>
      <point x="767" y="72"/>
      <point x="726" y="55"/>
      <point x="676" y="55" type="curve" smooth="yes"/>
      <point x="645" y="55"/>
      <point x="619" y="61"/>
      <point x="597" y="73" type="curve" smooth="yes"/>
      <point x="575" y="84"/>
      <point x="558" y="101"/>
      <point x="547" y="122" type="curve"/>
      <point x="525" y="77"/>
      <point x="481" y="55"/>
      <point x="416" y="55" type="curve" smooth="yes"/>
      <point x="313" y="55"/>
      <point x="261" y="117"/>
      <point x="261" y="241" type="curve" smooth="yes"/>
      <point x="261" y="331" type="line" smooth="yes"/>
      <point x="261" y="390"/>
      <point x="273" y="435"/>
      <point x="298" y="468" type="curve" smooth="yes"/>
      <point x="322" y="501"/>
      <point x="359" y="517"/>
      <point x="409" y="517" type="curve" smooth="yes"/>
      <point x="434" y="517"/>
      <point x="455" y="512"/>
      <point x="474" y="503" type="curve" smooth="yes"/>
      <point x="493" y="493"/>
      <point x="506" y="480"/>
      <point x="515" y="465" type="curve"/>
      <point x="515" y="506" type="line"/>
      <point x="627" y="506" type="line"/>
      <point x="627" y="214" type="line" smooth="yes"/>
      <point x="627" y="192"/>
      <point x="632" y="176"/>
      <point x="641" y="166" type="curve" smooth="yes"/>
      <point x="650" y="155"/>
      <point x="662" y="150"/>
      <point x="677" y="150" type="curve" smooth="yes"/>
      <point x="696" y="150"/>
      <point x="711" y="158"/>
      <point x="720" y="175" type="curve" smooth="yes"/>
      <point x="729" y="192"/>
      <point x="734" y="219"/>
      <point x="734" y="256" type="curve" smooth="yes"/>
      <point x="734" y="328" type="line" smooth="yes"/>
      <point x="734" y="386"/>
      <point x="723" y="436"/>
      <point x="700" y="479" type="curve" smooth="yes"/>
      <point x="677" y="522"/>
      <point x="645" y="555"/>
      <point x="602" y="578" type="curve" smooth="yes"/>
      <point x="559" y="601"/>
      <point x="508" y="612"/>
      <point x="449" y="612" type="curve" smooth="yes"/>
      <point x="360" y="612"/>
      <point x="290" y="587"/>
      <point x="239" y="536" type="curve" smooth="yes"/>
      <point x="188" y="485"/>
      <point x="162" y="415"/>
      <point x="162" y="326" type="curve" smooth="yes"/>
      <point x="162" y="253" type="line" smooth="yes"/>
      <point x="162" y="195"/>
      <point x="173" y="144"/>
      <point x="196" y="101" type="curve" smooth="yes"/>
      <point x="219" y="57"/>
      <point x="252" y="23"/>
      <point x="295" y="-1" type="curve" smooth="yes"/>
      <point x="338" y="-25"/>
      <point x="389" y="-37"/>
      <point x="449" y="-37" type="curve" smooth="yes"/>
      <point x="490" y="-37"/>
      <point x="526" y="-33"/>
      <point x="559" y="-24" type="curve" smooth="yes"/>
      <point x="592" y="-15"/>
      <point x="625" y="-2"/>
      <point x="660" y="15" type="curve"/>
      <point x="706" y="-72" type="line"/>
      <point x="667" y="-95"/>
      <point x="626" y="-112"/>
      <point x="585" y="-123" type="curve" smooth="yes"/>
      <point x="544" y="-134"/>
      <point x="498" y="-139"/>
      <point x="449" y="-139" type="curve" smooth="yes"/>
      <point x="370" y="-139"/>
      <point x="301" y="-123"/>
      <point x="240" y="-90" type="curve" smooth="yes"/>
      <point x="179" y="-57"/>
      <point x="131" y="-11"/>
      <point x="98" y="48" type="curve" smooth="yes"/>
      <point x="64" y="107"/>
      <point x="47" y="175"/>
    </contour>
    <contour>
      <point x="513" y="244" type="curve" smooth="yes"/>
      <point x="513" y="330" type="line" smooth="yes"/>
      <point x="513" y="391"/>
      <point x="490" y="421"/>
      <point x="445" y="421" type="curve" smooth="yes"/>
      <point x="421" y="421"/>
      <point x="404" y="413"/>
      <point x="393" y="397" type="curve" smooth="yes"/>
      <point x="382" y="381"/>
      <point x="376" y="359"/>
      <point x="376" y="331" type="curve" smooth="yes"/>
      <point x="376" y="247" type="line" smooth="yes"/>
      <point x="376" y="216"/>
      <point x="382" y="193"/>
      <point x="393" y="177" type="curve" smooth="yes"/>
      <point x="404" y="160"/>
      <point x="421" y="152"/>
      <point x="445" y="152" type="curve" smooth="yes"/>
      <point x="490" y="152"/>
      <point x="513" y="183"/>
    </contour>
  </outline>
</glyph>
<glyph name="B" format="2">
  <advance width="669"/>
  <unicode hex="0042"/>
  <outline>
    <contour>
      <point x="60" y="0" type="line"/>
      <point x="380" y="0" type="line" smooth="yes"/>
      <point x="538" y="0"/>
      <point x="624" y="73"/>
      <point x="624" y="203" type="curve" smooth="yes"/>
      <point x="624" y="279"/>
      <point x="585" y="334"/>
      <point x="513" y="364" type="curve"/>
      <point x="576" y="392"/>
      <point x="613" y="445"/>
      <point x="613" y="510" type="curve" smooth="yes"/>
      <point x="613" y="636"/>
      <point x="527" y="707"/>
      <point x="367" y="707" type="curve" smooth="yes"/>
      <point x="60" y="707" type="line"/>
    </contour>
    <contour>
      <point x="195" y="117" type="line"/>
      <point x="195" y="301" type="line"/>
      <point x="377" y="301" type="line" smooth="yes"/>
      <point x="452" y="301"/>
      <point x="490" y="271"/>
      <point x="490" y="212" type="curve" smooth="yes"/>
      <point x="490" y="149"/>
      <point x="454" y="117"/>
      <point x="382" y="117" type="curve" smooth="yes"/>
    </contour>
    <contour>
      <point x="195" y="418" type="line"/>
      <point x="195" y="590" type="line"/>
      <point x="373" y="590" type="line" smooth="yes"/>
      <point x="444" y="590"/>
      <point x="479" y="561"/>
      <point x="479" y="502" type="curve" smooth="yes"/>
      <point x="479" y="447"/>
      <point x="444" y="418"/>
      <point x="368" y="418" type="curve" smooth="yes"/>
    </contour>
  </outline>
</glyph>
<glyph name="C" format="2">
  <advance width="689"/>
  <unicode hex="0043"/>
  <outline>
    <contour>
      <point x="357" y="-11" type="curve" smooth="yes"/>
      <point x="531" y="-11"/>
      <point x="642" y="78"/>
      <point x="642" y="234" type="curve" smooth="yes"/>
      <point x="642" y="240" type="line"/>
      <point x="509" y="240" type="line"/>
      <point x="509" y="234" type="line" smooth="yes"/>
      <point x="509" y="155"/>
      <point x="452" y="110"/>
      <point x="359" y="110" type="curve" smooth="yes"/>
      <point x="247" y="110"/>
      <point x="191" y="171"/>
      <point x="191" y="301" type="curve" smooth="yes"/>
      <point x="191" y="402" type="line" smooth="yes"/>
      <point x="191" y="537"/>
      <point x="245" y="602"/>
      <point x="358" y="602" type="curve" smooth="yes"/>
      <point x="452" y="602"/>
      <point x="509" y="552"/>
      <point x="509" y="474" type="curve" smooth="yes"/>
      <point x="509" y="470" type="line"/>
      <point x="643" y="470" type="line"/>
      <point x="643" y="478" type="line" smooth="yes"/>
      <point x="643" y="631"/>
      <point x="531" y="720"/>
      <point x="358" y="720" type="curve" smooth="yes"/>
      <point x="167" y="720"/>
      <point x="56" y="615"/>
      <point x="56" y="410" type="curve" smooth="yes"/>
      <point x="56" y="299" type="line" smooth="yes"/>
      <point x="56" y="92"/>
      <point x="168" y="-11"/>
    </contour>
  </outline>
</glyph>
<glyph name="D" format="2">
  <advance width="677"/>
  <unicode hex="0044"/>
  <outline>
    <contour>
      <point x="60" y="0" type="line"/>
      <point x="331" y="0" type="line" smooth="yes"/>
      <point x="521" y="0"/>
      <point x="632" y="100"/>
      <point x="632" y="310" type="curve" smooth="yes"/>
      <point x="632" y="397" type="line" smooth="yes"/>
      <point x="632" y="608"/>
      <point x="523" y="707"/>
      <point x="336" y="707" type="curve" smooth="yes"/>
      <point x="60" y="707" type="line"/>
    </contour>
    <contour>
      <point x="195" y="117" type="line"/>
      <point x="195" y="590" type="line"/>
      <point x="335" y="590" type="line" smooth="yes"/>
      <point x="445" y="590"/>
      <point x="498" y="528"/>
      <point x="498" y="390" type="curve" smooth="yes"/>
      <point x="498" y="310" type="line" smooth="yes"/>
      <point x="498" y="176"/>
      <point x="445" y="117"/>
      <point x="335" y="117" type="curve" smooth="yes"/>
    </contour>
  </outline>
</glyph>
<glyph name="E" format="2">
  <advance width="611"/>
  <unicode hex="0045"/>
  <outline>
    <contour>
      <point x="60" y="0" type="line"/>
      <point x="575" y="0" type="line"/>
      <point x="575" y="117" type="line"/>
      <point x="195" y="117" type="line"/>
      <point x="195" y="298" type="line"/>
      <point x="523" y="298" type="line"/>
      <point x="523" y="415" type="line"/>
      <point x="195" y="415" type="line"/>
      <point x="195" y="590" type="line"/>
      <point x="575" y="590" type="line"/>
      <point x="575" y="707" type="line"/>
      <point x="60" y="707" type="line"/>
    </contour>
  </outline>
</glyph>
<glyph name="F" format="2">
  <advance width="611"/>
  <unicode hex="0046"/>
  <outline>
    <contour>
      <point x="60" y="0" type="line"/>
      <point x="195" y="0" type="line"/>
      <point x="195" y="292" type="line"/>
      <point x="525" y="292" type="line"/>
      <point x="525" y="409" type="line"/>
      <point x="195" y="409" type="line"/>
      <point x="195" y="590" type="line"/>
      <point x="575" y="590" type="line"/>
      <point x="575" y="707" type="line"/>
      <point x="60" y="707" type="line"/>
    </contour>
  </outline>
</glyph>
<glyph name="G" format="2">
  <advance width="689"/>
  <unicode hex="0047"/>
  <outline>
    <contour>
      <point x="357" y="-11" type="curve" smooth="yes"/>
      <point x="535" y="-11"/>
      <point x="643" y="80"/>
      <point x="643" y="262" type="curve" smooth="yes"/>
      <point x="643" y="379" type="line"/>
      <point x="355" y="379" type="line"/>
      <point x="355" y="268" type="line"/>
      <point x="510" y="268" type="line"/>
      <point x="510" y="243" type="line" smooth="yes"/>
      <point x="510" y="153"/>
      <point x="461" y="110"/>
      <point x="359" y="110" type="curve" smooth="yes"/>
      <point x="244" y="110"/>
      <point x="191" y="171"/>
      <point x="191" y="302" type="curve" smooth="yes"/>
      <point x="191" y="403" type="line" smooth="yes"/>
      <point x="191" y="537"/>
      <point x="244" y="602"/>
      <point x="358" y="602" type="curve" smooth="yes"/>
      <point x="452" y="602"/>
      <point x="509" y="551"/>
      <point x="509" y="477" type="curve" smooth="yes"/>
      <point x="509" y="473" type="line"/>
      <point x="643" y="473" type="line"/>
      <point x="643" y="481" type="line" smooth="yes"/>
      <point x="643" y="627"/>
      <point x="529" y="720"/>
      <point x="358" y="720" type="curve" smooth="yes"/>
      <point x="167" y="720"/>
      <point x="56" y="615"/>
      <point x="56" y="410" type="curve" smooth="yes"/>
      <point x="56" y="299" type="line" smooth="yes"/>
      <point x="56" y="92"/>
      <point x="170" y="-11"/>
    </contour>
  </outline>
</glyph>
<glyph name="H" format="2">
  <advance width="687"/>
  <unicode hex="0048"/>
  <outline>
    <contour>
      <point x="60" y="0" type="line"/>
      <point x="195" y="0" type="line"/>
      <point x="195" y="299" type="line"/>
      <point x="493" y="299" type="line"/>
      <point x="493" y="0" type="line"/>
      <point x="627" y="0" type="line"/>
      <point x="627" y="707" type="line"/>
      <point x="493" y="707" type="line"/>
      <point x="493" y="416" type="line"/>
      <point x="195" y="416" type="line"/>
      <point x="195" y="707" type="line"/>
      <point x="60" y="707" type="line"/>
    </contour>
  </outline>
</glyph>
<glyph name="J" format="2">
  <advance width="370"/>
  <unicode hex="004A"/>
  <anchor x="236" y="707" name="top"/>
  <outline>
    <contour>
      <point x="25" y="0" type="line"/>
      <point x="122" y="0" type="line" smooth="yes"/>
      <point x="182" y="0"/>
      <point x="227" y="15"/>
      <point x="258" y="45" type="curve" smooth="yes"/>
      <point x="289" y="74"/>
      <point x="304" y="118"/>
      <point x="304" y="177" type="curve" smooth="yes"/>
      <point x="304" y="707" type="line"/>
      <point x="169" y="707" type="line"/>
      <point x="169" y="200" type="line" smooth="yes"/>
      <point x="169" y="169"/>
      <point x="163" y="148"/>
      <point x="152" y="136" type="curve" smooth="yes"/>
      <point x="140" y="124"/>
      <point x="118" y="118"/>
      <point x="87" y="118" type="curve" smooth="yes"/>
      <point x="25" y="118" type="line"/>
    </contour>
  </outline>
</glyph>
<glyph name="M" format="2">
  <advance width="828"/>
  <unicode hex="004D"/>
  <outline>
    <contour>
      <point x="60" y="0" type="line"/>
      <point x="195" y="0" type="line"/>
      <point x="195" y="451" type="line"/>
      <point x="371" y="136" type="line"/>
      <point x="461" y="136" type="line"/>
      <point x="634" y="447" type="line"/>
      <point x="634" y="0" type="line"/>
      <point x="768" y="0" type="line"/>
      <point x="768" y="707" type="line"/>
      <point x="634" y="707" type="line"/>
      <point x="416" y="302" type="line"/>
      <point x="195" y="707" type="line"/>
      <point x="60" y="707" type="line"/>
    </contour>
  </outline>
</glyph>
<glyph name="O" format="2">
  <advance width="689"/>
  <unicode hex="004F"/>
  <outline>
    <contour>
      <point x="347" y="-11" type="curve" smooth="yes"/>
      <point x="438" y="-11"/>
      <point x="511" y="15"/>
      <point x="564" y="67" type="curve" smooth="yes"/>
      <point x="617" y="119"/>
      <point x="643" y="196"/>
      <point x="643" y="299" type="curve" smooth="yes"/>
      <point x="643" y="410" type="line" smooth="yes"/>
      <point x="643" y="513"/>
      <point x="617" y="590"/>
      <point x="565" y="642" type="curve" smooth="yes"/>
      <point x="513" y="694"/>
      <point x="442" y="720"/>
      <point x="351" y="720" type="curve" smooth="yes"/>
      <point x="259" y="720"/>
      <point x="187" y="694"/>
      <point x="135" y="643" type="curve" smooth="yes"/>
      <point x="82" y="591"/>
      <point x="56" y="513"/>
      <point x="56" y="410" type="curve" smooth="yes"/>
      <point x="56" y="299" type="line" smooth="yes"/>
      <point x="56" y="196"/>
      <point x="82" y="118"/>
      <point x="133" y="67" type="curve" smooth="yes"/>
      <point x="184" y="15"/>
      <point x="256" y="-11"/>
    </contour>
    <contour>
      <point x="231" y="157" type="curve" smooth="yes"/>
      <point x="204" y="188"/>
      <point x="191" y="236"/>
      <point x="191" y="301" type="curve" smooth="yes"/>
      <point x="191" y="402" type="line" smooth="yes"/>
      <point x="191" y="470"/>
      <point x="204" y="520"/>
      <point x="231" y="553" type="curve" smooth="yes"/>
      <point x="257" y="586"/>
      <point x="297" y="602"/>
      <point x="351" y="602" type="curve" smooth="yes"/>
      <point x="456" y="602"/>
      <point x="509" y="535"/>
      <point x="509" y="402" type="curve" smooth="yes"/>
      <point x="509" y="301" type="line" smooth="yes"/>
      <point x="509" y="174"/>
      <point x="456" y="110"/>
      <point x="351" y="110" type="curve" smooth="yes"/>
      <point x="297" y="110"/>
      <point x="257" y="126"/>
    </contour>
  </outline>
</glyph>
<glyph name="P" format="2">
  <advance width="643"/>
  <unicode hex="0050"/>
  <outline>
    <contour>
      <point x="60" y="0" type="line"/>
      <point x="195" y="0" type="line"/>
      <point x="195" y="268" type="line"/>
      <point x="360" y="268" type="line" smooth="yes"/>
      <point x="525" y="268"/>
      <point x="618" y="348"/>
      <point x="618" y="485" type="curve" smooth="yes"/>
      <point x="618" y="626"/>
      <point x="525" y="707"/>
      <point x="366" y="707" type="curve" smooth="yes"/>
      <point x="60" y="707" type="line"/>
    </contour>
    <contour>
      <point x="195" y="386" type="line"/>
      <point x="195" y="590" type="line"/>
      <point x="371" y="590" type="line" smooth="yes"/>
      <point x="442" y="590"/>
      <point x="484" y="557"/>
      <point x="484" y="486" type="curve" smooth="yes"/>
      <point x="484" y="419"/>
      <point x="446" y="386"/>
      <point x="371" y="386" type="curve" smooth="yes"/>
    </contour>
  </outline>
</glyph>
<glyph name="Q" format="2">
  <advance width="689"/>
  <unicode hex="0051"/>
  <outline>
    <contour>
      <point x="519" y="-158" type="line"/>
      <point x="622" y="-101" type="line"/>
      <point x="541" y="47" type="line"/>
      <point x="609" y="100"/>
      <point x="643" y="184"/>
      <point x="643" y="299" type="curve" smooth="yes"/>
      <point x="643" y="410" type="line" smooth="yes"/>
      <point x="643" y="513"/>
      <point x="617" y="590"/>
      <point x="565" y="642" type="curve" smooth="yes"/>
      <point x="513" y="694"/>
      <point x="442" y="720"/>
      <point x="351" y="720" type="curve" smooth="yes"/>
      <point x="259" y="720"/>
      <point x="187" y="694"/>
      <point x="135" y="643" type="curve" smooth="yes"/>
      <point x="82" y="591"/>
      <point x="56" y="513"/>
      <point x="56" y="410" type="curve" smooth="yes"/>
      <point x="56" y="299" type="line" smooth="yes"/>
      <point x="56" y="196"/>
      <point x="82" y="118"/>
      <point x="133" y="67" type="curve" smooth="yes"/>
      <point x="184" y="15"/>
      <point x="256" y="-11"/>
      <point x="347" y="-11" type="curve" smooth="yes"/>
      <point x="378" y="-11"/>
      <point x="407" y="-8"/>
      <point x="434" y="-2" type="curve"/>
    </contour>
    <contour>
      <point x="231" y="157" type="curve" smooth="yes"/>
      <point x="204" y="188"/>
      <point x="191" y="236"/>
      <point x="191" y="301" type="curve" smooth="yes"/>
      <point x="191" y="402" type="line" smooth="yes"/>
      <point x="191" y="470"/>
      <point x="204" y="520"/>
      <point x="231" y="553" type="curve" smooth="yes"/>
      <point x="257" y="586"/>
      <point x="297" y="602"/>
      <point x="351" y="602" type="curve" smooth="yes"/>
      <point x="456" y="602"/>
      <point x="509" y="535"/>
      <point x="509" y="402" type="curve" smooth="yes"/>
      <point x="509" y="301" type="line" smooth="yes"/>
      <point x="509" y="174"/>
      <point x="456" y="110"/>
      <point x="351" y="110" type="curve" smooth="yes"/>
      <point x="297" y="110"/>
      <point x="257" y="126"/>
    </contour>
  </outline>
</glyph>
<glyph name="R" format="2">
  <advance width="679"/>
  <unicode hex="0052"/>
  <outline>
    <contour>
      <point x="60" y="0" type="line"/>
      <point x="195" y="0" type="line"/>
      <point x="195" y="278" type="line"/>
      <point x="335" y="278" type="line"/>
      <point x="489" y="0" type="line"/>
      <point x="649" y="0" type="line"/>
      <point x="474" y="294" type="line"/>
      <point x="568" y="324"/>
      <point x="617" y="390"/>
      <point x="617" y="492" type="curve" smooth="yes"/>
      <point x="617" y="631"/>
      <point x="521" y="707"/>
      <point x="368" y="707" type="curve" smooth="yes"/>
      <point x="60" y="707" type="line"/>
    </contour>
    <contour>
      <point x="195" y="392" type="line"/>
      <point x="195" y="590" type="line"/>
      <point x="372" y="590" type="line" smooth="yes"/>
      <point x="442" y="590"/>
      <point x="484" y="558"/>
      <point x="484" y="492" type="curve" smooth="yes"/>
      <point x="484" y="426"/>
      <point x="447" y="392"/>
      <point x="372" y="392" type="curve" smooth="yes"/>
    </contour>
  </outline>
</glyph>
<glyph name="S" format="2">
  <advance width="622"/>
  <unicode hex="0053"/>
  <outline>
    <contour>
      <point x="307" y="-6" type="curve" smooth="yes"/>
      <point x="483" y="-6"/>
      <point x="591" y="72"/>
      <point x="591" y="214" type="curve" smooth="yes"/>
      <point x="591" y="328"/>
      <point x="520" y="395"/>
      <point x="386" y="413" type="curve" smooth="yes"/>
      <point x="301" y="424" type="line" smooth="yes"/>
      <point x="216" y="434"/>
      <point x="176" y="461"/>
      <point x="176" y="514" type="curve" smooth="yes"/>
      <point x="176" y="571"/>
      <point x="218" y="604"/>
      <point x="310" y="604" type="curve" smooth="yes"/>
      <point x="401" y="604"/>
      <point x="441" y="572"/>
      <point x="447" y="506" type="curve"/>
      <point x="447" y="480" type="line"/>
      <point x="577" y="480" type="line"/>
      <point x="577" y="506" type="line"/>
      <point x="565" y="640"/>
      <point x="474" y="717"/>
      <point x="313" y="717" type="curve" smooth="yes"/>
      <point x="146" y="717"/>
      <point x="46" y="635"/>
      <point x="46" y="504" type="curve" smooth="yes"/>
      <point x="46" y="390"/>
      <point x="118" y="324"/>
      <point x="261" y="306" type="curve" smooth="yes"/>
      <point x="336" y="297" type="line" smooth="yes"/>
      <point x="422" y="287"/>
      <point x="459" y="260"/>
      <point x="459" y="204" type="curve" smooth="yes"/>
      <point x="458" y="141"/>
      <point x="410" y="109"/>
      <point x="314" y="109" type="curve" smooth="yes"/>
      <point x="215" y="109"/>
      <point x="167" y="143"/>
      <point x="157" y="215" type="curve"/>
      <point x="157" y="230" type="line"/>
      <point x="29" y="230" type="line"/>
      <point x="29" y="215" type="line"/>
      <point x="39" y="74"/>
      <point x="135" y="-6"/>
    </contour>
  </outline>
</glyph>
<glyph name="T" format="2">
  <advance width="598"/>
  <unicode hex="0054"/>
  <outline>
    <contour>
      <point x="232" y="0" type="line"/>
      <point x="366" y="0" type="line"/>
      <point x="366" y="590" type="line"/>
      <point x="578" y="590" type="line"/>
      <point x="578" y="707" type="line"/>
      <point x="20" y="707" type="line"/>
      <point x="20" y="590" type="line"/>
      <point x="232" y="590" type="line"/>
    </contour>
  </outline>
</glyph>
<glyph name="U" format="2">
  <advance width="692"/>
  <unicode hex="0055"/>
  <outline>
    <contour>
      <point x="345" y="-6" type="curve" smooth="yes"/>
      <point x="515" y="-6"/>
      <point x="632" y="94"/>
      <point x="632" y="254" type="curve" smooth="yes"/>
      <point x="632" y="707" type="line"/>
      <point x="498" y="707" type="line"/>
      <point x="498" y="258" type="line" smooth="yes"/>
      <point x="498" y="162"/>
      <point x="443" y="111"/>
      <point x="345" y="111" type="curve" smooth="yes"/>
      <point x="246" y="111"/>
      <point x="195" y="163"/>
      <point x="195" y="258" type="curve" smooth="yes"/>
      <point x="195" y="707" type="line"/>
      <point x="60" y="707" type="line"/>
      <point x="60" y="254" type="line" smooth="yes"/>
      <point x="60" y="96"/>
      <point x="173" y="-6"/>
    </contour>
  </outline>
</glyph>
<glyph name="X" format="2">
  <advance width="681"/>
  <unicode hex="0058"/>
  <outline>
    <contour>
      <point x="4" y="0" type="line"/>
      <point x="166" y="0" type="line"/>
      <point x="336" y="265" type="line"/>
      <point x="513" y="0" type="line"/>
      <point x="678" y="0" type="line"/>
      <point x="420" y="373" type="line"/>
      <point x="652" y="707" type="line"/>
      <point x="490" y="707" type="line"/>
      <point x="344" y="473" type="line"/>
      <point x="187" y="707" type="line"/>
      <point x="23" y="707" type="line"/>
      <point x="259" y="367" type="line"/>
    </contour>
  </outline>
</glyph>
<glyph name="Z" format="2">
  <advance width="574"/>
  <unicode hex="005A"/>
  <outline>
    <contour>
      <point x="31" y="0" type="line"/>
      <point x="547" y="0" type="line"/>
      <point x="547" y="118" type="line"/>
      <point x="185" y="118" type="line"/>
      <point x="537" y="590" type="line"/>
      <point x="537" y="707" type="line"/>
      <point x="38" y="707" type="line"/>
      <point x="38" y="590" type="line"/>
      <point x="383" y="590" type="line"/>
      <point x="31" y="118" type="line"/>
    </contour>
  </outline>
</glyph>
<glyph name="a" format="2">
  <advance width="566"/>
  <unicode hex="0061"/>
  <anchor x="275" y="532" name="top"/>
  <outline>
    <contour>
      <point x="233" y="-6" type="curve" smooth="yes"/>
      <point x="301" y="-6"/>
      <point x="345" y="8"/>
      <point x="388" y="49" type="curve"/>
      <point x="388" y="0" type="line"/>
      <point x="511" y="0" type="line"/>
      <point x="511" y="340" type="line" smooth="yes"/>
      <point x="511" y="467"/>
      <point x="428" y="539"/>
      <point x="275" y="539" type="curve" smooth="yes"/>
      <point x="141" y="539"/>
      <point x="54" y="478"/>
      <point x="54" y="376" type="curve" smooth="yes"/>
      <point x="54" y="373" type="line"/>
      <point x="175" y="373" type="line"/>
      <point x="175" y="376" type="line" smooth="yes"/>
      <point x="175" y="413"/>
      <point x="203" y="441"/>
      <point x="272" y="441" type="curve" smooth="yes"/>
      <point x="347" y="441"/>
      <point x="385" y="409"/>
      <point x="385" y="346" type="curve" smooth="yes"/>
      <point x="385" y="314" type="line"/>
      <point x="243" y="314" type="line" smooth="yes"/>
      <point x="108" y="314"/>
      <point x="38" y="260"/>
      <point x="38" y="159" type="curve" smooth="yes"/>
      <point x="38" y="53"/>
      <point x="105" y="-6"/>
    </contour>
    <contour>
      <point x="161" y="162" type="curve" smooth="yes"/>
      <point x="161" y="207"/>
      <point x="193" y="227"/>
      <point x="266" y="227" type="curve" smooth="yes"/>
      <point x="385" y="227" type="line"/>
      <point x="385" y="195" type="line" smooth="yes"/>
      <point x="385" y="129"/>
      <point x="344" y="96"/>
      <point x="261" y="95" type="curve" smooth="yes"/>
      <point x="196" y="95"/>
      <point x="161" y="119"/>
    </contour>
  </outline>
</glyph>
<glyph name="b" format="2">
  <advance width="584"/>
  <unicode hex="0062"/>
  <outline>
    <contour>
      <point x="330" y="-9" type="curve" smooth="yes"/>
      <point x="370" y="-9"/>
      <point x="406" y="1"/>
      <point x="437" y="20" type="curve" smooth="yes"/>
      <point x="468" y="39"/>
      <point x="493" y="67"/>
      <point x="512" y="104" type="curve" smooth="yes"/>
      <point x="530" y="141"/>
      <point x="539" y="186"/>
      <point x="539" y="237" type="curve" smooth="yes"/>
      <point x="539" y="303" type="line" smooth="yes"/>
      <point x="539" y="380"/>
      <point x="520" y="440"/>
      <point x="483" y="481" type="curve" smooth="yes"/>
      <point x="445" y="522"/>
      <point x="394" y="542"/>
      <point x="331" y="542" type="curve" smooth="yes"/>
      <point x="300" y="542"/>
      <point x="271" y="536"/>
      <point x="246" y="524" type="curve" smooth="yes"/>
      <point x="221" y="511"/>
      <point x="199" y="494"/>
      <point x="182" y="472" type="curve"/>
      <point x="182" y="707" type="line"/>
      <point x="55" y="707" type="line"/>
      <point x="55" y="0" type="line"/>
      <point x="179" y="0" type="line"/>
      <point x="179" y="54" type="line"/>
      <point x="216" y="12"/>
      <point x="266" y="-9"/>
    </contour>
    <contour>
      <point x="214" y="139" type="curve" smooth="yes"/>
      <point x="193" y="162"/>
      <point x="182" y="192"/>
      <point x="182" y="231" type="curve" smooth="yes"/>
      <point x="182" y="299" type="line" smooth="yes"/>
      <point x="182" y="340"/>
      <point x="192" y="372"/>
      <point x="213" y="395" type="curve" smooth="yes"/>
      <point x="234" y="418"/>
      <point x="262" y="429"/>
      <point x="298" y="429" type="curve" smooth="yes"/>
      <point x="374" y="429"/>
      <point x="412" y="385"/>
      <point x="412" y="297" type="curve" smooth="yes"/>
      <point x="412" y="242" type="line" smooth="yes"/>
      <point x="412" y="196"/>
      <point x="402" y="162"/>
      <point x="383" y="139" type="curve" smooth="yes"/>
      <point x="364" y="116"/>
      <point x="336" y="104"/>
      <point x="300" y="104" type="curve" smooth="yes"/>
      <point x="264" y="104"/>
      <point x="235" y="116"/>
    </contour>
  </outline>
</glyph>
<glyph name="c" format="2">
  <advance width="572"/>
  <unicode hex="0063"/>
  <outline>
    <contour>
      <point x="290" y="-9" type="curve" smooth="yes"/>
      <point x="435" y="-9"/>
      <point x="525" y="63"/>
      <point x="525" y="186" type="curve" smooth="yes"/>
      <point x="525" y="190" type="line"/>
      <point x="401" y="190" type="line"/>
      <point x="401" y="186" type="line" smooth="yes"/>
      <point x="401" y="136"/>
      <point x="362" y="104"/>
      <point x="296" y="104" type="curve" smooth="yes"/>
      <point x="213" y="104"/>
      <point x="173" y="144"/>
      <point x="173" y="237" type="curve" smooth="yes"/>
      <point x="173" y="297" type="line" smooth="yes"/>
      <point x="173" y="388"/>
      <point x="214" y="429"/>
      <point x="293" y="429" type="curve" smooth="yes"/>
      <point x="361" y="429"/>
      <point x="402" y="397"/>
      <point x="402" y="343" type="curve" smooth="yes"/>
      <point x="402" y="339" type="line"/>
      <point x="526" y="339" type="line"/>
      <point x="526" y="345" type="line" smooth="yes"/>
      <point x="526" y="467"/>
      <point x="440" y="542"/>
      <point x="290" y="542" type="curve" smooth="yes"/>
      <point x="138" y="542"/>
      <point x="47" y="457"/>
      <point x="47" y="299" type="curve" smooth="yes"/>
      <point x="47" y="236" type="line" smooth="yes"/>
      <point x="47" y="75"/>
      <point x="139" y="-9"/>
    </contour>
  </outline>
</glyph>
<glyph name="d" format="2">
  <advance width="584"/>
  <unicode hex="0064"/>
  <outline>
    <contour>
      <point x="47" y="233" type="curve" smooth="yes"/>
      <point x="47" y="300" type="line" smooth="yes"/>
      <point x="47" y="351"/>
      <point x="56" y="395"/>
      <point x="73" y="431" type="curve" smooth="yes"/>
      <point x="90" y="467"/>
      <point x="115" y="495"/>
      <point x="146" y="514" type="curve" smooth="yes"/>
      <point x="177" y="533"/>
      <point x="213" y="542"/>
      <point x="253" y="542" type="curve" smooth="yes"/>
      <point x="316" y="542"/>
      <point x="366" y="520"/>
      <point x="403" y="475" type="curve"/>
      <point x="403" y="707" type="line"/>
      <point x="529" y="707" type="line"/>
      <point x="529" y="0" type="line"/>
      <point x="406" y="0" type="line"/>
      <point x="406" y="57" type="line"/>
      <point x="371" y="12"/>
      <point x="321" y="-10"/>
      <point x="255" y="-9" type="curve" smooth="yes"/>
      <point x="192" y="-9"/>
      <point x="142" y="12"/>
      <point x="104" y="54" type="curve" smooth="yes"/>
      <point x="66" y="95"/>
      <point x="47" y="155"/>
    </contour>
    <contour>
      <point x="403" y="231" type="curve" smooth="yes"/>
      <point x="403" y="299" type="line" smooth="yes"/>
      <point x="403" y="340"/>
      <point x="393" y="372"/>
      <point x="373" y="395" type="curve" smooth="yes"/>
      <point x="352" y="418"/>
      <point x="324" y="429"/>
      <point x="287" y="429" type="curve" smooth="yes"/>
      <point x="251" y="429"/>
      <point x="223" y="418"/>
      <point x="204" y="396" type="curve" smooth="yes"/>
      <point x="184" y="373"/>
      <point x="174" y="339"/>
      <point x="174" y="294" type="curve" smooth="yes"/>
      <point x="174" y="239" type="line" smooth="yes"/>
      <point x="174" y="194"/>
      <point x="184" y="160"/>
      <point x="203" y="138" type="curve" smooth="yes"/>
      <point x="222" y="115"/>
      <point x="249" y="104"/>
      <point x="284" y="104" type="curve" smooth="yes"/>
      <point x="321" y="104"/>
      <point x="350" y="115"/>
      <point x="371" y="138" type="curve" smooth="yes"/>
      <point x="392" y="161"/>
      <point x="403" y="192"/>
    </contour>
  </outline>
</glyph>
<glyph name="e" format="2">
  <advance width="584"/>
  <unicode hex="0065"/>
  <outline>
    <contour>
      <point x="299" y="-9" type="curve" smooth="yes"/>
      <point x="436" y="-9"/>
      <point x="528" y="58"/>
      <point x="534" y="161" type="curve" smooth="yes"/>
      <point x="534" y="167" type="line"/>
      <point x="410" y="167" type="line"/>
      <point x="409" y="164" type="line" smooth="yes"/>
      <point x="403" y="124"/>
      <point x="362" y="101"/>
      <point x="304" y="101" type="curve" smooth="yes"/>
      <point x="217" y="101"/>
      <point x="173" y="144"/>
      <point x="173" y="229" type="curve" smooth="yes"/>
      <point x="173" y="231" type="line"/>
      <point x="539" y="231" type="line"/>
      <point x="539" y="293" type="line" smooth="yes"/>
      <point x="539" y="454"/>
      <point x="446" y="542"/>
      <point x="293" y="542" type="curve" smooth="yes"/>
      <point x="138" y="542"/>
      <point x="47" y="451"/>
      <point x="47" y="290" type="curve" smooth="yes"/>
      <point x="47" y="244" type="line" smooth="yes"/>
      <point x="47" y="78"/>
      <point x="141" y="-9"/>
    </contour>
    <contour>
      <point x="173" y="318" type="line"/>
      <point x="178" y="395"/>
      <point x="218" y="433"/>
      <point x="293" y="433" type="curve" smooth="yes"/>
      <point x="364" y="433"/>
      <point x="412" y="397"/>
      <point x="412" y="326" type="curve" smooth="yes"/>
      <point x="412" y="318" type="line"/>
    </contour>
  </outline>
</glyph>
<glyph name="f" format="2">
  <advance width="376"/>
  <unicode hex="0066"/>
  <outline>
    <contour>
      <point x="109" y="0" type="line"/>
      <point x="234" y="0" type="line"/>
      <point x="234" y="443" type="line"/>
      <point x="349" y="443" type="line"/>
      <point x="349" y="532" type="line"/>
      <point x="234" y="532" type="line"/>
      <point x="234" y="559" type="line" smooth="yes"/>
      <point x="234" y="601"/>
      <point x="249" y="621"/>
      <point x="302" y="621" type="curve" smooth="yes"/>
      <point x="349" y="621" type="line"/>
      <point x="349" y="707" type="line"/>
      <point x="266" y="707" type="line" smooth="yes"/>
      <point x="160" y="707"/>
      <point x="109" y="654"/>
      <point x="109" y="554" type="curve" smooth="yes"/>
      <point x="109" y="532" type="line"/>
      <point x="37" y="532" type="line"/>
      <point x="37" y="443" type="line"/>
      <point x="109" y="443" type="line"/>
    </contour>
  </outline>
</glyph>
<glyph name="g" format="2">
  <advance width="584"/>
  <unicode hex="0067"/>
  <outline>
    <contour>
      <point x="280" y="-168" type="curve" smooth="yes"/>
      <point x="436" y="-168"/>
      <point x="529" y="-85"/>
      <point x="529" y="49" type="curve" smooth="yes"/>
      <point x="529" y="532" type="line"/>
      <point x="404" y="532" type="line"/>
      <point x="404" y="475" type="line"/>
      <point x="365" y="520"/>
      <point x="315" y="542"/>
      <point x="253" y="542" type="curve" smooth="yes"/>
      <point x="131" y="542"/>
      <point x="47" y="456"/>
      <point x="47" y="308" type="curve" smooth="yes"/>
      <point x="47" y="267" type="line" smooth="yes"/>
      <point x="47" y="115"/>
      <point x="129" y="30"/>
      <point x="255" y="30" type="curve" smooth="yes"/>
      <point x="320" y="29"/>
      <point x="370" y="51"/>
      <point x="404" y="96" type="curve"/>
      <point x="404" y="41" type="line" smooth="yes"/>
      <point x="404" y="-32"/>
      <point x="365" y="-68"/>
      <point x="286" y="-68" type="curve" smooth="yes"/>
      <point x="225" y="-68"/>
      <point x="191" y="-46"/>
      <point x="181" y="-11" type="curve"/>
      <point x="59" y="-11" type="line"/>
      <point x="63" y="-113"/>
      <point x="146" y="-168"/>
    </contour>
    <contour>
      <point x="174" y="272" type="curve" smooth="yes"/>
      <point x="174" y="302" type="line" smooth="yes"/>
      <point x="174" y="387"/>
      <point x="215" y="429"/>
      <point x="286" y="429" type="curve" smooth="yes"/>
      <point x="358" y="429"/>
      <point x="403" y="381"/>
      <point x="403" y="307" type="curve" smooth="yes"/>
      <point x="403" y="265" type="line" smooth="yes"/>
      <point x="403" y="191"/>
      <point x="358" y="143"/>
      <point x="284" y="143" type="curve" smooth="yes"/>
      <point x="212" y="143"/>
      <point x="174" y="186"/>
    </contour>
  </outline>
</glyph>
<glyph name="h" format="2">
  <advance width="585"/>
  <unicode hex="0068"/>
  <outline>
    <contour>
      <point x="55" y="0" type="line"/>
      <point x="182" y="0" type="line"/>
      <point x="182" y="301" type="line" smooth="yes"/>
      <point x="182" y="385"/>
      <point x="226" y="426"/>
      <point x="298" y="426" type="curve" smooth="yes"/>
      <point x="368" y="426"/>
      <point x="403" y="386"/>
      <point x="403" y="306" type="curve" smooth="yes"/>
      <point x="403" y="0" type="line"/>
      <point x="530" y="0" type="line"/>
      <point x="530" y="332" type="line" smooth="yes"/>
      <point x="530" y="461"/>
      <point x="459" y="539"/>
      <point x="336" y="539" type="curve" smooth="yes"/>
      <point x="274" y="539"/>
      <point x="220" y="518"/>
      <point x="182" y="476" type="curve"/>
      <point x="182" y="707" type="line"/>
      <point x="55" y="707" type="line"/>
    </contour>
  </outline>
</glyph>
<glyph name="k" format="2">
  <advance width="590"/>
  <unicode hex="006B"/>
  <outline>
    <contour>
      <point x="55" y="0" type="line"/>
      <point x="182" y="0" type="line"/>
      <point x="182" y="165" type="line"/>
      <point x="258" y="239" type="line"/>
      <point x="416" y="0" type="line"/>
      <point x="577" y="0" type="line"/>
      <point x="347" y="325" type="line"/>
      <point x="561" y="532" type="line"/>
      <point x="398" y="532" type="line"/>
      <point x="182" y="307" type="line"/>
      <point x="182" y="707" type="line"/>
      <point x="55" y="707" type="line"/>
    </contour>
  </outline>
</glyph>
<glyph name="l" format="2">
  <advance width="321"/>
  <unicode hex="006C"/>
  <outline>
    <contour>
      <point x="232" y="0" type="curve" smooth="yes"/>
      <point x="303" y="0" type="line"/>
      <point x="303" y="110" type="line"/>
      <point x="255" y="110" type="line" smooth="yes"/>
      <point x="202" y="110"/>
      <point x="182" y="127"/>
      <point x="182" y="180" type="curve" smooth="yes"/>
      <point x="182" y="707" type="line"/>
      <point x="55" y="707" type="line"/>
      <point x="55" y="172" type="line" smooth="yes"/>
      <point x="55" y="55"/>
      <point x="113" y="0"/>
    </contour>
  </outline>
</glyph>
<glyph name="n" format="2">
  <advance width="585"/>
  <unicode hex="006E"/>
  <outline>
    <contour>
      <point x="55" y="0" type="line"/>
      <point x="182" y="0" type="line"/>
      <point x="182" y="301" type="line" smooth="yes"/>
      <point x="182" y="385"/>
      <point x="226" y="426"/>
      <point x="298" y="426" type="curve" smooth="yes"/>
      <point x="368" y="426"/>
      <point x="403" y="386"/>
      <point x="403" y="306" type="curve" smooth="yes"/>
      <point x="403" y="0" type="line"/>
      <point x="530" y="0" type="line"/>
      <point x="530" y="332" type="line" smooth="yes"/>
      <point x="530" y="462"/>
      <point x="458" y="539"/>
      <point x="336" y="539" type="curve" smooth="yes"/>
      <point x="274" y="539"/>
      <point x="217" y="517"/>
      <point x="179" y="475" type="curve"/>
      <point x="179" y="532" type="line"/>
      <point x="55" y="532" type="line"/>
    </contour>
  </outline>
</glyph>
<glyph name="o" format="2">
  <advance width="576"/>
  <unicode hex="006F"/>
  <outline>
    <contour>
      <point x="290" y="-9" type="curve" smooth="yes"/>
      <point x="439" y="-9"/>
      <point x="530" y="75"/>
      <point x="530" y="236" type="curve" smooth="yes"/>
      <point x="530" y="299" type="line" smooth="yes"/>
      <point x="530" y="457"/>
      <point x="440" y="542"/>
      <point x="290" y="542" type="curve" smooth="yes"/>
      <point x="138" y="542"/>
      <point x="47" y="457"/>
      <point x="47" y="299" type="curve" smooth="yes"/>
      <point x="47" y="236" type="line" smooth="yes"/>
      <point x="47" y="75"/>
      <point x="139" y="-9"/>
    </contour>
    <contour>
      <point x="173" y="237" type="curve" smooth="yes"/>
      <point x="173" y="297" type="line" smooth="yes"/>
      <point x="173" y="385"/>
      <point x="212" y="429"/>
      <point x="290" y="429" type="curve" smooth="yes"/>
      <point x="363" y="429"/>
      <point x="404" y="388"/>
      <point x="404" y="297" type="curve" smooth="yes"/>
      <point x="404" y="237" type="line" smooth="yes"/>
      <point x="404" y="149"/>
      <point x="366" y="105"/>
      <point x="290" y="104" type="curve" smooth="yes"/>
      <point x="212" y="105"/>
      <point x="173" y="149"/>
    </contour>
  </outline>
</glyph>
<glyph name="p" format="2">
  <advance width="584"/>
  <unicode hex="0070"/>
  <outline>
    <contour>
      <point x="55" y="-160" type="line"/>
      <point x="182" y="-160" type="line"/>
      <point x="182" y="54" type="line"/>
      <point x="217" y="12"/>
      <point x="267" y="-9"/>
      <point x="330" y="-9" type="curve" smooth="yes"/>
      <point x="450" y="-9"/>
      <point x="539" y="83"/>
      <point x="539" y="237" type="curve" smooth="yes"/>
      <point x="539" y="303" type="line" smooth="yes"/>
      <point x="539" y="458"/>
      <point x="456" y="542"/>
      <point x="331" y="542" type="curve" smooth="yes"/>
      <point x="269" y="542"/>
      <point x="218" y="519"/>
      <point x="179" y="472" type="curve"/>
      <point x="179" y="532" type="line"/>
      <point x="55" y="532" type="line"/>
    </contour>
    <contour>
      <point x="182" y="231" type="curve" smooth="yes"/>
      <point x="182" y="299" type="line" smooth="yes"/>
      <point x="182" y="381"/>
      <point x="226" y="429"/>
      <point x="298" y="429" type="curve" smooth="yes"/>
      <point x="374" y="429"/>
      <point x="412" y="385"/>
      <point x="412" y="297" type="curve" smooth="yes"/>
      <point x="412" y="242" type="line" smooth="yes"/>
      <point x="412" y="150"/>
      <point x="372" y="104"/>
      <point x="300" y="104" type="curve" smooth="yes"/>
      <point x="228" y="104"/>
      <point x="182" y="153"/>
    </contour>
  </outline>
</glyph>
<glyph name="q" format="2">
  <advance width="584"/>
  <unicode hex="0071"/>
  <outline>
    <contour>
      <point x="403" y="-160" type="line"/>
      <point x="529" y="-160" type="line"/>
      <point x="529" y="532" type="line"/>
      <point x="406" y="532" type="line"/>
      <point x="406" y="475" type="line"/>
      <point x="366" y="520"/>
      <point x="316" y="542"/>
      <point x="255" y="542" type="curve" smooth="yes"/>
      <point x="129" y="542"/>
      <point x="47" y="452"/>
      <point x="47" y="300" type="curve" smooth="yes"/>
      <point x="47" y="233" type="line" smooth="yes"/>
      <point x="47" y="76"/>
      <point x="130" y="-9"/>
      <point x="255" y="-9" type="curve" smooth="yes"/>
      <point x="320" y="-10"/>
      <point x="369" y="12"/>
      <point x="403" y="57" type="curve"/>
    </contour>
    <contour>
      <point x="174" y="239" type="curve" smooth="yes"/>
      <point x="174" y="294" type="line" smooth="yes"/>
      <point x="174" y="382"/>
      <point x="213" y="429"/>
      <point x="287" y="429" type="curve" smooth="yes"/>
      <point x="360" y="429"/>
      <point x="403" y="382"/>
      <point x="403" y="299" type="curve" smooth="yes"/>
      <point x="403" y="231" type="line" smooth="yes"/>
      <point x="403" y="153"/>
      <point x="358" y="104"/>
      <point x="284" y="104" type="curve" smooth="yes"/>
      <point x="215" y="104"/>
      <point x="174" y="148"/>
    </contour>
  </outline>
</glyph>
<glyph name="r" format="2">
  <advance width="403"/>
  <unicode hex="0072"/>
  <outline>
    <contour>
      <point x="55" y="0" type="line"/>
      <point x="182" y="0" type="line"/>
      <point x="182" y="295" type="line" smooth="yes"/>
      <point x="182" y="381"/>
      <point x="227" y="432"/>
      <point x="309" y="432" type="curve" smooth="yes"/>
      <point x="336" y="432"/>
      <point x="362" y="428"/>
      <point x="385" y="419" type="curve"/>
      <point x="385" y="540" type="line"/>
      <point x="372" y="543"/>
      <point x="355" y="544"/>
      <point x="335" y="544" type="curve" smooth="yes"/>
      <point x="271" y="544"/>
      <point x="215" y="520"/>
      <point x="179" y="472" type="curve"/>
      <point x="179" y="532" type="line"/>
      <point x="55" y="532" type="line"/>
    </contour>
  </outline>
</glyph>
<glyph name="s" format="2">
  <advance width="538"/>
  <unicode hex="0073"/>
  <outline>
    <contour>
      <point x="267" y="-6" type="curve" smooth="yes"/>
      <point x="415" y="-6"/>
      <point x="506" y="55"/>
      <point x="506" y="165" type="curve" smooth="yes"/>
      <point x="506" y="252"/>
      <point x="449" y="304"/>
      <point x="326" y="318" type="curve" smooth="yes"/>
      <point x="241" y="329" type="line" smooth="yes"/>
      <point x="186" y="335"/>
      <point x="165" y="353"/>
      <point x="165" y="382" type="curve" smooth="yes"/>
      <point x="165" y="420"/>
      <point x="196" y="439"/>
      <point x="267" y="439" type="curve" smooth="yes"/>
      <point x="340" y="439"/>
      <point x="378" y="419"/>
      <point x="378" y="376" type="curve" smooth="yes"/>
      <point x="378" y="373" type="line"/>
      <point x="496" y="373" type="line"/>
      <point x="496" y="377" type="line" smooth="yes"/>
      <point x="496" y="479"/>
      <point x="410" y="539"/>
      <point x="268" y="539" type="curve" smooth="yes"/>
      <point x="129" y="539"/>
      <point x="46" y="479"/>
      <point x="46" y="374" type="curve" smooth="yes"/>
      <point x="46" y="284"/>
      <point x="101" y="236"/>
      <point x="221" y="222" type="curve" smooth="yes"/>
      <point x="300" y="213" type="line" smooth="yes"/>
      <point x="360" y="207"/>
      <point x="385" y="191"/>
      <point x="385" y="157" type="curve" smooth="yes"/>
      <point x="385" y="117"/>
      <point x="345" y="96"/>
      <point x="274" y="96" type="curve" smooth="yes"/>
      <point x="195" y="96"/>
      <point x="157" y="123"/>
      <point x="157" y="165" type="curve" smooth="yes"/>
      <point x="157" y="167" type="line"/>
      <point x="38" y="167" type="line"/>
      <point x="38" y="164" type="line" smooth="yes"/>
      <point x="38" y="56"/>
      <point x="123" y="-6"/>
    </contour>
  </outline>
</glyph>
<glyph name="t" format="2">
  <advance width="404"/>
  <unicode hex="0074"/>
  <outline>
    <contour>
      <point x="245" y="443" type="line"/>
      <point x="245" y="172" type="line" smooth="yes"/>
      <point x="245" y="149"/>
      <point x="250" y="132"/>
      <point x="260" y="123" type="curve" smooth="yes"/>
      <point x="269" y="113"/>
      <point x="286" y="108"/>
      <point x="309" y="108" type="curve" smooth="yes"/>
      <point x="354" y="108" type="line"/>
      <point x="354" y="0" type="line"/>
      <point x="286" y="0" type="line" smooth="yes"/>
      <point x="232" y="0"/>
      <point x="191" y="14"/>
      <point x="162" y="43" type="curve" smooth="yes"/>
      <point x="133" y="71"/>
      <point x="119" y="111"/>
      <point x="119" y="164" type="curve" smooth="yes"/>
      <point x="119" y="443" type="line"/>
      <point x="26" y="443" type="line"/>
      <point x="26" y="532" type="line"/>
      <point x="119" y="532" type="line"/>
      <point x="119" y="637" type="line"/>
      <point x="245" y="681" type="line"/>
      <point x="245" y="532" type="line"/>
      <point x="366" y="532" type="line"/>
      <point x="366" y="443" type="line"/>
    </contour>
  </outline>
</glyph>
<glyph name="u" format="2">
  <advance width="585"/>
  <unicode hex="0075"/>
  <outline>
    <contour>
      <point x="293" y="-9" type="curve" smooth="yes"/>
      <point x="372" y="-9"/>
      <point x="431" y="10"/>
      <point x="471" y="49" type="curve" smooth="yes"/>
      <point x="510" y="88"/>
      <point x="530" y="146"/>
      <point x="530" y="223" type="curve" smooth="yes"/>
      <point x="530" y="532" type="line"/>
      <point x="403" y="532" type="line"/>
      <point x="403" y="229" type="line" smooth="yes"/>
      <point x="403" y="188"/>
      <point x="395" y="157"/>
      <point x="378" y="136" type="curve" smooth="yes"/>
      <point x="361" y="115"/>
      <point x="332" y="104"/>
      <point x="293" y="104" type="curve" smooth="yes"/>
      <point x="254" y="104"/>
      <point x="225" y="115"/>
      <point x="208" y="136" type="curve" smooth="yes"/>
      <point x="191" y="157"/>
      <point x="182" y="188"/>
      <point x="182" y="229" type="curve" smooth="yes"/>
      <point x="182" y="532" type="line"/>
      <point x="55" y="532" type="line"/>
      <point x="55" y="223" type="line" smooth="yes"/>
      <point x="55" y="147"/>
      <point x="75" y="89"/>
      <point x="115" y="50" type="curve" smooth="yes"/>
      <point x="155" y="11"/>
      <point x="214" y="-9"/>
    </contour>
  </outline>
</glyph>
<glyph name="v" format="2">
  <advance width="551"/>
  <unicode hex="0076"/>
  <outline>
    <contour>
      <point x="223" y="0" type="line"/>
      <point x="328" y="0" type="line"/>
      <point x="543" y="532" type="line"/>
      <point x="406" y="532" type="line"/>
      <point x="276" y="171" type="line"/>
      <point x="146" y="532" type="line"/>
      <point x="9" y="532" type="line"/>
    </contour>
  </outline>
</glyph>
<glyph name="y" format="2">
  <advance width="552"/>
  <unicode hex="0079"/>
  <outline>
    <contour>
      <point x="87" y="-158" type="line"/>
      <point x="136" y="-158" type="line" smooth="yes"/>
      <point x="183" y="-158"/>
      <point x="222" y="-149"/>
      <point x="251" y="-131" type="curve" smooth="yes"/>
      <point x="280" y="-113"/>
      <point x="302" y="-85"/>
      <point x="317" y="-46" type="curve" smooth="yes"/>
      <point x="544" y="532" type="line"/>
      <point x="412" y="532" type="line"/>
      <point x="285" y="176" type="line"/>
      <point x="146" y="532" type="line"/>
      <point x="9" y="532" type="line"/>
      <point x="226" y="11" type="line"/>
      <point x="223" y="2" type="line" smooth="yes"/>
      <point x="216" y="-16"/>
      <point x="207" y="-28"/>
      <point x="196" y="-34" type="curve" smooth="yes"/>
      <point x="185" y="-41"/>
      <point x="167" y="-44"/>
      <point x="142" y="-44" type="curve" smooth="yes"/>
      <point x="87" y="-44" type="line"/>
    </contour>
  </outline>
</glyph>
<glyph name="z" format="2">
  <advance width="513"/>
  <unicode hex="007A"/>
  <outline>
    <contour>
      <point x="47" y="0" type="line"/>
      <point x="467" y="0" type="line"/>
      <point x="467" y="106" type="line"/>
      <point x="193" y="106" type="line"/>
      <point x="467" y="426" type="line"/>
      <point x="467" y="532" type="line"/>
      <point x="47" y="532" type="line"/>
      <point x="47" y="426" type="line"/>
      <point x="321" y="426" type="line"/>
      <point x="47" y="106" type="line"/>
    </contour>
  </outline>
</glyph>
<glyph name="braceleft" format="2">
  <advance width="409"/>
  <unicode hex="007B"/>
  <outline>
    <contour>
      <point x="283" y="-86" type="curve" smooth="yes"/>
      <point x="364" y="-86" type="line"/>
      <point x="364" y="16" type="line"/>
      <point x="323" y="16" type="line" smooth="yes"/>
      <point x="277" y="16"/>
      <point x="259" y="29"/>
      <point x="259" y="67" type="curve" smooth="yes"/>
      <point x="259" y="208" type="line" smooth="yes"/>
      <point x="259" y="283"/>
      <point x="240" y="320"/>
      <point x="187" y="338" type="curve"/>
      <point x="238" y="356"/>
      <point x="259" y="390"/>
      <point x="259" y="468" type="curve" smooth="yes"/>
      <point x="259" y="605" type="line" smooth="yes"/>
      <point x="259" y="642"/>
      <point x="275" y="655"/>
      <point x="323" y="655" type="curve" smooth="yes"/>
      <point x="364" y="655" type="line"/>
      <point x="364" y="758" type="line"/>
      <point x="283" y="758" type="line" smooth="yes"/>
      <point x="187" y="758"/>
      <point x="139" y="715"/>
      <point x="139" y="628" type="curve" smooth="yes"/>
      <point x="139" y="474" type="line" smooth="yes"/>
      <point x="139" y="415"/>
      <point x="114" y="392"/>
      <point x="47" y="392" type="curve"/>
      <point x="47" y="284" type="line"/>
      <point x="114" y="284"/>
      <point x="139" y="261"/>
      <point x="139" y="202" type="curve" smooth="yes"/>
      <point x="139" y="45" type="line" smooth="yes"/>
      <point x="139" y="-42"/>
      <point x="187" y="-86"/>
    </contour>
  </outline>
</glyph>
<glyph name="braceright" format="2">
  <advance width="409"/>
  <unicode hex="007D"/>
  <outline>
    <contour>
      <point x="47" y="-86" type="line"/>
      <point x="128" y="-86" type="line" smooth="yes"/>
      <point x="223" y="-86"/>
      <point x="270" y="-42"/>
      <point x="270" y="45" type="curve" smooth="yes"/>
      <point x="270" y="202" type="line" smooth="yes"/>
      <point x="270" y="260"/>
      <point x="294" y="284"/>
      <point x="364" y="284" type="curve"/>
      <point x="364" y="392" type="line"/>
      <point x="293" y="392"/>
      <point x="270" y="417"/>
      <point x="270" y="474" type="curve" smooth="yes"/>
      <point x="270" y="628" type="line" smooth="yes"/>
      <point x="270" y="715"/>
      <point x="223" y="758"/>
      <point x="128" y="758" type="curve" smooth="yes"/>
      <point x="47" y="758" type="line"/>
      <point x="47" y="655" type="line"/>
      <point x="87" y="655" type="line" smooth="yes"/>
      <point x="133" y="655"/>
      <point x="152" y="644"/>
      <point x="152" y="605" type="curve" smooth="yes"/>
      <point x="152" y="468" type="line" smooth="yes"/>
      <point x="152" y="390"/>
      <point x="172" y="356"/>
      <point x="223" y="338" type="curve"/>
      <point x="170" y="320"/>
      <point x="152" y="283"/>
      <point x="152" y="208" type="curve" smooth="yes"/>
      <point x="152" y="67" type="line" smooth="yes"/>
      <point x="152" y="31"/>
      <point x="133" y="16"/>
      <point x="87" y="16" type="curve" smooth="yes"/>
      <point x="47" y="16" type="line"/>
    </contour>
  </outline>
</glyph>
<glyph name="asciitilde" format="2">
  <advance width="541"/>
  <unicode hex="007E"/>
  <outline>
    <contour>
      <point x="122" y="201" type="line"/>
      <point x="143" y="240"/>
      <point x="160" y="258"/>
      <point x="191" y="258" type="curve" smooth="yes"/>
      <point x="211" y="258"/>
      <point x="223" y="251"/>
      <point x="257" y="233" type="curve" smooth="yes"/>
      <point x="294" y="211"/>
      <point x="318" y="200"/>
      <point x="355" y="200" type="curve" smooth="yes"/>
      <point x="416" y="200"/>
      <point x="471" y="239"/>
      <point x="503" y="312" type="curve"/>
      <point x="421" y="362" type="line"/>
      <point x="401" y="322"/>
      <point x="381" y="305"/>
      <point x="351" y="305" type="curve" smooth="yes"/>
      <point x="331" y="305"/>
      <point x="316" y="314"/>
      <point x="285" y="330" type="curve" smooth="yes"/>
      <point x="246" y="353"/>
      <point x="221" y="362"/>
      <point x="186" y="362" type="curve" smooth="yes"/>
      <point x="124" y="362"/>
      <point x="74" y="323"/>
      <point x="40" y="251" type="curve"/>
    </contour>
  </outline>
</glyph>
<glyph name="exclamdown" format="2">
  <advance width="254"/>
  <unicode hex="00A1"/>
  <outline>
    <contour>
      <point x="59" y="398" type="line"/>
      <point x="196" y="398" type="line"/>
      <point x="196" y="532" type="line"/>
      <point x="59" y="532" type="line"/>
    </contour>
    <contour>
      <point x="55" y="-160" type="line"/>
      <point x="200" y="-160" type="line"/>
      <point x="175" y="297" type="line"/>
      <point x="80" y="297" type="line"/>
    </contour>
  </outline>
</glyph>
<glyph name="cent" format="2">
  <advance width="572"/>
  <unicode hex="00A2"/>
  <outline>
    <contour>
      <point x="256" y="-102" type="line"/>
      <point x="330" y="-102" type="line"/>
      <point x="330" y="-7" type="line"/>
      <point x="391" y="-1"/>
      <point x="439" y="19"/>
      <point x="474" y="53" type="curve" smooth="yes"/>
      <point x="508" y="86"/>
      <point x="525" y="131"/>
      <point x="525" y="186" type="curve" smooth="yes"/>
      <point x="525" y="190" type="line"/>
      <point x="401" y="190" type="line"/>
      <point x="401" y="186" type="line" smooth="yes"/>
      <point x="401" y="161"/>
      <point x="392" y="141"/>
      <point x="373" y="126" type="curve" smooth="yes"/>
      <point x="354" y="111"/>
      <point x="329" y="104"/>
      <point x="296" y="104" type="curve" smooth="yes"/>
      <point x="255" y="104"/>
      <point x="224" y="115"/>
      <point x="204" y="136" type="curve" smooth="yes"/>
      <point x="183" y="157"/>
      <point x="173" y="190"/>
      <point x="173" y="237" type="curve" smooth="yes"/>
      <point x="173" y="297" type="line" smooth="yes"/>
      <point x="173" y="343"/>
      <point x="183" y="377"/>
      <point x="204" y="398" type="curve" smooth="yes"/>
      <point x="224" y="419"/>
      <point x="254" y="429"/>
      <point x="293" y="429" type="curve" smooth="yes"/>
      <point x="327" y="429"/>
      <point x="354" y="421"/>
      <point x="373" y="406" type="curve" smooth="yes"/>
      <point x="392" y="391"/>
      <point x="402" y="370"/>
      <point x="402" y="343" type="curve" smooth="yes"/>
      <point x="402" y="339" type="line"/>
      <point x="526" y="339" type="line"/>
      <point x="526" y="345" type="line" smooth="yes"/>
      <point x="526" y="401"/>
      <point x="509" y="446"/>
      <point x="475" y="480" type="curve" smooth="yes"/>
      <point x="440" y="514"/>
      <point x="392" y="534"/>
      <point x="330" y="540" type="curve"/>
      <point x="330" y="633" type="line"/>
      <point x="256" y="633" type="line"/>
      <point x="256" y="541" type="line"/>
      <point x="191" y="534"/>
      <point x="140" y="511"/>
      <point x="103" y="470" type="curve" smooth="yes"/>
      <point x="66" y="429"/>
      <point x="47" y="372"/>
      <point x="47" y="299" type="curve" smooth="yes"/>
      <point x="47" y="236" type="line" smooth="yes"/>
      <point x="47" y="162"/>
      <point x="65" y="104"/>
      <point x="102" y="63" type="curve" smooth="yes"/>
      <point x="139" y="22"/>
      <point x="190" y="-2"/>
      <point x="256" y="-8" type="curve"/>
    </contour>
  </outline>
</glyph>
<glyph name="sterling" format="2">
  <advance width="530"/>
  <unicode hex="00A3"/>
  <outline>
    <contour>
      <point x="49" y="0" type="line"/>
      <point x="508" y="0" type="line"/>
      <point x="508" y="116" type="line"/>
      <point x="199" y="116" type="line"/>
      <point x="223" y="140"/>
      <point x="234" y="173"/>
      <point x="234" y="219" type="curve" smooth="yes"/>
      <point x="234" y="283" type="line"/>
      <point x="400" y="283" type="line"/>
      <point x="400" y="399" type="line"/>
      <point x="234" y="399" type="line"/>
      <point x="234" y="529" type="line" smooth="yes"/>
      <point x="234" y="577"/>
      <point x="260" y="603"/>
      <point x="310" y="603" type="curve" smooth="yes"/>
      <point x="358" y="603"/>
      <point x="383" y="582"/>
      <point x="383" y="542" type="curve"/>
      <point x="508" y="542" type="line"/>
      <point x="508" y="653"/>
      <point x="431" y="717"/>
      <point x="308" y="717" type="curve" smooth="yes"/>
      <point x="174" y="717"/>
      <point x="100" y="640"/>
      <point x="100" y="514" type="curve" smooth="yes"/>
      <point x="100" y="399" type="line"/>
      <point x="29" y="399" type="line"/>
      <point x="29" y="283" type="line"/>
      <point x="100" y="283" type="line"/>
      <point x="100" y="206" type="line" smooth="yes"/>
      <point x="100" y="150"/>
      <point x="85" y="124"/>
      <point x="49" y="111" type="curve"/>
    </contour>
  </outline>
</glyph>
<glyph name="currency" format="2">
  <advance width="609"/>
  <unicode hex="00A4"/>
  <outline>
    <contour>
      <point x="129" y="76" type="line"/>
      <point x="197" y="143" type="line"/>
      <point x="229" y="124"/>
      <point x="265" y="115"/>
      <point x="304" y="115" type="curve" smooth="yes"/>
      <point x="344" y="114"/>
      <point x="380" y="124"/>
      <point x="412" y="143" type="curve"/>
      <point x="479" y="76" type="line"/>
      <point x="554" y="151" type="line"/>
      <point x="486" y="218" type="line"/>
      <point x="504" y="250"/>
      <point x="513" y="285"/>
      <point x="513" y="324" type="curve" smooth="yes"/>
      <point x="513" y="361"/>
      <point x="504" y="395"/>
      <point x="485" y="428" type="curve"/>
      <point x="553" y="497" type="line"/>
      <point x="479" y="571" type="line"/>
      <point x="411" y="504" type="line"/>
      <point x="378" y="522"/>
      <point x="342" y="531"/>
      <point x="304" y="531" type="curve" smooth="yes"/>
      <point x="266" y="532"/>
      <point x="231" y="523"/>
      <point x="198" y="504" type="curve"/>
      <point x="130" y="571" type="line"/>
      <point x="55" y="497" type="line"/>
      <point x="124" y="428" type="line"/>
      <point x="105" y="395"/>
      <point x="96" y="361"/>
      <point x="96" y="324" type="curve" smooth="yes"/>
      <point x="96" y="284"/>
      <point x="105" y="249"/>
      <point x="123" y="219" type="curve"/>
      <point x="54" y="151" type="line"/>
    </contour>
    <contour>
      <point x="304" y="215" type="curve" smooth="yes"/>
      <point x="243" y="215"/>
      <point x="200" y="263"/>
      <point x="200" y="324" type="curve" smooth="yes"/>
      <point x="200" y="384"/>
      <point x="242" y="431"/>
      <point x="304" y="431" type="curve" smooth="yes"/>
      <point x="367" y="431"/>
      <point x="410" y="385"/>
      <point x="410" y="324" type="curve" smooth="yes"/>
      <point x="410" y="262"/>
      <point x="366" y="215"/>
    </contour>
  </outline>
</glyph>
<glyph name="yen" format="2">
  <advance width="571"/>
  <unicode hex="00A5"/>
  <outline>
    <contour>
      <point x="219" y="0" type="line"/>
      <point x="352" y="0" type="line"/>
      <point x="352" y="120" type="line"/>
      <point x="510" y="120" type="line"/>
      <point x="510" y="210" type="line"/>
      <point x="352" y="210" type="line"/>
      <point x="352" y="266" type="line"/>
      <point x="510" y="266" type="line"/>
      <point x="510" y="356" type="line"/>
      <point x="375" y="356" type="line"/>
      <point x="564" y="707" type="line"/>
      <point x="419" y="707" type="line"/>
      <point x="289" y="423" type="line"/>
      <point x="153" y="707" type="line"/>
      <point x="7" y="707" type="line"/>
      <point x="197" y="356" type="line"/>
      <point x="61" y="356" type="line"/>
      <point x="61" y="266" type="line"/>
      <point x="219" y="266" type="line"/>
      <point x="219" y="210" type="line"/>
      <point x="61" y="210" type="line"/>
      <point x="61" y="120" type="line"/>
      <point x="219" y="120" type="line"/>
    </contour>
  </outline>
</glyph>
<glyph name="section" format="2">
  <advance width="573"/>
  <unicode hex="00A7"/>
  <outline>
    <contour>
      <point x="283" y="-172" type="curve" smooth="yes"/>
      <point x="408" y="-172"/>
      <point x="490" y="-109"/>
      <point x="490" y="-6" type="curve" smooth="yes"/>
      <point x="490" y="55"/>
      <point x="470" y="97"/>
      <point x="412" y="127" type="curve"/>
      <point x="473" y="152"/>
      <point x="513" y="208"/>
      <point x="513" y="288" type="curve" smooth="yes"/>
      <point x="513" y="385"/>
      <point x="457" y="448"/>
      <point x="344" y="477" type="curve" smooth="yes"/>
      <point x="243" y="503"/>
      <point x="208" y="518"/>
      <point x="208" y="567" type="curve" smooth="yes"/>
      <point x="208" y="606"/>
      <point x="237" y="629"/>
      <point x="290" y="629" type="curve" smooth="yes"/>
      <point x="349" y="629"/>
      <point x="378" y="603"/>
      <point x="378" y="558" type="curve"/>
      <point x="493" y="558" type="line"/>
      <point x="493" y="666"/>
      <point x="421" y="733"/>
      <point x="291" y="733" type="curve" smooth="yes"/>
      <point x="168" y="733"/>
      <point x="86" y="664"/>
      <point x="86" y="568" type="curve" smooth="yes"/>
      <point x="86" y="509"/>
      <point x="111" y="466"/>
      <point x="161" y="439" type="curve"/>
      <point x="96" y="409"/>
      <point x="60" y="353"/>
      <point x="60" y="280" type="curve" smooth="yes"/>
      <point x="60" y="181"/>
      <point x="117" y="117"/>
      <point x="230" y="88" type="curve" smooth="yes"/>
      <point x="330" y="66"/>
      <point x="369" y="45"/>
      <point x="369" y="-5" type="curve" smooth="yes"/>
      <point x="369" y="-45"/>
      <point x="338" y="-68"/>
      <point x="284" y="-68" type="curve" smooth="yes"/>
      <point x="225" y="-68"/>
      <point x="193" y="-43"/>
      <point x="193" y="4" type="curve"/>
      <point x="77" y="4" type="line"/>
      <point x="77" y="-107"/>
      <point x="150" y="-172"/>
    </contour>
    <contour>
      <point x="183" y="283" type="curve" smooth="yes"/>
      <point x="183" y="341"/>
      <point x="220" y="373"/>
      <point x="288" y="373" type="curve" smooth="yes"/>
      <point x="354" y="373"/>
      <point x="390" y="341"/>
      <point x="390" y="283" type="curve" smooth="yes"/>
      <point x="390" y="224"/>
      <point x="353" y="193"/>
      <point x="288" y="193" type="curve" smooth="yes"/>
      <point x="221" y="193"/>
      <point x="183" y="224"/>
    </contour>
  </outline>
</glyph>
<glyph name="copyright" format="2">
  <advance width="802"/>
  <unicode hex="00A9"/>
  <outline>
    <contour>
      <point x="407" y="-9" type="curve" smooth="yes"/>
      <point x="477" y="-9"/>
      <point x="539" y="6"/>
      <point x="592" y="36" type="curve" smooth="yes"/>
      <point x="645" y="66"/>
      <point x="685" y="108"/>
      <point x="714" y="163" type="curve" smooth="yes"/>
      <point x="743" y="217"/>
      <point x="757" y="279"/>
      <point x="757" y="350" type="curve" smooth="yes"/>
      <point x="757" y="421"/>
      <point x="743" y="484"/>
      <point x="714" y="539" type="curve" smooth="yes"/>
      <point x="685" y="593"/>
      <point x="645" y="635"/>
      <point x="592" y="665" type="curve" smooth="yes"/>
      <point x="539" y="695"/>
      <point x="477" y="710"/>
      <point x="407" y="710" type="curve" smooth="yes"/>
      <point x="336" y="710"/>
      <point x="275" y="695"/>
      <point x="222" y="666" type="curve" smooth="yes"/>
      <point x="169" y="636"/>
      <point x="128" y="594"/>
      <point x="99" y="540" type="curve" smooth="yes"/>
      <point x="70" y="485"/>
      <point x="56" y="422"/>
      <point x="56" y="350" type="curve" smooth="yes"/>
      <point x="56" y="279"/>
      <point x="70" y="217"/>
      <point x="99" y="163" type="curve" smooth="yes"/>
      <point x="128" y="108"/>
      <point x="169" y="66"/>
      <point x="222" y="36" type="curve" smooth="yes"/>
      <point x="275" y="6"/>
      <point x="336" y="-9"/>
    </contour>
    <contour>
      <point x="211" y="145" type="curve" smooth="yes"/>
      <point x="163" y="195"/>
      <point x="139" y="263"/>
      <point x="139" y="350" type="curve" smooth="yes"/>
      <point x="139" y="437"/>
      <point x="163" y="505"/>
      <point x="211" y="556" type="curve" smooth="yes"/>
      <point x="258" y="607"/>
      <point x="324" y="632"/>
      <point x="407" y="632" type="curve" smooth="yes"/>
      <point x="490" y="632"/>
      <point x="555" y="607"/>
      <point x="603" y="556" type="curve" smooth="yes"/>
      <point x="650" y="505"/>
      <point x="674" y="437"/>
      <point x="674" y="350" type="curve" smooth="yes"/>
      <point x="674" y="263"/>
      <point x="650" y="195"/>
      <point x="603" y="145" type="curve" smooth="yes"/>
      <point x="555" y="95"/>
      <point x="490" y="70"/>
      <point x="407" y="70" type="curve" smooth="yes"/>
      <point x="324" y="70"/>
      <point x="258" y="95"/>
    </contour>
    <contour>
      <point x="407" y="152" type="curve" smooth="yes"/>
      <point x="458" y="152"/>
      <point x="498" y="164"/>
      <point x="528" y="189" type="curve" smooth="yes"/>
      <point x="557" y="214"/>
      <point x="572" y="248"/>
      <point x="572" y="292" type="curve" smooth="yes"/>
      <point x="572" y="295" type="line"/>
      <point x="483" y="295" type="line"/>
      <point x="483" y="292" type="line" smooth="yes"/>
      <point x="483" y="273"/>
      <point x="477" y="259"/>
      <point x="464" y="248" type="curve" smooth="yes"/>
      <point x="451" y="237"/>
      <point x="434" y="232"/>
      <point x="412" y="232" type="curve" smooth="yes"/>
      <point x="385" y="232"/>
      <point x="364" y="240"/>
      <point x="350" y="255" type="curve" smooth="yes"/>
      <point x="336" y="270"/>
      <point x="329" y="295"/>
      <point x="329" y="328" type="curve" smooth="yes"/>
      <point x="329" y="372" type="line" smooth="yes"/>
      <point x="329" y="405"/>
      <point x="336" y="430"/>
      <point x="350" y="445" type="curve" smooth="yes"/>
      <point x="363" y="460"/>
      <point x="383" y="467"/>
      <point x="410" y="467" type="curve" smooth="yes"/>
      <point x="432" y="467"/>
      <point x="450" y="462"/>
      <point x="463" y="451" type="curve" smooth="yes"/>
      <point x="476" y="440"/>
      <point x="483" y="425"/>
      <point x="483" y="406" type="curve" smooth="yes"/>
      <point x="483" y="402" type="line"/>
      <point x="572" y="402" type="line"/>
      <point x="572" y="408" type="line" smooth="yes"/>
      <point x="572" y="451"/>
      <point x="557" y="486"/>
      <point x="528" y="511" type="curve" smooth="yes"/>
      <point x="499" y="536"/>
      <point x="458" y="549"/>
      <point x="407" y="549" type="curve" smooth="yes"/>
      <point x="355" y="549"/>
      <point x="314" y="534"/>
      <point x="284" y="504" type="curve" smooth="yes"/>
      <point x="253" y="474"/>
      <point x="238" y="430"/>
      <point x="238" y="373" type="curve" smooth="yes"/>
      <point x="238" y="328" type="line" smooth="yes"/>
      <point x="238" y="271"/>
      <point x="253" y="227"/>
      <point x="284" y="197" type="curve" smooth="yes"/>
      <point x="314" y="167"/>
      <point x="355" y="152"/>
    </contour>
  </outline>
</glyph>
<glyph name="ordfeminine" format="2">
  <advance width="386"/>
  <unicode hex="00AA"/>
  <outline>
    <contour>
      <point x="341" y="639" type="curve" smooth="yes"/>
      <point x="341" y="440" type="line"/>
      <point x="253" y="440" type="line"/>
      <point x="253" y="471" type="line"/>
      <point x="240" y="459"/>
      <point x="227" y="450"/>
      <point x="212" y="445" type="curve" smooth="yes"/>
      <point x="197" y="439"/>
      <point x="180" y="436"/>
      <point x="159" y="436" type="curve" smooth="yes"/>
      <point x="120" y="436"/>
      <point x="90" y="445"/>
      <point x="69" y="464" type="curve" smooth="yes"/>
      <point x="48" y="483"/>
      <point x="37" y="508"/>
      <point x="37" y="540" type="curve" smooth="yes"/>
      <point x="37" y="571"/>
      <point x="48" y="594"/>
      <point x="70" y="610" type="curve" smooth="yes"/>
      <point x="91" y="626"/>
      <point x="124" y="634"/>
      <point x="167" y="634" type="curve" smooth="yes"/>
      <point x="250" y="634" type="line"/>
      <point x="250" y="645" type="line" smooth="yes"/>
      <point x="250" y="664"/>
      <point x="245" y="677"/>
      <point x="235" y="686" type="curve" smooth="yes"/>
      <point x="224" y="694"/>
      <point x="208" y="698"/>
      <point x="186" y="698" type="curve" smooth="yes"/>
      <point x="167" y="698"/>
      <point x="153" y="695"/>
      <point x="144" y="689" type="curve" smooth="yes"/>
      <point x="135" y="682"/>
      <point x="131" y="674"/>
      <point x="131" y="665" type="curve" smooth="yes"/>
      <point x="131" y="663" type="line"/>
      <point x="47" y="663" type="line"/>
      <point x="47" y="665" type="line" smooth="yes"/>
      <point x="47" y="696"/>
      <point x="59" y="720"/>
      <point x="83" y="739" type="curve" smooth="yes"/>
      <point x="107" y="757"/>
      <point x="142" y="766"/>
      <point x="187" y="766" type="curve" smooth="yes"/>
      <point x="290" y="766"/>
      <point x="341" y="724"/>
    </contour>
    <contour>
      <point x="250" y="565" type="curve" smooth="yes"/>
      <point x="250" y="574" type="line"/>
      <point x="178" y="574" type="line" smooth="yes"/>
      <point x="143" y="574"/>
      <point x="125" y="564"/>
      <point x="125" y="543" type="curve" smooth="yes"/>
      <point x="125" y="532"/>
      <point x="130" y="524"/>
      <point x="139" y="518" type="curve" smooth="yes"/>
      <point x="148" y="511"/>
      <point x="162" y="508"/>
      <point x="179" y="508" type="curve" smooth="yes"/>
      <point x="226" y="508"/>
      <point x="250" y="527"/>
    </contour>
  </outline>
</glyph>
<glyph name="registered" format="2">
  <advance width="506"/>
  <unicode hex="00AE"/>
  <outline>
    <contour>
      <point x="253" y="315" type="curve" smooth="yes"/>
      <point x="364" y="315"/>
      <point x="446" y="401"/>
      <point x="446" y="512" type="curve" smooth="yes"/>
      <point x="446" y="620"/>
      <point x="364" y="708"/>
      <point x="253" y="708" type="curve" smooth="yes"/>
      <point x="144" y="708"/>
      <point x="60" y="621"/>
      <point x="60" y="512" type="curve" smooth="yes"/>
      <point x="60" y="401"/>
      <point x="142" y="315"/>
    </contour>
    <contour>
      <point x="103" y="512" type="curve" smooth="yes"/>
      <point x="103" y="604"/>
      <point x="165" y="667"/>
      <point x="253" y="667" type="curve" smooth="yes"/>
      <point x="339" y="667"/>
      <point x="402" y="604"/>
      <point x="402" y="512" type="curve" smooth="yes"/>
      <point x="402" y="419"/>
      <point x="340" y="356"/>
      <point x="253" y="356" type="curve" smooth="yes"/>
      <point x="165" y="356"/>
      <point x="103" y="420"/>
    </contour>
    <contour>
      <point x="174" y="404" type="line"/>
      <point x="227" y="404" type="line"/>
      <point x="227" y="484" type="line"/>
      <point x="253" y="484" type="line"/>
      <point x="291" y="404" type="line"/>
      <point x="348" y="404" type="line"/>
      <point x="305" y="493" type="line"/>
      <point x="330" y="505"/>
      <point x="343" y="525"/>
      <point x="343" y="554" type="curve" smooth="yes"/>
      <point x="343" y="598"/>
      <point x="314" y="622"/>
      <point x="264" y="622" type="curve" smooth="yes"/>
      <point x="174" y="622" type="line"/>
    </contour>
    <contour>
      <point x="227" y="529" type="line"/>
      <point x="227" y="577" type="line"/>
      <point x="261" y="577" type="line" smooth="yes"/>
      <point x="280" y="577"/>
      <point x="290" y="569"/>
      <point x="290" y="553" type="curve" smooth="yes"/>
      <point x="290" y="537"/>
      <point x="280" y="529"/>
      <point x="261" y="529" type="curve" smooth="yes"/>
    </contour>
  </outline>
</glyph>
<glyph name="degree" format="2">
  <advance width="403"/>
  <unicode hex="00B0"/>
  <outline>
    <contour>
      <point x="207" y="417" type="curve" smooth="yes"/>
      <point x="291" y="417"/>
      <point x="357" y="483"/>
      <point x="357" y="567" type="curve" smooth="yes"/>
      <point x="357" y="651"/>
      <point x="291" y="718"/>
      <point x="207" y="718" type="curve" smooth="yes"/>
      <point x="123" y="718"/>
      <point x="56" y="651"/>
      <point x="56" y="567" type="curve" smooth="yes"/>
      <point x="56" y="481"/>
      <point x="121" y="417"/>
    </contour>
    <contour>
      <point x="136" y="567" type="curve" smooth="yes"/>
      <point x="136" y="610"/>
      <point x="164" y="641"/>
      <point x="207" y="641" type="curve" smooth="yes"/>
      <point x="249" y="641"/>
      <point x="278" y="609"/>
      <point x="278" y="567" type="curve" smooth="yes"/>
      <point x="278" y="525"/>
      <point x="249" y="494"/>
      <point x="207" y="494" type="curve" smooth="yes"/>
      <point x="165" y="494"/>
      <point x="136" y="523"/>
    </contour>
  </outline>
</glyph>
<glyph name="plusminus" format="2">
  <advance width="541"/>
  <unicode hex="00B1"/>
  <outline>
    <contour>
      <point x="213" y="61" type="line"/>
      <point x="330" y="61" type="line"/>
      <point x="330" y="224" type="line"/>
      <point x="493" y="224" type="line"/>
      <point x="493" y="341" type="line"/>
      <point x="330" y="341" type="line"/>
      <point x="330" y="505" type="line"/>
      <point x="213" y="505" type="line"/>
      <point x="213" y="341" type="line"/>
      <point x="49" y="341" type="line"/>
      <point x="49" y="224" type="line"/>
      <point x="213" y="224" type="line"/>
    </contour>
    <contour>
      <point x="49" y="-100" type="line"/>
      <point x="493" y="-100" type="line"/>
      <point x="493" y="17" type="line"/>
      <point x="49" y="17" type="line"/>
    </contour>
  </outline>
</glyph>
<glyph name="mu" format="2">
  <advance width="585"/>
  <unicode hex="00B5"/>
  <outline>
    <contour>
      <point x="55" y="-160" type="line"/>
      <point x="182" y="-160" type="line"/>
      <point x="182" y="14" type="line"/>
      <point x="206" y="1"/>
      <point x="236" y="-5"/>
      <point x="267" y="-5" type="curve" smooth="yes"/>
      <point x="323" y="-4"/>
      <point x="380" y="16"/>
      <point x="407" y="57" type="curve"/>
      <point x="407" y="0" type="line"/>
      <point x="530" y="0" type="line"/>
      <point x="530" y="532" type="line"/>
      <point x="403" y="532" type="line"/>
      <point x="403" y="231" type="line" smooth="yes"/>
      <point x="403" y="149"/>
      <point x="358" y="106"/>
      <point x="288" y="106" type="curve" smooth="yes"/>
      <point x="219" y="106"/>
      <point x="182" y="147"/>
      <point x="182" y="226" type="curve" smooth="yes"/>
      <point x="182" y="532" type="line"/>
      <point x="55" y="532" type="line"/>
    </contour>
  </outline>
</glyph>
<glyph name="paragraph" format="2">
  <advance width="714"/>
  <unicode hex="00B6"/>
  <outline>
    <contour>
      <point x="311" y="-160" type="line"/>
      <point x="424" y="-160" type="line"/>
      <point x="424" y="604" type="line"/>
      <point x="512" y="604" type="line"/>
      <point x="512" y="-160" type="line"/>
      <point x="624" y="-160" type="line"/>
      <point x="624" y="707" type="line"/>
      <point x="306" y="707" type="line" smooth="yes"/>
      <point x="151" y="707"/>
      <point x="60" y="625"/>
      <point x="60" y="488" type="curve" smooth="yes"/>
      <point x="60" y="349"/>
      <point x="152" y="269"/>
      <point x="311" y="269" type="curve"/>
    </contour>
  </outline>
</glyph>
<glyph name="ordmasculine" format="2">
  <advance width="387"/>
  <unicode hex="00BA"/>
  <outline>
    <contour>
      <point x="194" y="436" type="curve" smooth="yes"/>
      <point x="287" y="436"/>
      <point x="348" y="488"/>
      <point x="348" y="587" type="curve" smooth="yes"/>
      <point x="348" y="620" type="line" smooth="yes"/>
      <point x="348" y="714"/>
      <point x="292" y="766"/>
      <point x="194" y="766" type="curve" smooth="yes"/>
      <point x="96" y="766"/>
      <point x="39" y="714"/>
      <point x="39" y="620" type="curve" smooth="yes"/>
      <point x="39" y="587" type="line" smooth="yes"/>
      <point x="39" y="488"/>
      <point x="97" y="436"/>
    </contour>
    <contour>
      <point x="130" y="588" type="curve" smooth="yes"/>
      <point x="130" y="620" type="line" smooth="yes"/>
      <point x="130" y="662"/>
      <point x="154" y="684"/>
      <point x="194" y="684" type="curve" smooth="yes"/>
      <point x="232" y="684"/>
      <point x="257" y="662"/>
      <point x="257" y="620" type="curve" smooth="yes"/>
      <point x="257" y="588" type="line" smooth="yes"/>
      <point x="257" y="542"/>
      <point x="232" y="518"/>
      <point x="194" y="518" type="curve" smooth="yes"/>
      <point x="154" y="518"/>
      <point x="130" y="542"/>
    </contour>
  </outline>
</glyph>
<glyph name="guillemotright" format="2">
  <advance width="595"/>
  <unicode hex="00BB"/>
  <outline>
    <contour>
      <point x="55" y="38" type="line"/>
      <point x="316" y="270" type="line"/>
      <point x="55" y="503" type="line"/>
      <point x="55" y="375" type="line"/>
      <point x="175" y="270" type="line"/>
      <point x="55" y="166" type="line"/>
    </contour>
    <contour>
      <point x="316" y="38" type="line"/>
      <point x="578" y="270" type="line"/>
      <point x="316" y="503" type="line"/>
      <point x="316" y="375" type="line"/>
      <point x="435" y="270" type="line"/>
      <point x="316" y="166" type="line"/>
    </contour>
  </outline>
</glyph>
<glyph name="threequarters" format="2">
  <advance width="974"/>
  <unicode hex="00BE"/>
  <outline>
    <contour>
      <point x="196" y="270" type="curve" smooth="yes"/>
      <point x="241" y="270"/>
      <point x="278" y="282"/>
      <point x="306" y="306" type="curve" smooth="yes"/>
      <point x="334" y="329"/>
      <point x="348" y="361"/>
      <point x="348" y="400" type="curve" smooth="yes"/>
      <point x="348" y="409" type="line" smooth="yes"/>
      <point x="348" y="433"/>
      <point x="342" y="454"/>
      <point x="331" y="472" type="curve" smooth="yes"/>
      <point x="320" y="489"/>
      <point x="303" y="501"/>
      <point x="282" y="506" type="curve"/>
      <point x="301" y="513"/>
      <point x="315" y="525"/>
      <point x="325" y="540" type="curve" smooth="yes"/>
      <point x="335" y="555"/>
      <point x="340" y="571"/>
      <point x="340" y="589" type="curve" smooth="yes"/>
      <point x="340" y="596" type="line" smooth="yes"/>
      <point x="340" y="632"/>
      <point x="327" y="661"/>
      <point x="302" y="682" type="curve" smooth="yes"/>
      <point x="276" y="703"/>
      <point x="240" y="714"/>
      <point x="195" y="714" type="curve" smooth="yes"/>
      <point x="147" y="714"/>
      <point x="110" y="703"/>
      <point x="85" y="682" type="curve" smooth="yes"/>
      <point x="59" y="661"/>
      <point x="46" y="630"/>
      <point x="46" y="589" type="curve" smooth="yes"/>
      <point x="46" y="583" type="line"/>
      <point x="140" y="583" type="line"/>
      <point x="140" y="590" type="line" smooth="yes"/>
      <point x="140" y="615"/>
      <point x="157" y="628"/>
      <point x="190" y="628" type="curve" smooth="yes"/>
      <point x="223" y="628"/>
      <point x="239" y="615"/>
      <point x="239" y="588" type="curve" smooth="yes"/>
      <point x="239" y="581" type="line" smooth="yes"/>
      <point x="238" y="554"/>
      <point x="220" y="541"/>
      <point x="183" y="541" type="curve" smooth="yes"/>
      <point x="160" y="541" type="line"/>
      <point x="160" y="454" type="line"/>
      <point x="184" y="454" type="line" smooth="yes"/>
      <point x="225" y="454"/>
      <point x="246" y="438"/>
      <point x="246" y="407" type="curve" smooth="yes"/>
      <point x="246" y="399" type="line" smooth="yes"/>
      <point x="246" y="386"/>
      <point x="242" y="375"/>
      <point x="233" y="368" type="curve" smooth="yes"/>
      <point x="224" y="360"/>
      <point x="211" y="356"/>
      <point x="194" y="356" type="curve" smooth="yes"/>
      <point x="157" y="356"/>
      <point x="139" y="369"/>
      <point x="139" y="395" type="curve" smooth="yes"/>
      <point x="139" y="401" type="line"/>
      <point x="44" y="401" type="line"/>
      <point x="44" y="393" type="line" smooth="yes"/>
      <point x="44" y="353"/>
      <point x="57" y="323"/>
      <point x="83" y="302" type="curve" smooth="yes"/>
      <point x="108" y="281"/>
      <point x="146" y="270"/>
    </contour>
    <contour>
      <point x="809" y="0" type="line"/>
      <point x="914" y="0" type="line"/>
      <point x="914" y="58" type="line"/>
      <point x="945" y="58" type="line"/>
      <point x="945" y="150" type="line"/>
      <point x="914" y="150" type="line"/>
      <point x="914" y="240" type="line"/>
      <point x="809" y="240" type="line"/>
      <point x="809" y="150" type="line"/>
      <point x="717" y="150" type="line"/>
      <point x="854" y="429" type="line"/>
      <point x="746" y="429" type="line"/>
      <point x="609" y="150" type="line"/>
      <point x="609" y="58" type="line"/>
      <point x="809" y="58" type="line"/>
    </contour>
    <contour>
      <point x="221" y="0" type="line"/>
      <point x="325" y="0" type="line"/>
      <point x="779" y="712" type="line"/>
      <point x="675" y="712" type="line"/>
    </contour>
  </outline>
</glyph>
<glyph name="questiondown" format="2">
  <advance width="512"/>
  <unicode hex="00BF"/>
  <outline>
    <contour>
      <point x="262" y="-170" type="curve" smooth="yes"/>
      <point x="407" y="-170"/>
      <point x="481" y="-104"/>
      <point x="484" y="27" type="curve"/>
      <point x="360" y="27" type="line"/>
      <point x="358" y="-28"/>
      <point x="329" y="-55"/>
      <point x="264" y="-55" type="curve" smooth="yes"/>
      <point x="200" y="-55"/>
      <point x="166" y="-30"/>
      <point x="166" y="20" type="curve" smooth="yes"/>
      <point x="166" y="52"/>
      <point x="179" y="76"/>
      <point x="217" y="110" type="curve" smooth="yes"/>
      <point x="266" y="156" type="line" smooth="yes"/>
      <point x="314" y="201"/>
      <point x="329" y="230"/>
      <point x="329" y="300" type="curve" smooth="yes"/>
      <point x="329" y="333" type="line"/>
      <point x="202" y="333" type="line"/>
      <point x="202" y="315" type="line" smooth="yes"/>
      <point x="202" y="269"/>
      <point x="194" y="247"/>
      <point x="156" y="213" type="curve" smooth="yes"/>
      <point x="104" y="165" type="line" smooth="yes"/>
      <point x="54" y="117"/>
      <point x="35" y="68"/>
      <point x="35" y="12" type="curve" smooth="yes"/>
      <point x="35" y="-102"/>
      <point x="120" y="-170"/>
    </contour>
    <contour>
      <point x="198" y="401" type="line"/>
      <point x="332" y="401" type="line"/>
      <point x="332" y="532" type="line"/>
      <point x="198" y="532" type="line"/>
    </contour>
  </outline>
</glyph>
<glyph name="Aring" format="2">
  <advance width="697"/>
  <unicode hex="00C5"/>
  <outline>
    <contour>
      <point x="499" y="137" type="line"/>
      <point x="199" y="137" type="line"/>
      <point x="147" y="0" type="line"/>
      <point x="4" y="0" type="line"/>
      <point x="294" y="706" type="line"/>
      <point x="278" y="715"/>
      <point x="266" y="728"/>
      <point x="257" y="744" type="curve" smooth="yes"/>
      <point x="248" y="759"/>
      <point x="244" y="777"/>
      <point x="244" y="797" type="curve" smooth="yes"/>
      <point x="244" y="828"/>
      <point x="254" y="853"/>
      <point x="274" y="873" type="curve" smooth="yes"/>
      <point x="294" y="893"/>
      <point x="319" y="903"/>
      <point x="349" y="903" type="curve" smooth="yes"/>
      <point x="379" y="903"/>
      <point x="404" y="893"/>
      <point x="425" y="873" type="curve" smooth="yes"/>
      <point x="445" y="853"/>
      <point x="455" y="828"/>
      <point x="455" y="797" type="curve" smooth="yes"/>
      <point x="455" y="777"/>
      <point x="450" y="759"/>
      <point x="441" y="743" type="curve" smooth="yes"/>
      <point x="432" y="727"/>
      <point x="419" y="715"/>
      <point x="403" y="706" type="curve"/>
      <point x="693" y="0" type="line"/>
      <point x="550" y="0" type="line"/>
    </contour>
    <contour>
      <point x="457" y="249" type="line"/>
      <point x="348" y="537" type="line"/>
      <point x="241" y="249" type="line"/>
    </contour>
    <contour>
      <point x="302" y="797" type="curve" smooth="yes"/>
      <point x="302" y="784"/>
      <point x="307" y="772"/>
      <point x="316" y="763" type="curve" smooth="yes"/>
      <point x="325" y="753"/>
      <point x="336" y="748"/>
      <point x="349" y="748" type="curve" smooth="yes"/>
      <point x="362" y="748"/>
      <point x="374" y="753"/>
      <point x="383" y="762" type="curve" smooth="yes"/>
      <point x="392" y="771"/>
      <point x="397" y="783"/>
      <point x="397" y="797" type="curve" smooth="yes"/>
      <point x="397" y="812"/>
      <point x="393" y="824"/>
      <point x="384" y="833" type="curve" smooth="yes"/>
      <point x="375" y="842"/>
      <point x="363" y="847"/>
      <point x="349" y="847" type="curve" smooth="yes"/>
      <point x="336" y="847"/>
      <point x="325" y="842"/>
      <point x="316" y="833" type="curve" smooth="yes"/>
      <point x="307" y="823"/>
      <point x="302" y="811"/>
    </contour>
  </outline>
</glyph>
<glyph name="Ccedilla" format="2">
  <advance width="689"/>
  <unicode hex="00C7"/>
  <outline>
    <contour>
      <point x="509" y="470" type="line"/>
      <point x="509" y="474" type="line" smooth="yes"/>
      <point x="509" y="513"/>
      <point x="496" y="545"/>
      <point x="469" y="568" type="curve" smooth="yes"/>
      <point x="442" y="591"/>
      <point x="405" y="602"/>
      <point x="358" y="602" type="curve" smooth="yes"/>
      <point x="302" y="602"/>
      <point x="260" y="586"/>
      <point x="233" y="553" type="curve" smooth="yes"/>
      <point x="205" y="520"/>
      <point x="191" y="470"/>
      <point x="191" y="402" type="curve" smooth="yes"/>
      <point x="191" y="301" type="line" smooth="yes"/>
      <point x="191" y="236"/>
      <point x="205" y="188"/>
      <point x="233" y="157" type="curve" smooth="yes"/>
      <point x="261" y="126"/>
      <point x="303" y="110"/>
      <point x="359" y="110" type="curve" smooth="yes"/>
      <point x="406" y="110"/>
      <point x="443" y="121"/>
      <point x="470" y="143" type="curve" smooth="yes"/>
      <point x="496" y="165"/>
      <point x="509" y="195"/>
      <point x="509" y="234" type="curve" smooth="yes"/>
      <point x="509" y="240" type="line"/>
      <point x="642" y="240" type="line"/>
      <point x="642" y="234" type="line" smooth="yes"/>
      <point x="642" y="167"/>
      <point x="623" y="113"/>
      <point x="584" y="72" type="curve" smooth="yes"/>
      <point x="545" y="30"/>
      <point x="492" y="4"/>
      <point x="425" y="-6" type="curve"/>
      <point x="362" y="-160" type="line"/>
      <point x="241" y="-160" type="line"/>
      <point x="317" y="-9" type="line"/>
      <point x="234" y="-2"/>
      <point x="170" y="27"/>
      <point x="125" y="79" type="curve" smooth="yes"/>
      <point x="79" y="130"/>
      <point x="56" y="204"/>
      <point x="56" y="299" type="curve" smooth="yes"/>
      <point x="56" y="410" type="line" smooth="yes"/>
      <point x="56" y="513"/>
      <point x="83" y="591"/>
      <point x="136" y="643" type="curve" smooth="yes"/>
      <point x="189" y="694"/>
      <point x="263" y="720"/>
      <point x="358" y="720" type="curve" smooth="yes"/>
      <point x="445" y="720"/>
      <point x="514" y="699"/>
      <point x="566" y="656" type="curve" smooth="yes"/>
      <point x="617" y="613"/>
      <point x="643" y="554"/>
      <point x="643" y="478" type="curve" smooth="yes"/>
      <point x="643" y="470" type="line"/>
    </contour>
  </outline>
</glyph>
<glyph name="Eth" format="2">
  <advance width="710"/>
  <unicode hex="00D0"/>
  <outline>
    <contour>
      <point x="665" y="397" type="curve" smooth="yes"/>
      <point x="665" y="310" type="line" smooth="yes"/>
      <point x="665" y="205"/>
      <point x="639" y="127"/>
      <point x="586" y="76" type="curve" smooth="yes"/>
      <point x="533" y="25"/>
      <point x="459" y="0"/>
      <point x="364" y="0" type="curve" smooth="yes"/>
      <point x="93" y="0" type="line"/>
      <point x="93" y="301" type="line"/>
      <point x="28" y="301" type="line"/>
      <point x="28" y="419" type="line"/>
      <point x="93" y="419" type="line"/>
      <point x="93" y="707" type="line"/>
      <point x="369" y="707" type="line" smooth="yes"/>
      <point x="463" y="707"/>
      <point x="536" y="682"/>
      <point x="588" y="631" type="curve" smooth="yes"/>
      <point x="639" y="580"/>
      <point x="665" y="502"/>
    </contour>
    <contour>
      <point x="530" y="390" type="line" smooth="yes"/>
      <point x="530" y="459"/>
      <point x="517" y="510"/>
      <point x="491" y="542" type="curve" smooth="yes"/>
      <point x="464" y="574"/>
      <point x="423" y="590"/>
      <point x="368" y="590" type="curve" smooth="yes"/>
      <point x="227" y="590" type="line"/>
      <point x="227" y="419" type="line"/>
      <point x="388" y="419" type="line"/>
      <point x="388" y="301" type="line"/>
      <point x="227" y="301" type="line"/>
      <point x="227" y="117" type="line"/>
      <point x="368" y="117" type="line" smooth="yes"/>
      <point x="423" y="117"/>
      <point x="464" y="133"/>
      <point x="491" y="164" type="curve" smooth="yes"/>
      <point x="517" y="195"/>
      <point x="530" y="243"/>
      <point x="530" y="310" type="curve" smooth="yes"/>
    </contour>
  </outline>
</glyph>
<glyph name="Oslash" format="2">
  <advance width="689"/>
  <unicode hex="00D8"/>
  <outline>
    <component base="O"/>
    <contour>
      <point x="56" y="-20" type="line"/>
      <point x="140" y="-20" type="line"/>
      <point x="638" y="732" type="line"/>
      <point x="556" y="732" type="line"/>
    </contour>
  </outline>
</glyph>
<glyph name="Thorn" format="2">
  <advance width="643"/>
  <unicode hex="00DE"/>
  <outline>
    <contour>
      <point x="60" y="0" type="line"/>
      <point x="195" y="0" type="line"/>
      <point x="195" y="153" type="line"/>
      <point x="360" y="153" type="line" smooth="yes"/>
      <point x="526" y="153"/>
      <point x="618" y="233"/>
      <point x="618" y="369" type="curve" smooth="yes"/>
      <point x="618" y="511"/>
      <point x="524" y="590"/>
      <point x="366" y="590" type="curve" smooth="yes"/>
      <point x="195" y="590" type="line"/>
      <point x="195" y="707" type="line"/>
      <point x="60" y="707" type="line"/>
    </contour>
    <contour>
      <point x="195" y="269" type="line"/>
      <point x="195" y="473" type="line"/>
      <point x="371" y="473" type="line" smooth="yes"/>
      <point x="442" y="473"/>
      <point x="484" y="441"/>
      <point x="484" y="370" type="curve" smooth="yes"/>
      <point x="484" y="303"/>
      <point x="446" y="270"/>
      <point x="371" y="269" type="curve" smooth="yes"/>
    </contour>
  </outline>
</glyph>
<glyph name="germandbls" format="2">
  <advance width="590"/>
  <unicode hex="00DF"/>
  <outline>
    <contour>
      <point x="286" y="-4" type="line"/>
      <point x="333" y="-4" type="line" smooth="yes"/>
      <point x="492" y="-4"/>
      <point x="545" y="57"/>
      <point x="545" y="236" type="curve" smooth="yes"/>
      <point x="545" y="347"/>
      <point x="526" y="398"/>
      <point x="464" y="428" type="curve"/>
      <point x="513" y="452"/>
      <point x="535" y="489"/>
      <point x="535" y="548" type="curve" smooth="yes"/>
      <point x="535" y="658"/>
      <point x="451" y="717"/>
      <point x="299" y="717" type="curve" smooth="yes"/>
      <point x="130" y="717"/>
      <point x="55" y="645"/>
      <point x="55" y="500" type="curve" smooth="yes"/>
      <point x="55" y="0" type="line"/>
      <point x="182" y="0" type="line"/>
      <point x="182" y="511" type="line" smooth="yes"/>
      <point x="182" y="581"/>
      <point x="218" y="608"/>
      <point x="300" y="608" type="curve" smooth="yes"/>
      <point x="374" y="608"/>
      <point x="409" y="587"/>
      <point x="409" y="541" type="curve" smooth="yes"/>
      <point x="409" y="498"/>
      <point x="380" y="476"/>
      <point x="322" y="476" type="curve" smooth="yes"/>
      <point x="286" y="476" type="line"/>
      <point x="286" y="371" type="line"/>
      <point x="312" y="371" type="line" smooth="yes"/>
      <point x="399" y="371"/>
      <point x="419" y="338"/>
      <point x="419" y="236" type="curve" smooth="yes"/>
      <point x="419" y="131"/>
      <point x="404" y="102"/>
      <point x="323" y="102" type="curve" smooth="yes"/>
      <point x="286" y="102" type="line"/>
    </contour>
  </outline>
</glyph>
<glyph name="ae" format="2">
  <advance width="921"/>
  <unicode hex="00E6"/>
  <outline>
    <contour>
      <point x="449" y="63" type="curve"/>
      <point x="495" y="15"/>
      <point x="559" y="-9"/>
      <point x="641" y="-9" type="curve" smooth="yes"/>
      <point x="777" y="-9"/>
      <point x="864" y="64"/>
      <point x="870" y="161" type="curve" smooth="yes"/>
      <point x="871" y="167" type="line"/>
      <point x="748" y="167" type="line"/>
      <point x="746" y="164" type="line"/>
      <point x="740" y="123"/>
      <point x="700" y="101"/>
      <point x="641" y="101" type="curve" smooth="yes"/>
      <point x="554" y="101"/>
      <point x="511" y="144"/>
      <point x="511" y="228" type="curve" smooth="yes"/>
      <point x="511" y="229" type="line"/>
      <point x="876" y="229" type="line"/>
      <point x="876" y="291" type="line" smooth="yes"/>
      <point x="876" y="454"/>
      <point x="782" y="542"/>
      <point x="631" y="542" type="curve" smooth="yes"/>
      <point x="559" y="541"/>
      <point x="501" y="521"/>
      <point x="456" y="480" type="curve"/>
      <point x="415" y="519"/>
      <point x="354" y="539"/>
      <point x="275" y="539" type="curve" smooth="yes"/>
      <point x="141" y="539"/>
      <point x="54" y="478"/>
      <point x="54" y="376" type="curve" smooth="yes"/>
      <point x="54" y="373" type="line"/>
      <point x="175" y="373" type="line"/>
      <point x="175" y="376" type="line" smooth="yes"/>
      <point x="175" y="413"/>
      <point x="203" y="441"/>
      <point x="272" y="441" type="curve" smooth="yes"/>
      <point x="347" y="441"/>
      <point x="385" y="409"/>
      <point x="385" y="346" type="curve" smooth="yes"/>
      <point x="385" y="316" type="line"/>
      <point x="243" y="316" type="line" smooth="yes"/>
      <point x="109" y="316"/>
      <point x="38" y="263"/>
      <point x="38" y="161" type="curve" smooth="yes"/>
      <point x="38" y="54"/>
      <point x="117" y="-9"/>
      <point x="252" y="-9" type="curve" smooth="yes"/>
      <point x="338" y="-10"/>
      <point x="404" y="14"/>
    </contour>
    <contour>
      <point x="161" y="165" type="curve" smooth="yes"/>
      <point x="161" y="211"/>
      <point x="194" y="229"/>
      <point x="266" y="229" type="curve" smooth="yes"/>
      <point x="385" y="229" type="line"/>
      <point x="385" y="198" type="line" smooth="yes"/>
      <point x="385" y="129"/>
      <point x="344" y="95"/>
      <point x="261" y="95" type="curve" smooth="yes"/>
      <point x="194" y="95"/>
      <point x="161" y="118"/>
    </contour>
    <contour>
      <point x="511" y="316" type="line"/>
      <point x="511" y="317" type="line" smooth="yes"/>
      <point x="511" y="394"/>
      <point x="555" y="433"/>
      <point x="631" y="433" type="curve" smooth="yes"/>
      <point x="703" y="433"/>
      <point x="750" y="395"/>
      <point x="750" y="325" type="curve" smooth="yes"/>
      <point x="750" y="316" type="line"/>
    </contour>
  </outline>
</glyph>
<glyph name="eth" format="2">
  <advance width="575"/>
  <unicode hex="00F0"/>
  <outline>
    <contour>
      <point x="288" y="-11" type="curve" smooth="yes"/>
      <point x="362" y="-11"/>
      <point x="421" y="10"/>
      <point x="464" y="53" type="curve" smooth="yes"/>
      <point x="507" y="96"/>
      <point x="529" y="155"/>
      <point x="529" y="230" type="curve" smooth="yes"/>
      <point x="529" y="256" type="line" smooth="yes"/>
      <point x="529" y="305"/>
      <point x="520" y="352"/>
      <point x="502" y="395" type="curve" smooth="yes"/>
      <point x="483" y="438"/>
      <point x="454" y="485"/>
      <point x="414" y="536" type="curve" smooth="yes"/>
      <point x="375" y="583" type="line"/>
      <point x="459" y="606" type="line"/>
      <point x="434" y="686" type="line"/>
      <point x="316" y="654" type="line"/>
      <point x="269" y="712" type="line"/>
      <point x="131" y="712" type="line"/>
      <point x="203" y="624" type="line"/>
      <point x="110" y="598" type="line"/>
      <point x="135" y="517" type="line"/>
      <point x="260" y="552" type="line"/>
      <point x="334" y="461" type="line"/>
      <point x="311" y="471"/>
      <point x="283" y="476"/>
      <point x="249" y="476" type="curve" smooth="yes"/>
      <point x="188" y="476"/>
      <point x="139" y="455"/>
      <point x="102" y="414" type="curve" smooth="yes"/>
      <point x="65" y="373"/>
      <point x="47" y="318"/>
      <point x="47" y="251" type="curve" smooth="yes"/>
      <point x="47" y="223" type="line" smooth="yes"/>
      <point x="47" y="150"/>
      <point x="68" y="93"/>
      <point x="111" y="52" type="curve" smooth="yes"/>
      <point x="153" y="10"/>
      <point x="212" y="-11"/>
    </contour>
    <contour>
      <point x="197" y="133" type="curve" smooth="yes"/>
      <point x="176" y="156"/>
      <point x="165" y="187"/>
      <point x="165" y="227" type="curve" smooth="yes"/>
      <point x="165" y="253" type="line" smooth="yes"/>
      <point x="165" y="291"/>
      <point x="176" y="321"/>
      <point x="197" y="342" type="curve" smooth="yes"/>
      <point x="218" y="363"/>
      <point x="249" y="374"/>
      <point x="289" y="374" type="curve" smooth="yes"/>
      <point x="328" y="374"/>
      <point x="358" y="363"/>
      <point x="379" y="341" type="curve" smooth="yes"/>
      <point x="400" y="319"/>
      <point x="411" y="289"/>
      <point x="411" y="252" type="curve" smooth="yes"/>
      <point x="411" y="227" type="line" smooth="yes"/>
      <point x="411" y="187"/>
      <point x="401" y="156"/>
      <point x="380" y="133" type="curve" smooth="yes"/>
      <point x="359" y="110"/>
      <point x="328" y="99"/>
      <point x="289" y="99" type="curve" smooth="yes"/>
      <point x="248" y="99"/>
      <point x="218" y="110"/>
    </contour>
  </outline>
</glyph>
<glyph name="divide" format="2">
  <advance width="541"/>
  <unicode hex="00F7"/>
  <outline>
    <contour>
      <point x="49" y="224" type="line"/>
      <point x="493" y="224" type="line"/>
      <point x="493" y="341" type="line"/>
      <point x="49" y="341" type="line"/>
    </contour>
    <contour>
      <point x="270" y="44" type="curve" smooth="yes"/>
      <point x="290" y="44"/>
      <point x="307" y="51"/>
      <point x="320" y="64" type="curve" smooth="yes"/>
      <point x="333" y="77"/>
      <point x="339" y="94"/>
      <point x="339" y="113" type="curve" smooth="yes"/>
      <point x="339" y="132"/>
      <point x="332" y="148"/>
      <point x="319" y="161" type="curve" smooth="yes"/>
      <point x="306" y="174"/>
      <point x="289" y="181"/>
      <point x="270" y="181" type="curve" smooth="yes"/>
      <point x="251" y="181"/>
      <point x="236" y="175"/>
      <point x="223" y="162" type="curve" smooth="yes"/>
      <point x="210" y="149"/>
      <point x="203" y="132"/>
      <point x="203" y="113" type="curve" smooth="yes"/>
      <point x="203" y="94"/>
      <point x="210" y="77"/>
      <point x="223" y="64" type="curve" smooth="yes"/>
      <point x="236" y="51"/>
      <point x="251" y="44"/>
    </contour>
    <contour>
      <point x="270" y="385" type="curve" smooth="yes"/>
      <point x="289" y="385"/>
      <point x="306" y="392"/>
      <point x="319" y="405" type="curve" smooth="yes"/>
      <point x="332" y="418"/>
      <point x="339" y="435"/>
      <point x="339" y="454" type="curve" smooth="yes"/>
      <point x="339" y="473"/>
      <point x="332" y="489"/>
      <point x="319" y="502" type="curve" smooth="yes"/>
      <point x="306" y="515"/>
      <point x="289" y="522"/>
      <point x="270" y="522" type="curve" smooth="yes"/>
      <point x="251" y="522"/>
      <point x="236" y="516"/>
      <point x="223" y="503" type="curve" smooth="yes"/>
      <point x="210" y="490"/>
      <point x="203" y="473"/>
      <point x="203" y="454" type="curve" smooth="yes"/>
      <point x="203" y="435"/>
      <point x="210" y="418"/>
      <point x="223" y="405" type="curve" smooth="yes"/>
      <point x="236" y="392"/>
      <point x="251" y="385"/>
    </contour>
  </outline>
</glyph>
<glyph name="oslash" format="2">
  <advance width="576"/>
  <unicode hex="00F8"/>
  <outline>
    <component base="o"/>
    <contour>
      <point x="47" y="-30" type="line"/>
      <point x="119" y="-30" type="line"/>
      <point x="530" y="559" type="line"/>
      <point x="460" y="559" type="line"/>
    </contour>
  </outline>
</glyph>
<glyph name="thorn" format="2">
  <advance width="584"/>
  <unicode hex="00FE"/>
  <outline>
    <contour>
      <point x="55" y="-160" type="line"/>
      <point x="179" y="-160" type="line"/>
      <point x="179" y="54" type="line"/>
      <point x="216" y="12"/>
      <point x="267" y="-9"/>
      <point x="330" y="-9" type="curve" smooth="yes"/>
      <point x="450" y="-9"/>
      <point x="539" y="83"/>
      <point x="539" y="237" type="curve" smooth="yes"/>
      <point x="539" y="303" type="line" smooth="yes"/>
      <point x="539" y="458"/>
      <point x="456" y="542"/>
      <point x="331" y="542" type="curve" smooth="yes"/>
      <point x="269" y="542"/>
      <point x="216" y="516"/>
      <point x="182" y="472" type="curve"/>
      <point x="182" y="707" type="line"/>
      <point x="55" y="707" type="line"/>
    </contour>
    <contour>
      <point x="182" y="231" type="curve" smooth="yes"/>
      <point x="182" y="299" type="line" smooth="yes"/>
      <point x="182" y="381"/>
      <point x="226" y="429"/>
      <point x="298" y="429" type="curve" smooth="yes"/>
      <point x="374" y="429"/>
      <point x="412" y="385"/>
      <point x="412" y="297" type="curve" smooth="yes"/>
      <point x="412" y="242" type="line" smooth="yes"/>
      <point x="412" y="150"/>
      <point x="372" y="104"/>
      <point x="300" y="104" type="curve" smooth="yes"/>
      <point x="228" y="104"/>
      <point x="182" y="153"/>
    </contour>
  </outline>
</glyph>
<glyph name="Aogonek" format="2">
  <advance width="697"/>
  <unicode hex="0104"/>
  <outline>
    <component base="A"/>
    <contour>
      <point x="692" y="-218" type="curve"/>
      <point x="692" y="-98" type="line"/>
      <point x="633" y="-97"/>
      <point x="598" y="-101"/>
      <point x="563" y="-66" type="curve"/>
      <point x="692" y="0" type="line"/>
      <point x="553" y="0" type="line"/>
      <point x="420" y="-55" type="line"/>
      <point x="434" y="-93"/>
      <point x="452" y="-124"/>
      <point x="480" y="-147" type="curve" smooth="yes"/>
      <point x="532" y="-193"/>
      <point x="604" y="-216"/>
    </contour>
  </outline>
</glyph>
<glyph name="eogonek" format="2">
  <advance width="584"/>
  <unicode hex="0119"/>
  <outline>
    <component base="e"/>
    <contour>
      <point x="456" y="-217" type="curve"/>
      <point x="456" y="-98" type="line"/>
      <point x="397" y="-97"/>
      <point x="362" y="-101"/>
      <point x="327" y="-66" type="curve"/>
      <point x="456" y="38" type="line"/>
      <point x="184" y="-55" type="line"/>
      <point x="198" y="-93"/>
      <point x="216" y="-124"/>
      <point x="244" y="-146" type="curve" smooth="yes"/>
      <point x="296" y="-193"/>
      <point x="368" y="-216"/>
    </contour>
  </outline>
</glyph>
<glyph name="gcommaaccent" format="2">
  <advance width="584"/>
  <unicode hex="0123"/>
  <outline>
    <component base="g"/>
    <contour>
      <point x="232" y="564" type="line"/>
      <point x="332" y="564" type="line"/>
      <point x="332" y="707" type="line"/>
      <point x="232" y="626" type="line"/>
    </contour>
  </outline>
</glyph>
<glyph name="dotlessi" format="2">
  <advance width="246"/>
  <unicode hex="0131"/>
  <anchor x="123" y="532" name="top"/>
  <outline>
    <contour>
      <point x="60" y="0" type="line"/>
      <point x="186" y="0" type="line"/>
      <point x="186" y="532" type="line"/>
      <point x="60" y="532" type="line"/>
    </contour>
  </outline>
</glyph>
<glyph name="IJ" format="2">
  <advance width="692"/>
  <unicode hex="0132"/>
  <outline>
    <contour>
      <point x="345" y="-6" type="curve" smooth="yes"/>
      <point x="515" y="-6"/>
      <point x="632" y="94"/>
      <point x="632" y="254" type="curve" smooth="yes"/>
      <point x="632" y="707" type="line"/>
      <point x="498" y="707" type="line"/>
      <point x="498" y="258" type="line" smooth="yes"/>
      <point x="498" y="162"/>
      <point x="443" y="111"/>
      <point x="345" y="111" type="curve" smooth="yes"/>
      <point x="275" y="111"/>
      <point x="229" y="138"/>
      <point x="209" y="185" type="curve"/>
      <point x="68" y="185" type="line"/>
      <point x="96" y="68"/>
      <point x="200" y="-6"/>
    </contour>
    <contour>
      <point x="60" y="352" type="line"/>
      <point x="195" y="352" type="line"/>
      <point x="195" y="707" type="line"/>
      <point x="60" y="707" type="line"/>
    </contour>
  </outline>
</glyph>
<glyph name="ij" format="2">
  <advance width="532"/>
  <unicode hex="0133"/>
  <outline>
    <contour>
      <point x="258" y="-168" type="curve" smooth="yes"/>
      <point x="414" y="-168"/>
      <point x="477" y="-85"/>
      <point x="477" y="49" type="curve" smooth="yes"/>
      <point x="477" y="531" type="line"/>
      <point x="351" y="531" type="line"/>
      <point x="351" y="265" type="line" smooth="yes"/>
      <point x="351" y="191"/>
      <point x="336" y="153"/>
      <point x="262" y="153" type="curve" smooth="yes"/>
      <point x="190" y="153"/>
      <point x="182" y="186"/>
      <point x="182" y="272" type="curve" smooth="yes"/>
      <point x="182" y="531" type="line"/>
      <point x="55" y="531" type="line"/>
      <point x="55" y="267" type="line" smooth="yes"/>
      <point x="55" y="115"/>
      <point x="137" y="43"/>
      <point x="263" y="40" type="curve" smooth="yes"/>
      <point x="308" y="39"/>
      <point x="335" y="53"/>
      <point x="352" y="96" type="curve"/>
      <point x="352" y="41" type="line" smooth="yes"/>
      <point x="352" y="-32"/>
      <point x="333" y="-68"/>
      <point x="264" y="-68" type="curve" smooth="yes"/>
      <point x="215" y="-68"/>
      <point x="199" y="-46"/>
      <point x="189" y="-11" type="curve"/>
      <point x="67" y="-11" type="line"/>
      <point x="71" y="-113"/>
      <point x="124" y="-168"/>
    </contour>
    <contour>
      <point x="56" y="608" type="line"/>
      <point x="182" y="608" type="line"/>
      <point x="182" y="710" type="line"/>
      <point x="56" y="710" type="line"/>
    </contour>
    <contour>
      <point x="351" y="608" type="line"/>
      <point x="477" y="608" type="line"/>
      <point x="477" y="710" type="line"/>
      <point x="351" y="710" type="line"/>
    </contour>
  </outline>
</glyph>
<glyph name="Lslash" format="2">
  <advance width="583"/>
  <unicode hex="0141"/>
  <outline>
    <component base="L"/>
    <contour>
      <point x="20" y="279" type="line"/>
      <point x="391" y="446" type="line"/>
      <point x="391" y="559" type="line"/>
      <point x="21" y="392" type="line"/>
    </contour>
  </outline>
</glyph>
<glyph name="lslash" format="2">
  <advance width="321"/>
  <unicode hex="0142"/>
  <outline>
    <component base="l"/>
    <contour>
      <point x="20" y="279" type="line"/>
      <point x="268" y="396" type="line"/>
      <point x="268" y="509" type="line"/>
      <point x="21" y="392" type="line"/>
    </contour>
  </outline>
</glyph>
<glyph name="Eng" format="2">
  <advance width="715"/>
  <unicode hex="014A"/>
  <outline>
    <contour>
      <point x="407" y="-173" type="line"/>
      <point x="468" y="-173" type="line" smooth="yes"/>
      <point x="597" y="-173"/>
      <point x="655" y="-118"/>
      <point x="655" y="-1" type="curve" smooth="yes"/>
      <point x="655" y="707" type="line"/>
      <point x="521" y="707" type="line"/>
      <point x="521" y="238" type="line"/>
      <point x="195" y="707" type="line"/>
      <point x="60" y="707" type="line"/>
      <point x="60" y="0" type="line"/>
      <point x="195" y="0" type="line"/>
      <point x="195" y="468" type="line"/>
      <point x="521" y="0" type="line"/>
      <point x="521" y="-1" type="line" smooth="yes"/>
      <point x="521" y="-48"/>
      <point x="505" y="-63"/>
      <point x="455" y="-63" type="curve" smooth="yes"/>
      <point x="407" y="-63" type="line"/>
    </contour>
  </outline>
</glyph>
<glyph name="eng" format="2">
  <advance width="585"/>
  <unicode hex="014B"/>
  <outline>
    <contour>
      <point x="282" y="-173" type="line"/>
      <point x="353" y="-173" type="line" smooth="yes"/>
      <point x="472" y="-173"/>
      <point x="530" y="-118"/>
      <point x="530" y="-1" type="curve" smooth="yes"/>
      <point x="530" y="332" type="line" smooth="yes"/>
      <point x="530" y="462"/>
      <point x="458" y="539"/>
      <point x="336" y="539" type="curve" smooth="yes"/>
      <point x="274" y="539"/>
      <point x="217" y="517"/>
      <point x="179" y="475" type="curve"/>
      <point x="179" y="532" type="line"/>
      <point x="55" y="532" type="line"/>
      <point x="55" y="0" type="line"/>
      <point x="182" y="0" type="line"/>
      <point x="182" y="301" type="line" smooth="yes"/>
      <point x="182" y="385"/>
      <point x="226" y="426"/>
      <point x="298" y="426" type="curve" smooth="yes"/>
      <point x="368" y="426"/>
      <point x="403" y="386"/>
      <point x="403" y="306" type="curve" smooth="yes"/>
      <point x="403" y="7" type="line" smooth="yes"/>
      <point x="403" y="-46"/>
      <point x="383" y="-63"/>
      <point x="330" y="-63" type="curve" smooth="yes"/>
      <point x="282" y="-63" type="line"/>
    </contour>
  </outline>
</glyph>
<glyph name="oe" format="2">
  <advance width="941"/>
  <unicode hex="0153"/>
  <outline>
    <contour>
      <point x="530" y="231" type="line"/>
      <point x="530" y="229" type="line" smooth="yes"/>
      <point x="530" y="144"/>
      <point x="574" y="101"/>
      <point x="662" y="101" type="curve" smooth="yes"/>
      <point x="691" y="101"/>
      <point x="715" y="107"/>
      <point x="734" y="118" type="curve" smooth="yes"/>
      <point x="752" y="129"/>
      <point x="763" y="144"/>
      <point x="766" y="164" type="curve" smooth="yes"/>
      <point x="767" y="167" type="line"/>
      <point x="891" y="167" type="line"/>
      <point x="890" y="161" type="line"/>
      <point x="887" y="110"/>
      <point x="864" y="69"/>
      <point x="823" y="38" type="curve" smooth="yes"/>
      <point x="781" y="7"/>
      <point x="725" y="-9"/>
      <point x="655" y="-9" type="curve" smooth="yes"/>
      <point x="574" y="-9"/>
      <point x="512" y="13"/>
      <point x="470" y="57" type="curve"/>
      <point x="428" y="12"/>
      <point x="368" y="-10"/>
      <point x="290" y="-9" type="curve" smooth="yes"/>
      <point x="214" y="-9"/>
      <point x="155" y="12"/>
      <point x="112" y="54" type="curve" smooth="yes"/>
      <point x="69" y="95"/>
      <point x="47" y="156"/>
      <point x="47" y="236" type="curve" smooth="yes"/>
      <point x="47" y="299" type="line" smooth="yes"/>
      <point x="47" y="378"/>
      <point x="69" y="439"/>
      <point x="112" y="480" type="curve" smooth="yes"/>
      <point x="155" y="521"/>
      <point x="214" y="542"/>
      <point x="290" y="542" type="curve" smooth="yes"/>
      <point x="368" y="542"/>
      <point x="428" y="520"/>
      <point x="469" y="476" type="curve"/>
      <point x="513" y="520"/>
      <point x="573" y="542"/>
      <point x="650" y="542" type="curve" smooth="yes"/>
      <point x="726" y="542"/>
      <point x="786" y="521"/>
      <point x="830" y="478" type="curve" smooth="yes"/>
      <point x="873" y="435"/>
      <point x="895" y="373"/>
      <point x="895" y="293" type="curve" smooth="yes"/>
      <point x="895" y="231" type="line"/>
    </contour>
    <contour>
      <point x="404" y="297" type="line" smooth="yes"/>
      <point x="404" y="342"/>
      <point x="394" y="376"/>
      <point x="375" y="397" type="curve" smooth="yes"/>
      <point x="355" y="418"/>
      <point x="327" y="429"/>
      <point x="290" y="429" type="curve" smooth="yes"/>
      <point x="212" y="429"/>
      <point x="173" y="385"/>
      <point x="173" y="297" type="curve" smooth="yes"/>
      <point x="173" y="237" type="line" smooth="yes"/>
      <point x="173" y="149"/>
      <point x="212" y="105"/>
      <point x="290" y="104" type="curve" smooth="yes"/>
      <point x="323" y="104"/>
      <point x="349" y="112"/>
      <point x="367" y="128" type="curve" smooth="yes"/>
      <point x="392" y="150"/>
      <point x="404" y="186"/>
      <point x="404" y="237" type="curve" smooth="yes"/>
    </contour>
    <contour>
      <point x="530" y="318" type="curve"/>
      <point x="769" y="318" type="line"/>
      <point x="769" y="326" type="line" smooth="yes"/>
      <point x="769" y="361"/>
      <point x="758" y="388"/>
      <point x="737" y="406" type="curve" smooth="yes"/>
      <point x="716" y="424"/>
      <point x="687" y="433"/>
      <point x="650" y="433" type="curve" smooth="yes"/>
      <point x="575" y="433"/>
      <point x="535" y="395"/>
    </contour>
  </outline>
</glyph>
<glyph name="tbar" format="2">
  <advance width="404"/>
  <unicode hex="0167"/>
  <outline>
    <component base="t"/>
    <contour>
      <point x="26" y="264" type="line"/>
      <point x="361" y="264" type="line"/>
      <point x="361" y="354" type="line"/>
      <point x="26" y="354" type="line"/>
    </contour>
  </outline>
</glyph>
<glyph name="uogonek" format="2">
  <advance width="585"/>
  <unicode hex="0173"/>
  <outline>
    <component base="u"/>
    <contour>
      <point x="456" y="-162" type="curve"/>
      <point x="456" y="-73" type="line"/>
      <point x="397" y="-72"/>
      <point x="362" y="-75"/>
      <point x="327" y="-49" type="curve"/>
      <point x="456" y="33" type="line"/>
      <point x="327" y="-1" type="line"/>
      <point x="184" y="-41" type="line"/>
      <point x="198" y="-69"/>
      <point x="216" y="-92"/>
      <point x="244" y="-109" type="curve" smooth="yes"/>
      <point x="296" y="-144"/>
      <point x="368" y="-161"/>
    </contour>
  </outline>
</glyph>
<glyph name="florin" format="2">
  <advance width="480"/>
  <unicode hex="0192"/>
  <outline>
    <contour>
      <point x="9" y="-160" type="line"/>
      <point x="71" y="-160" type="line" smooth="yes"/>
      <point x="189" y="-160"/>
      <point x="246" y="-111"/>
      <point x="264" y="19" type="curve" smooth="yes"/>
      <point x="309" y="321" type="line"/>
      <point x="452" y="321" type="line"/>
      <point x="452" y="433" type="line"/>
      <point x="326" y="433" type="line"/>
      <point x="339" y="517" type="line" smooth="yes"/>
      <point x="347" y="571"/>
      <point x="367" y="590"/>
      <point x="421" y="590" type="curve" smooth="yes"/>
      <point x="471" y="590" type="line"/>
      <point x="471" y="707" type="line"/>
      <point x="403" y="707" type="line" smooth="yes"/>
      <point x="286" y="707"/>
      <point x="231" y="653"/>
      <point x="213" y="530" type="curve" smooth="yes"/>
      <point x="198" y="433" type="line"/>
      <point x="84" y="433" type="line"/>
      <point x="84" y="321" type="line"/>
      <point x="181" y="321" type="line"/>
      <point x="139" y="35" type="line" smooth="yes"/>
      <point x="129" y="-22"/>
      <point x="107" y="-40"/>
      <point x="54" y="-40" type="curve" smooth="yes"/>
      <point x="9" y="-40" type="line"/>
    </contour>
  </outline>
</glyph>
<glyph name="oogonek" format="2">
  <advance width="576"/>
  <unicode hex="01EB"/>
  <outline>
    <contour>
      <point x="456" y="-218" type="curve"/>
      <point x="456" y="-98" type="line"/>
      <point x="397" y="-97"/>
      <point x="362" y="-101"/>
      <point x="327" y="-66" type="curve"/>
      <point x="385" y="0" type="line"/>
      <point x="502" y="34"/>
      <point x="530" y="156"/>
      <point x="530" y="236" type="curve" smooth="yes"/>
      <point x="530" y="299" type="line" smooth="yes"/>
      <point x="530" y="457"/>
      <point x="440" y="542"/>
      <point x="290" y="542" type="curve" smooth="yes"/>
      <point x="138" y="542"/>
      <point x="47" y="457"/>
      <point x="47" y="299" type="curve" smooth="yes"/>
      <point x="47" y="236" type="line" smooth="yes"/>
      <point x="47" y="69"/>
      <point x="154" y="-15"/>
      <point x="304" y="-9" type="curve"/>
      <point x="184" y="-55" type="line"/>
      <point x="198" y="-93"/>
      <point x="216" y="-124"/>
      <point x="244" y="-146" type="curve" smooth="yes"/>
      <point x="296" y="-193"/>
      <point x="368" y="-216"/>
    </contour>
    <contour>
      <point x="173" y="237" type="curve" smooth="yes"/>
      <point x="173" y="297" type="line" smooth="yes"/>
      <point x="173" y="385"/>
      <point x="212" y="429"/>
      <point x="290" y="429" type="curve" smooth="yes"/>
      <point x="363" y="429"/>
      <point x="404" y="388"/>
      <point x="404" y="297" type="curve" smooth="yes"/>
      <point x="404" y="237" type="line" smooth="yes"/>
      <point x="404" y="149"/>
      <point x="366" y="105"/>
      <point x="290" y="104" type="curve" smooth="yes"/>
      <point x="212" y="105"/>
      <point x="173" y="149"/>
    </contour>
  </outline>
</glyph>
<glyph name="jcaron" format="2">
  <advance width="246"/>
  <unicode hex="01F0"/>
  <outline>
    <contour>
      <point x="-61" y="-160" type="line"/>
      <point x="5" y="-160" type="line" smooth="yes"/>
      <point x="67" y="-160"/>
      <point x="113" y="-146"/>
      <point x="142" y="-118" type="curve" smooth="yes"/>
      <point x="171" y="-90"/>
      <point x="186" y="-47"/>
      <point x="186" y="12" type="curve" smooth="yes"/>
      <point x="186" y="532" type="line"/>
      <point x="60" y="532" type="line"/>
      <point x="60" y="20" type="line" smooth="yes"/>
      <point x="60" y="-6"/>
      <point x="55" y="-24"/>
      <point x="45" y="-34" type="curve" smooth="yes"/>
      <point x="34" y="-45"/>
      <point x="15" y="-50"/>
      <point x="-13" y="-50" type="curve" smooth="yes"/>
      <point x="-61" y="-50" type="line"/>
    </contour>
    <contour>
      <point x="76" y="584" type="line"/>
      <point x="169" y="584" type="line"/>
      <point x="307" y="738" type="line"/>
      <point x="201" y="738" type="line"/>
      <point x="123" y="657" type="line"/>
      <point x="44" y="738" type="line"/>
      <point x="-62" y="738" type="line"/>
    </contour>
  </outline>
</glyph>
<glyph name="dotlessj" format="2">
  <advance width="246"/>
  <unicode hex="0237"/>
  <anchor x="131" y="532" name="top"/>
  <outline>
    <contour>
      <point x="-61" y="-160" type="line"/>
      <point x="5" y="-160" type="line" smooth="yes"/>
      <point x="129" y="-160"/>
      <point x="186" y="-106"/>
      <point x="186" y="12" type="curve" smooth="yes"/>
      <point x="186" y="532" type="line"/>
      <point x="60" y="532" type="line"/>
      <point x="60" y="20" type="line" smooth="yes"/>
      <point x="60" y="-35"/>
      <point x="40" y="-50"/>
      <point x="-13" y="-50" type="curve" smooth="yes"/>
      <point x="-61" y="-50" type="line"/>
    </contour>
  </outline>
</glyph>
<glyph name="circumflex" format="2">
  <advance width="512"/>
  <unicode hex="02C6"/>
  <outline>
    <contour>
      <point x="71" y="591" type="line"/>
      <point x="178" y="591" type="line"/>
      <point x="256" y="673" type="line"/>
      <point x="334" y="591" type="line"/>
      <point x="440" y="591" type="line"/>
      <point x="302" y="745" type="line"/>
      <point x="209" y="745" type="line"/>
    </contour>
  </outline>
</glyph>
<glyph name="caron" format="2">
  <advance width="512"/>
  <unicode hex="02C7"/>
  <outline>
    <contour>
      <point x="210" y="584" type="line"/>
      <point x="303" y="584" type="line"/>
      <point x="441" y="738" type="line"/>
      <point x="335" y="738" type="line"/>
      <point x="257" y="657" type="line"/>
      <point x="178" y="738" type="line"/>
      <point x="72" y="738" type="line"/>
    </contour>
  </outline>
</glyph>
<glyph name="breve" format="2">
  <advance width="512"/>
  <unicode hex="02D8"/>
  <outline>
    <contour>
      <point x="256" y="567" type="curve" smooth="yes"/>
      <point x="368" y="567"/>
      <point x="426" y="624"/>
      <point x="426" y="728" type="curve" smooth="yes"/>
      <point x="426" y="749" type="line"/>
      <point x="338" y="749" type="line"/>
      <point x="338" y="728" type="line" smooth="yes"/>
      <point x="338" y="668"/>
      <point x="311" y="639"/>
      <point x="256" y="639" type="curve" smooth="yes"/>
      <point x="201" y="639"/>
      <point x="174" y="668"/>
      <point x="174" y="728" type="curve" smooth="yes"/>
      <point x="174" y="749" type="line"/>
      <point x="86" y="749" type="line"/>
      <point x="86" y="728" type="line" smooth="yes"/>
      <point x="86" y="624"/>
      <point x="144" y="567"/>
    </contour>
  </outline>
</glyph>
<glyph name="ring" format="2">
  <advance width="512"/>
  <unicode hex="02DA"/>
  <outline>
    <contour>
      <point x="254" y="591" type="curve" smooth="yes"/>
      <point x="314" y="591"/>
      <point x="359" y="636"/>
      <point x="359" y="696" type="curve" smooth="yes"/>
      <point x="359" y="757"/>
      <point x="315" y="803"/>
      <point x="254" y="803" type="curve" smooth="yes"/>
      <point x="192" y="803"/>
      <point x="148" y="757"/>
      <point x="148" y="696" type="curve" smooth="yes"/>
      <point x="148" y="637"/>
      <point x="193" y="591"/>
    </contour>
    <contour>
      <point x="207" y="696" type="curve" smooth="yes"/>
      <point x="207" y="726"/>
      <point x="228" y="746"/>
      <point x="254" y="746" type="curve" smooth="yes"/>
      <point x="280" y="746"/>
      <point x="302" y="726"/>
      <point x="302" y="696" type="curve" smooth="yes"/>
      <point x="302" y="669"/>
      <point x="279" y="647"/>
      <point x="254" y="647" type="curve" smooth="yes"/>
      <point x="229" y="647"/>
      <point x="207" y="669"/>
    </contour>
  </outline>
</glyph>
<glyph name="gravecomb" format="2">
  <unicode hex="0300"/>
  <outline>
    <contour>
      <point x="-25" y="602" type="line"/>
      <point x="90" y="602" type="line"/>
      <point x="-33" y="738" type="line"/>
      <point x="-185" y="738" type="line"/>
    </contour>
  </outline>
</glyph>
<glyph name="acutecomb" format="2">
  <unicode hex="0301"/>
  <anchor x="0" y="532" name="_top"/>
  <outline>
    <contour>
      <point x="-87" y="602" type="line"/>
      <point x="28" y="602" type="line"/>
      <point x="188" y="738" type="line"/>
      <point x="36" y="738" type="line"/>
    </contour>
  </outline>
</glyph>
<glyph name="tildecomb" format="2">
  <unicode hex="0303"/>
  <outline>
    <contour>
      <point x="-164" y="689" type="line"/>
      <point x="-147" y="705"/>
      <point x="-132" y="716"/>
      <point x="-118" y="723" type="curve" smooth="yes"/>
      <point x="-104" y="729"/>
      <point x="-88" y="732"/>
      <point x="-70" y="732" type="curve" smooth="yes"/>
      <point x="-55" y="732"/>
      <point x="-41" y="730"/>
      <point x="-29" y="727" type="curve" smooth="yes"/>
      <point x="-18" y="724"/>
      <point x="-5" y="719"/>
      <point x="10" y="712" type="curve" smooth="yes"/>
      <point x="23" y="706"/>
      <point x="35" y="701"/>
      <point x="45" y="698" type="curve" smooth="yes"/>
      <point x="54" y="695"/>
      <point x="65" y="693"/>
      <point x="77" y="693" type="curve" smooth="yes"/>
      <point x="92" y="693"/>
      <point x="105" y="696"/>
      <point x="116" y="702" type="curve" smooth="yes"/>
      <point x="127" y="708"/>
      <point x="143" y="719"/>
      <point x="163" y="734" type="curve"/>
      <point x="163" y="640" type="line"/>
      <point x="146" y="624"/>
      <point x="131" y="613"/>
      <point x="117" y="607" type="curve" smooth="yes"/>
      <point x="103" y="600"/>
      <point x="87" y="597"/>
      <point x="70" y="597" type="curve" smooth="yes"/>
      <point x="55" y="597"/>
      <point x="41" y="599"/>
      <point x="30" y="603" type="curve" smooth="yes"/>
      <point x="18" y="606"/>
      <point x="4" y="611"/>
      <point x="-11" y="618" type="curve" smooth="yes"/>
      <point x="-13" y="619"/>
      <point x="-18" y="621"/>
      <point x="-27" y="625" type="curve" smooth="yes"/>
      <point x="-36" y="629"/>
      <point x="-45" y="632"/>
      <point x="-53" y="634" type="curve" smooth="yes"/>
      <point x="-61" y="635"/>
      <point x="-69" y="636"/>
      <point x="-76" y="636" type="curve" smooth="yes"/>
      <point x="-91" y="636"/>
      <point x="-104" y="633"/>
      <point x="-116" y="627" type="curve" smooth="yes"/>
      <point x="-128" y="621"/>
      <point x="-144" y="611"/>
      <point x="-164" y="596" type="curve"/>
    </contour>
  </outline>
</glyph>
<glyph name="dieresiscmb" format="2">
  <unicode hex="0308"/>
  <outline>
    <contour>
      <point x="-173" y="601" type="line"/>
      <point x="-63" y="601" type="line"/>
      <point x="-63" y="720" type="line"/>
      <point x="-173" y="720" type="line"/>
    </contour>
    <contour>
      <point x="62" y="601" type="line"/>
      <point x="172" y="601" type="line"/>
      <point x="172" y="720" type="line"/>
      <point x="62" y="720" type="line"/>
    </contour>
  </outline>
</glyph>
<glyph name="ringcmb" format="2">
  <unicode hex="030A"/>
  <outline>
    <contour>
      <point x="0" y="601" type="curve" smooth="yes"/>
      <point x="30" y="601"/>
      <point x="55" y="611"/>
      <point x="75" y="632" type="curve" smooth="yes"/>
      <point x="95" y="652"/>
      <point x="105" y="677"/>
      <point x="105" y="707" type="curve" smooth="yes"/>
      <point x="105" y="738"/>
      <point x="95" y="763"/>
      <point x="75" y="783" type="curve" smooth="yes"/>
      <point x="55" y="803"/>
      <point x="30" y="813"/>
      <point x="0" y="813" type="curve" smooth="yes"/>
      <point x="-30" y="813"/>
      <point x="-55" y="803"/>
      <point x="-75" y="783" type="curve" smooth="yes"/>
      <point x="-95" y="763"/>
      <point x="-105" y="738"/>
      <point x="-105" y="707" type="curve" smooth="yes"/>
      <point x="-105" y="677"/>
      <point x="-95" y="652"/>
      <point x="-75" y="632" type="curve" smooth="yes"/>
      <point x="-55" y="611"/>
      <point x="-30" y="601"/>
    </contour>
    <contour>
      <point x="-33" y="672" type="curve" smooth="yes"/>
      <point x="-42" y="682"/>
      <point x="-47" y="694"/>
      <point x="-47" y="707" type="curve" smooth="yes"/>
      <point x="-47" y="721"/>
      <point x="-42" y="733"/>
      <point x="-33" y="743" type="curve" smooth="yes"/>
      <point x="-24" y="752"/>
      <point x="-13" y="757"/>
      <point x="0" y="757" type="curve" smooth="yes"/>
      <point x="13" y="757"/>
      <point x="25" y="752"/>
      <point x="34" y="743" type="curve" smooth="yes"/>
      <point x="43" y="734"/>
      <point x="48" y="722"/>
      <point x="48" y="707" type="curve" smooth="yes"/>
      <point x="48" y="693"/>
      <point x="43" y="681"/>
      <point x="34" y="672" type="curve" smooth="yes"/>
      <point x="25" y="662"/>
      <point x="13" y="657"/>
      <point x="0" y="657" type="curve" smooth="yes"/>
      <point x="-13" y="657"/>
      <point x="-24" y="662"/>
    </contour>
  </outline>
</glyph>
<glyph name="ogonekcmb" format="2">
  <unicode hex="0328"/>
  <anchor x="0" y="0" name="_bottom"/>
  <outline>
    <contour>
      <point x="96" y="-236" type="curve"/>
      <point x="96" y="-116" type="line"/>
      <point x="37" y="-115"/>
      <point x="2" y="-119"/>
      <point x="-33" y="-84" type="curve"/>
      <point x="96" y="-9" type="line"/>
      <point x="96" y="4" type="line"/>
      <point x="-19" y="-1" type="line"/>
      <point x="-176" y="-74" type="line"/>
      <point x="-162" y="-111"/>
      <point x="-144" y="-142"/>
      <point x="-116" y="-165" type="curve" smooth="yes"/>
      <point x="-64" y="-212"/>
      <point x="8" y="-234"/>
    </contour>
  </outline>
</glyph>
<glyph name="alpha" format="2">
  <advance width="697"/>
  <unicode hex="03B1"/>
  <outline>
    <contour>
      <point x="290" y="-9" type="curve" smooth="yes"/>
      <point x="381" y="-9"/>
      <point x="450" y="25"/>
      <point x="490" y="82" type="curve"/>
      <point x="534" y="38"/>
      <point x="586" y="20"/>
      <point x="652" y="19" type="curve"/>
      <point x="652" y="130" type="line"/>
      <point x="592" y="133"/>
      <point x="562" y="170"/>
      <point x="562" y="240" type="curve" smooth="yes"/>
      <point x="562" y="294" type="line" smooth="yes"/>
      <point x="562" y="365"/>
      <point x="592" y="401"/>
      <point x="652" y="403" type="curve"/>
      <point x="652" y="514" type="line"/>
      <point x="586" y="513"/>
      <point x="534" y="496"/>
      <point x="490" y="452" type="curve"/>
      <point x="451" y="508"/>
      <point x="381" y="542"/>
      <point x="290" y="542" type="curve" smooth="yes"/>
      <point x="138" y="542"/>
      <point x="47" y="457"/>
      <point x="47" y="299" type="curve" smooth="yes"/>
      <point x="47" y="236" type="line" smooth="yes"/>
      <point x="47" y="75"/>
      <point x="139" y="-9"/>
    </contour>
    <contour>
      <point x="173" y="237" type="curve" smooth="yes"/>
      <point x="173" y="297" type="line" smooth="yes"/>
      <point x="173" y="385"/>
      <point x="212" y="429"/>
      <point x="290" y="429" type="curve" smooth="yes"/>
      <point x="366" y="429"/>
      <point x="404" y="385"/>
      <point x="404" y="297" type="curve" smooth="yes"/>
      <point x="404" y="237" type="line" smooth="yes"/>
      <point x="404" y="150"/>
      <point x="366" y="105"/>
      <point x="290" y="104" type="curve" smooth="yes"/>
      <point x="212" y="105"/>
      <point x="173" y="150"/>
    </contour>
  </outline>
</glyph>
<glyph name="Djecyr" format="2">
  <advance width="783"/>
  <unicode hex="0402"/>
  <anchor x="248" y="0" name="b.cedilla"/>
  <anchor x="285" y="-86" name="bottom"/>
  <anchor x="257" y="776" name="top"/>
  <outline>
    <contour>
      <point x="218" y="0" type="line"/>
      <point x="352" y="0" type="line"/>
      <point x="352" y="321" type="line"/>
      <point x="491" y="321" type="line" smooth="yes"/>
      <point x="566" y="321"/>
      <point x="604" y="288"/>
      <point x="604" y="221" type="curve" smooth="yes"/>
      <point x="604" y="153"/>
      <point x="565" y="117"/>
      <point x="491" y="117" type="curve" smooth="yes"/>
      <point x="441" y="117" type="line"/>
      <point x="441" y="0" type="line"/>
      <point x="486" y="0" type="line" smooth="yes"/>
      <point x="646" y="0"/>
      <point x="738" y="81"/>
      <point x="738" y="222" type="curve" smooth="yes"/>
      <point x="738" y="360"/>
      <point x="644" y="439"/>
      <point x="480" y="439" type="curve" smooth="yes"/>
      <point x="352" y="439" type="line"/>
      <point x="352" y="590" type="line"/>
      <point x="564" y="590" type="line"/>
      <point x="564" y="707" type="line"/>
      <point x="6" y="707" type="line"/>
      <point x="6" y="590" type="line"/>
      <point x="218" y="590" type="line"/>
    </contour>
  </outline>
</glyph>
<glyph name="Njecyr" format="2">
  <advance width="1053"/>
  <unicode hex="040A"/>
  <outline>
    <component base="H"/>
    <contour>
      <point x="565" y="0" type="line"/>
      <point x="756" y="0" type="line" smooth="yes"/>
      <point x="916" y="0"/>
      <point x="1008" y="81"/>
      <point x="1008" y="222" type="curve" smooth="yes"/>
      <point x="1008" y="360"/>
      <point x="914" y="439"/>
      <point x="750" y="439" type="curve" smooth="yes"/>
      <point x="565" y="439" type="line"/>
      <point x="565" y="321" type="line"/>
      <point x="761" y="321" type="line" smooth="yes"/>
      <point x="836" y="321"/>
      <point x="874" y="288"/>
      <point x="874" y="221" type="curve" smooth="yes"/>
      <point x="874" y="153"/>
      <point x="835" y="117"/>
      <point x="761" y="117" type="curve" smooth="yes"/>
      <point x="565" y="117" type="line"/>
    </contour>
  </outline>
</glyph>
<glyph name="Dzhecyr" format="2">
  <advance width="651"/>
  <unicode hex="040F"/>
  <outline>
    <contour>
      <point x="258" y="-170" type="line"/>
      <point x="393" y="-170" type="line"/>
      <point x="393" y="0" type="line"/>
      <point x="591" y="0" type="line"/>
      <point x="591" y="707" type="line"/>
      <point x="456" y="707" type="line"/>
      <point x="456" y="117" type="line"/>
      <point x="195" y="117" type="line"/>
      <point x="195" y="707" type="line"/>
      <point x="60" y="707" type="line"/>
      <point x="60" y="0" type="line"/>
      <point x="258" y="0" type="line"/>
    </contour>
  </outline>
</glyph>
<glyph name="Zhecyr" format="2">
  <advance width="1141"/>
  <unicode hex="0416"/>
  <outline>
    <contour>
      <point x="30" y="707" type="line"/>
      <point x="202" y="707" type="line"/>
      <point x="415" y="416" type="line"/>
      <point x="503" y="416" type="line"/>
      <point x="503" y="707" type="line"/>
      <point x="638" y="707" type="line"/>
      <point x="638" y="416" type="line"/>
      <point x="726" y="416" type="line"/>
      <point x="939" y="707" type="line"/>
      <point x="1111" y="707" type="line"/>
      <point x="848" y="394" type="line"/>
      <point x="1131" y="0" type="line"/>
      <point x="968" y="0" type="line"/>
      <point x="758" y="299" type="line"/>
      <point x="638" y="299" type="line"/>
      <point x="638" y="0" type="line"/>
      <point x="503" y="0" type="line"/>
      <point x="503" y="299" type="line"/>
      <point x="383" y="299" type="line"/>
      <point x="173" y="0" type="line"/>
      <point x="10" y="0" type="line"/>
      <point x="293" y="394" type="line"/>
    </contour>
  </outline>
</glyph>
<glyph name="Zecyr" format="2">
  <advance width="590"/>
  <unicode hex="0417"/>
  <outline>
    <contour>
      <point x="301" y="-11" type="curve" smooth="yes"/>
      <point x="457" y="-11"/>
      <point x="545" y="73"/>
      <point x="545" y="203" type="curve" smooth="yes"/>
      <point x="545" y="216" type="line" smooth="yes"/>
      <point x="545" y="285"/>
      <point x="502" y="336"/>
      <point x="434" y="364" type="curve"/>
      <point x="497" y="392"/>
      <point x="534" y="445"/>
      <point x="534" y="510" type="curve" smooth="yes"/>
      <point x="534" y="524" type="line" smooth="yes"/>
      <point x="534" y="643"/>
      <point x="441" y="720"/>
      <point x="288" y="720" type="curve" smooth="yes"/>
      <point x="155" y="720"/>
      <point x="61" y="652"/>
      <point x="61" y="528" type="curve" smooth="yes"/>
      <point x="61" y="515" type="line"/>
      <point x="195" y="515" type="line"/>
      <point x="195" y="526" type="line" smooth="yes"/>
      <point x="195" y="571"/>
      <point x="236" y="603"/>
      <point x="294" y="603" type="curve" smooth="yes"/>
      <point x="359" y="603"/>
      <point x="400" y="570"/>
      <point x="400" y="516" type="curve" smooth="yes"/>
      <point x="400" y="505" type="line" smooth="yes"/>
      <point x="400" y="456"/>
      <point x="358" y="418"/>
      <point x="289" y="418" type="curve" smooth="yes"/>
      <point x="221" y="418" type="line"/>
      <point x="221" y="301" type="line"/>
      <point x="298" y="301" type="line" smooth="yes"/>
      <point x="368" y="301"/>
      <point x="411" y="275"/>
      <point x="411" y="224" type="curve" smooth="yes"/>
      <point x="411" y="212" type="line" smooth="yes"/>
      <point x="411" y="149"/>
      <point x="375" y="106"/>
      <point x="303" y="106" type="curve" smooth="yes"/>
      <point x="230" y="106"/>
      <point x="194" y="137"/>
      <point x="195" y="179" type="curve" smooth="yes"/>
      <point x="195" y="192" type="line"/>
      <point x="61" y="192" type="line"/>
      <point x="61" y="179" type="line" smooth="yes"/>
      <point x="61" y="70"/>
      <point x="165" y="-11"/>
    </contour>
  </outline>
</glyph>
<glyph name="Icyr" format="2">
  <advance width="715"/>
  <unicode hex="0418"/>
  <guideline x="350" y="0" angle="90" name="h1"/>
  <anchor x="350" y="776" name="top"/>
  <outline>
    <contour>
      <point x="60" y="707" type="line"/>
      <point x="194" y="707" type="line"/>
      <point x="194" y="238" type="line"/>
      <point x="520" y="707" type="line"/>
      <point x="655" y="707" type="line"/>
      <point x="655" y="0" type="line"/>
      <point x="520" y="0" type="line"/>
      <point x="520" y="468" type="line"/>
      <point x="194" y="0" type="line"/>
      <point x="60" y="0" type="line"/>
    </contour>
  </outline>
</glyph>
<glyph name="Kacyr" format="2">
  <advance width="694"/>
  <unicode hex="041A"/>
  <guideline x="346" y="0" angle="90" name="h1"/>
  <anchor x="346" y="776" name="top"/>
  <outline>
    <contour>
      <point x="60" y="707" type="line"/>
      <point x="195" y="707" type="line"/>
      <point x="195" y="416" type="line"/>
      <point x="283" y="416" type="line"/>
      <point x="496" y="707" type="line"/>
      <point x="668" y="707" type="line"/>
      <point x="405" y="394" type="line"/>
      <point x="688" y="0" type="line"/>
      <point x="525" y="0" type="line"/>
      <point x="315" y="299" type="line"/>
      <point x="195" y="299" type="line"/>
      <point x="195" y="0" type="line"/>
      <point x="60" y="0" type="line"/>
    </contour>
  </outline>
</glyph>
<glyph name="Ucyr" format="2">
  <advance width="621"/>
  <unicode hex="0423"/>
  <guideline x="313" y="0" angle="90" name="h1"/>
  <anchor x="313" y="776" name="top"/>
  <outline>
    <contour>
      <point x="4" y="707" type="line"/>
      <point x="156" y="707" type="line"/>
      <point x="316" y="381" type="line"/>
      <point x="467" y="707" type="line"/>
      <point x="618" y="707" type="line"/>
      <point x="323" y="141" type="line" smooth="yes"/>
      <point x="264" y="27"/>
      <point x="232" y="0"/>
      <point x="154" y="0" type="curve" smooth="yes"/>
      <point x="123" y="0" type="line"/>
      <point x="123" y="118" type="line"/>
      <point x="148" y="118" type="line" smooth="yes"/>
      <point x="173" y="118"/>
      <point x="200" y="148"/>
      <point x="237" y="220" type="curve" smooth="yes"/>
      <point x="243" y="232" type="line"/>
    </contour>
  </outline>
</glyph>
<glyph name="Efcyr" format="2">
  <advance width="785"/>
  <unicode hex="0424"/>
  <guideline x="608" y="0" angle="90" name="h1"/>
  <anchor x="608" y="776" name="top"/>
  <outline>
    <contour>
      <point x="330" y="707" type="line"/>
      <point x="464" y="707" type="line"/>
      <point x="464" y="660" type="line"/>
      <point x="640" y="653"/>
      <point x="738" y="562"/>
      <point x="738" y="370" type="curve" smooth="yes"/>
      <point x="738" y="339" type="line" smooth="yes"/>
      <point x="738" y="148"/>
      <point x="641" y="56"/>
      <point x="464" y="49" type="curve"/>
      <point x="464" y="0" type="line"/>
      <point x="330" y="0" type="line"/>
      <point x="330" y="49" type="line"/>
      <point x="155" y="56"/>
      <point x="57" y="146"/>
      <point x="57" y="339" type="curve" smooth="yes"/>
      <point x="57" y="370" type="line" smooth="yes"/>
      <point x="57" y="563"/>
      <point x="152" y="653"/>
      <point x="330" y="660" type="curve"/>
    </contour>
    <contour>
      <point x="192" y="341" type="line" smooth="yes"/>
      <point x="192" y="220"/>
      <point x="236" y="176"/>
      <point x="330" y="171" type="curve"/>
      <point x="330" y="541" type="line"/>
      <point x="235" y="536"/>
      <point x="192" y="489"/>
      <point x="192" y="362" type="curve" smooth="yes"/>
    </contour>
    <contour>
      <point x="604" y="362" type="line" smooth="yes"/>
      <point x="604" y="486"/>
      <point x="557" y="536"/>
      <point x="464" y="541" type="curve"/>
      <point x="464" y="171" type="line"/>
      <point x="557" y="176"/>
      <point x="604" y="222"/>
      <point x="604" y="341" type="curve" smooth="yes"/>
    </contour>
  </outline>
</glyph>
<glyph name="Tsecyr" format="2">
  <advance width="671"/>
  <unicode hex="0426"/>
  <outline>
    <contour>
      <point x="526" y="-170" type="line"/>
      <point x="661" y="-170" type="line"/>
      <point x="661" y="117" type="line"/>
      <point x="591" y="117" type="line"/>
      <point x="591" y="707" type="line"/>
      <point x="456" y="707" type="line"/>
      <point x="456" y="117" type="line"/>
      <point x="195" y="117" type="line"/>
      <point x="195" y="707" type="line"/>
      <point x="60" y="707" type="line"/>
      <point x="60" y="0" type="line"/>
      <point x="526" y="0" type="line"/>
    </contour>
  </outline>
</glyph>
<glyph name="Checyr" format="2">
  <advance width="692"/>
  <unicode hex="0427"/>
  <outline>
    <contour>
      <point x="60" y="707" type="line"/>
      <point x="195" y="707" type="line"/>
      <point x="195" y="468" type="line" smooth="yes"/>
      <point x="195" y="372"/>
      <point x="247" y="321"/>
      <point x="345" y="321" type="curve" smooth="yes"/>
      <point x="405" y="321"/>
      <point x="452" y="326"/>
      <point x="498" y="354" type="curve"/>
      <point x="498" y="707" type="line"/>
      <point x="632" y="707" type="line"/>
      <point x="632" y="0" type="line"/>
      <point x="498" y="0" type="line"/>
      <point x="498" y="227" type="line"/>
      <point x="448" y="211"/>
      <point x="393" y="204"/>
      <point x="345" y="204" type="curve" smooth="yes"/>
      <point x="172" y="204"/>
      <point x="60" y="307"/>
      <point x="60" y="464" type="curve" smooth="yes"/>
    </contour>
  </outline>
</glyph>
<glyph name="Ereversedcyr" format="2">
  <advance width="679"/>
  <unicode hex="042D"/>
  <guideline x="332" y="0" angle="90" name="h1"/>
  <anchor x="332" y="776" name="top"/>
  <outline>
    <contour>
      <point x="332" y="-11" type="curve" smooth="yes"/>
      <point x="521" y="-11"/>
      <point x="633" y="92"/>
      <point x="633" y="299" type="curve" smooth="yes"/>
      <point x="633" y="410" type="line" smooth="yes"/>
      <point x="633" y="615"/>
      <point x="522" y="720"/>
      <point x="331" y="720" type="curve" smooth="yes"/>
      <point x="158" y="720"/>
      <point x="46" y="631"/>
      <point x="46" y="478" type="curve" smooth="yes"/>
      <point x="46" y="470" type="line"/>
      <point x="180" y="470" type="line"/>
      <point x="180" y="474" type="line" smooth="yes"/>
      <point x="180" y="552"/>
      <point x="237" y="602"/>
      <point x="331" y="602" type="curve" smooth="yes"/>
      <point x="440" y="602"/>
      <point x="498" y="542"/>
      <point x="498" y="417" type="curve" smooth="yes"/>
      <point x="498" y="416" type="line"/>
      <point x="244" y="416" type="line"/>
      <point x="244" y="299" type="line"/>
      <point x="498" y="299" type="line"/>
      <point x="498" y="298" type="line" smooth="yes"/>
      <point x="498" y="173"/>
      <point x="442" y="110"/>
      <point x="330" y="110" type="curve" smooth="yes"/>
      <point x="237" y="110"/>
      <point x="180" y="155"/>
      <point x="180" y="234" type="curve" smooth="yes"/>
      <point x="180" y="240" type="line"/>
      <point x="47" y="240" type="line"/>
      <point x="47" y="234" type="line" smooth="yes"/>
      <point x="47" y="78"/>
      <point x="158" y="-11"/>
    </contour>
  </outline>
</glyph>
<glyph name="Yucyr" format="2">
  <advance width="919"/>
  <unicode hex="042E"/>
  <guideline x="530" y="0" angle="90" name="h1"/>
  <anchor x="530" y="776" name="top"/>
  <outline>
    <component base="O" xOffset="230"/>
    <contour>
      <point x="60" y="707" type="line"/>
      <point x="195" y="707" type="line"/>
      <point x="195" y="416" type="line"/>
      <point x="351" y="416" type="line"/>
      <point x="351" y="299" type="line"/>
      <point x="195" y="299" type="line"/>
      <point x="195" y="0" type="line"/>
      <point x="60" y="0" type="line"/>
    </contour>
  </outline>
</glyph>
<glyph name="Yacyr" format="2">
  <advance width="679"/>
  <unicode hex="042F"/>
  <guideline x="379" y="0" angle="90" name="h1"/>
  <anchor x="379" y="776" name="top"/>
  <outline>
    <contour>
      <point x="30" y="0" type="line"/>
      <point x="190" y="0" type="line"/>
      <point x="344" y="278" type="line"/>
      <point x="484" y="278" type="line"/>
      <point x="484" y="0" type="line"/>
      <point x="619" y="0" type="line"/>
      <point x="619" y="707" type="line"/>
      <point x="311" y="707" type="line"/>
      <point x="158" y="707"/>
      <point x="62" y="631"/>
      <point x="62" y="492" type="curve" smooth="yes"/>
      <point x="62" y="390"/>
      <point x="111" y="324"/>
      <point x="205" y="294" type="curve"/>
    </contour>
    <contour>
      <point x="195" y="492" type="curve" smooth="yes"/>
      <point x="195" y="558"/>
      <point x="237" y="590"/>
      <point x="307" y="590" type="curve" smooth="yes"/>
      <point x="484" y="590" type="line"/>
      <point x="484" y="392" type="line"/>
      <point x="307" y="392" type="line" smooth="yes"/>
      <point x="232" y="392"/>
      <point x="195" y="426"/>
    </contour>
  </outline>
</glyph>
<glyph name="decyr" format="2">
  <advance width="668"/>
  <unicode hex="0434"/>
  <outline>
    <contour>
      <point x="20" y="-170" type="line"/>
      <point x="146" y="-170" type="line"/>
      <point x="146" y="0" type="line"/>
      <point x="522" y="0" type="line"/>
      <point x="522" y="-170" type="line"/>
      <point x="648" y="-170" type="line"/>
      <point x="648" y="113" type="line"/>
      <point x="563" y="113" type="line"/>
      <point x="563" y="532" type="line"/>
      <point x="160" y="532" type="line"/>
      <point x="140" y="292" type="line" smooth="yes"/>
      <point x="135" y="228"/>
      <point x="115" y="113"/>
      <point x="68" y="113" type="curve"/>
      <point x="20" y="113" type="line"/>
    </contour>
    <contour>
      <point x="236" y="113" type="line"/>
      <point x="255" y="161"/>
      <point x="263" y="216"/>
      <point x="266" y="260" type="curve" smooth="yes"/>
      <point x="278" y="419" type="line"/>
      <point x="437" y="419" type="line"/>
      <point x="437" y="113" type="line"/>
    </contour>
  </outline>
</glyph>
<glyph name="zhecyr" format="2">
  <advance width="933"/>
  <unicode hex="0436"/>
  <outline>
    <component base="kacyr" xOffset="348"/>
    <contour>
      <point x="8" y="0" type="line"/>
      <point x="169" y="0" type="line"/>
      <point x="319" y="227" type="line"/>
      <point x="424" y="227" type="line"/>
      <point x="424" y="339" type="line"/>
      <point x="369" y="339" type="line"/>
      <point x="187" y="532" type="line"/>
      <point x="24" y="532" type="line"/>
      <point x="231" y="315" type="line"/>
    </contour>
  </outline>
</glyph>
<glyph name="zecyr" format="2">
  <advance width="586"/>
  <unicode hex="0437"/>
  <outline>
    <contour>
      <point x="309" y="-9" type="curve" smooth="yes"/>
      <point x="441" y="-9"/>
      <point x="540" y="66"/>
      <point x="540" y="165" type="curve" smooth="yes"/>
      <point x="540" y="177" type="line" smooth="yes"/>
      <point x="540" y="230"/>
      <point x="521" y="266"/>
      <point x="463" y="296" type="curve"/>
      <point x="463" y="299" type="line"/>
      <point x="510" y="319"/>
      <point x="530" y="359"/>
      <point x="530" y="400" type="curve" smooth="yes"/>
      <point x="530" y="407" type="line" smooth="yes"/>
      <point x="530" y="489"/>
      <point x="441" y="542"/>
      <point x="304" y="542" type="curve" smooth="yes"/>
      <point x="151" y="542"/>
      <point x="47" y="468"/>
      <point x="47" y="358" type="curve" smooth="yes"/>
      <point x="47" y="349" type="line"/>
      <point x="181" y="349" type="line"/>
      <point x="181" y="358" type="line" smooth="yes"/>
      <point x="181" y="397"/>
      <point x="207" y="429"/>
      <point x="294" y="429" type="curve" smooth="yes"/>
      <point x="372" y="429"/>
      <point x="403" y="407"/>
      <point x="403" y="380" type="curve" smooth="yes"/>
      <point x="403" y="374" type="line" smooth="yes"/>
      <point x="403" y="347"/>
      <point x="391" y="327"/>
      <point x="355" y="327" type="curve" smooth="yes"/>
      <point x="251" y="327" type="line"/>
      <point x="251" y="239" type="line"/>
      <point x="355" y="239" type="line" smooth="yes"/>
      <point x="391" y="239"/>
      <point x="414" y="215"/>
      <point x="414" y="178" type="curve" smooth="yes"/>
      <point x="414" y="170" type="line" smooth="yes"/>
      <point x="414" y="129"/>
      <point x="373" y="104"/>
      <point x="304" y="104" type="curve" smooth="yes"/>
      <point x="226" y="104"/>
      <point x="181" y="133"/>
      <point x="181" y="175" type="curve" smooth="yes"/>
      <point x="181" y="182" type="line"/>
      <point x="47" y="182" type="line"/>
      <point x="47" y="175" type="line" smooth="yes"/>
      <point x="47" y="62"/>
      <point x="148" y="-9"/>
    </contour>
  </outline>
</glyph>
<glyph name="kacyr" format="2">
  <advance width="585"/>
  <unicode hex="043A"/>
  <guideline x="266" y="0" angle="90" name="h1"/>
  <anchor x="266" y="602" name="top"/>
  <outline>
    <contour>
      <point x="55" y="0" type="line"/>
      <point x="182" y="0" type="line"/>
      <point x="182" y="227" type="line"/>
      <point x="266" y="227" type="line"/>
      <point x="416" y="0" type="line"/>
      <point x="577" y="0" type="line"/>
      <point x="354" y="315" type="line"/>
      <point x="561" y="532" type="line"/>
      <point x="398" y="532" type="line"/>
      <point x="216" y="339" type="line"/>
      <point x="182" y="339" type="line"/>
      <point x="182" y="532" type="line"/>
      <point x="55" y="532" type="line"/>
    </contour>
  </outline>
</glyph>
<glyph name="tecyr" format="2">
  <advance width="392"/>
  <unicode hex="0442"/>
  <guideline x="208" y="0" angle="90" name="h1"/>
  <anchor x="196" y="602" name="top"/>
  <outline>
    <contour>
      <point x="6" y="532" type="line"/>
      <point x="386" y="532" type="line"/>
      <point x="386" y="419" type="line"/>
      <point x="259" y="419" type="line"/>
      <point x="259" y="0" type="line"/>
      <point x="132" y="0" type="line"/>
      <point x="132" y="419" type="line"/>
      <point x="6" y="419" type="line"/>
    </contour>
  </outline>
</glyph>
<glyph name="checyr" format="2">
  <advance width="585"/>
  <unicode hex="0447"/>
  <outline>
    <contour>
      <point x="404" y="0" type="line"/>
      <point x="530" y="0" type="line"/>
      <point x="530" y="532" type="line"/>
      <point x="404" y="532" type="line"/>
      <point x="404" y="280" type="line"/>
      <point x="377" y="262"/>
      <point x="338" y="254"/>
      <point x="293" y="254" type="curve" smooth="yes"/>
      <point x="218" y="254"/>
      <point x="181" y="294"/>
      <point x="181" y="379" type="curve" smooth="yes"/>
      <point x="181" y="532" type="line"/>
      <point x="55" y="532" type="line"/>
      <point x="55" y="373" type="line" smooth="yes"/>
      <point x="55" y="220"/>
      <point x="125" y="141"/>
      <point x="260" y="141" type="curve" smooth="yes"/>
      <point x="324" y="141"/>
      <point x="366" y="147"/>
      <point x="404" y="162" type="curve"/>
    </contour>
  </outline>
</glyph>
<glyph name="softcyr" format="2">
  <advance width="574"/>
  <unicode hex="044C"/>
  <outline>
    <contour>
      <point x="55" y="0" type="line"/>
      <point x="348" y="0" type="line" smooth="yes"/>
      <point x="457" y="0"/>
      <point x="528" y="67"/>
      <point x="528" y="172" type="curve" smooth="yes"/>
      <point x="528" y="256"/>
      <point x="476" y="339"/>
      <point x="343" y="339" type="curve" smooth="yes"/>
      <point x="181" y="339" type="line"/>
      <point x="181" y="532" type="line"/>
      <point x="55" y="532" type="line"/>
    </contour>
    <contour>
      <point x="181" y="112" type="line"/>
      <point x="181" y="227" type="line"/>
      <point x="343" y="227" type="line" smooth="yes"/>
      <point x="379" y="227"/>
      <point x="402" y="205"/>
      <point x="402" y="171" type="curve" smooth="yes"/>
      <point x="402" y="135"/>
      <point x="379" y="112"/>
      <point x="343" y="112" type="curve" smooth="yes"/>
    </contour>
  </outline>
</glyph>
<glyph name="ereversedcyr" format="2">
  <advance width="571"/>
  <unicode hex="044D"/>
  <guideline x="289" y="0" angle="90" name="h1"/>
  <anchor x="289" y="602" name="top"/>
  <outline>
    <contour>
      <point x="282" y="-9" type="curve" smooth="yes"/>
      <point x="358" y="-9"/>
      <point x="417" y="12"/>
      <point x="460" y="54" type="curve" smooth="yes"/>
      <point x="503" y="95"/>
      <point x="525" y="156"/>
      <point x="525" y="236" type="curve" smooth="yes"/>
      <point x="525" y="299" type="line" smooth="yes"/>
      <point x="525" y="378"/>
      <point x="503" y="439"/>
      <point x="460" y="480" type="curve" smooth="yes"/>
      <point x="417" y="521"/>
      <point x="358" y="542"/>
      <point x="282" y="542" type="curve" smooth="yes"/>
      <point x="207" y="542"/>
      <point x="149" y="525"/>
      <point x="108" y="490" type="curve" smooth="yes"/>
      <point x="67" y="455"/>
      <point x="46" y="406"/>
      <point x="46" y="345" type="curve" smooth="yes"/>
      <point x="46" y="339" type="line"/>
      <point x="170" y="339" type="line"/>
      <point x="170" y="343" type="line" smooth="yes"/>
      <point x="170" y="370"/>
      <point x="180" y="391"/>
      <point x="199" y="406" type="curve" smooth="yes"/>
      <point x="218" y="421"/>
      <point x="245" y="429"/>
      <point x="279" y="429" type="curve" smooth="yes"/>
      <point x="318" y="429"/>
      <point x="348" y="419"/>
      <point x="368" y="398" type="curve" smooth="yes"/>
      <point x="382" y="384"/>
      <point x="391" y="364"/>
      <point x="396" y="339" type="curve"/>
      <point x="252" y="339" type="line"/>
      <point x="252" y="227" type="line"/>
      <point x="399" y="227" type="line"/>
      <point x="397" y="185"/>
      <point x="387" y="155"/>
      <point x="368" y="136" type="curve" smooth="yes"/>
      <point x="348" y="115"/>
      <point x="317" y="104"/>
      <point x="276" y="104" type="curve" smooth="yes"/>
      <point x="243" y="104"/>
      <point x="218" y="111"/>
      <point x="199" y="126" type="curve" smooth="yes"/>
      <point x="180" y="141"/>
      <point x="171" y="161"/>
      <point x="171" y="186" type="curve" smooth="yes"/>
      <point x="171" y="190" type="line"/>
      <point x="47" y="190" type="line"/>
      <point x="47" y="186" type="line" smooth="yes"/>
      <point x="47" y="125"/>
      <point x="68" y="78"/>
      <point x="109" y="43" type="curve" smooth="yes"/>
      <point x="151" y="8"/>
      <point x="209" y="-9"/>
    </contour>
  </outline>
</glyph>
<glyph name="yucyr" format="2">
  <advance width="786"/>
  <unicode hex="044E"/>
  <guideline x="464" y="0" angle="90" name="h1"/>
  <anchor x="464" y="602" name="top"/>
  <outline>
    <component base="dotlessi" xOffset="-5"/>
    <component base="o" xOffset="210"/>
    <contour>
      <point x="121" y="227" type="line"/>
      <point x="332" y="227" type="line"/>
      <point x="332" y="339" type="line"/>
      <point x="121" y="339" type="line"/>
    </contour>
  </outline>
</glyph>
<glyph name="djecyr" format="2">
  <advance width="585"/>
  <unicode hex="0452"/>
  <guideline x="357" y="0" angle="90" name="h1"/>
  <anchor x="357" y="602" name="top"/>
  <outline>
    <contour>
      <point x="275" y="-157" type="line"/>
      <point x="350" y="-157" type="line" smooth="yes"/>
      <point x="461" y="-157"/>
      <point x="525" y="-101"/>
      <point x="530" y="0" type="curve"/>
      <point x="530" y="0" type="line"/>
      <point x="530" y="332" type="line" smooth="yes"/>
      <point x="530" y="463"/>
      <point x="459" y="539"/>
      <point x="336" y="539" type="curve" smooth="yes"/>
      <point x="273" y="539"/>
      <point x="219" y="517"/>
      <point x="182" y="476" type="curve"/>
      <point x="182" y="585" type="line"/>
      <point x="317" y="585" type="line"/>
      <point x="317" y="653" type="line"/>
      <point x="182" y="653" type="line"/>
      <point x="182" y="707" type="line"/>
      <point x="55" y="707" type="line"/>
      <point x="55" y="653" type="line"/>
      <point x="0" y="653" type="line"/>
      <point x="0" y="585" type="line"/>
      <point x="55" y="585" type="line"/>
      <point x="55" y="0" type="line"/>
      <point x="182" y="0" type="line"/>
      <point x="182" y="301" type="line" smooth="yes"/>
      <point x="182" y="382"/>
      <point x="223" y="426"/>
      <point x="298" y="426" type="curve" smooth="yes"/>
      <point x="368" y="426"/>
      <point x="403" y="386"/>
      <point x="403" y="306" type="curve" smooth="yes"/>
      <point x="403" y="22" type="line" smooth="yes"/>
      <point x="403" y="-26"/>
      <point x="387" y="-41"/>
      <point x="340" y="-41" type="curve" smooth="yes"/>
      <point x="275" y="-41" type="line"/>
    </contour>
  </outline>
</glyph>
<glyph name="eukrcyr" format="2">
  <advance width="572"/>
  <unicode hex="0454"/>
  <outline>
    <contour>
      <point x="290" y="-9" type="curve" smooth="yes"/>
      <point x="436" y="-9"/>
      <point x="525" y="64"/>
      <point x="525" y="186" type="curve" smooth="yes"/>
      <point x="525" y="190" type="line"/>
      <point x="401" y="190" type="line"/>
      <point x="401" y="186" type="line" smooth="yes"/>
      <point x="401" y="135"/>
      <point x="361" y="104"/>
      <point x="296" y="104" type="curve" smooth="yes"/>
      <point x="215" y="104"/>
      <point x="176" y="143"/>
      <point x="173" y="227" type="curve"/>
      <point x="320" y="227" type="line"/>
      <point x="320" y="339" type="line"/>
      <point x="177" y="339" type="line"/>
      <point x="188" y="400"/>
      <point x="226" y="429"/>
      <point x="293" y="429" type="curve" smooth="yes"/>
      <point x="361" y="429"/>
      <point x="402" y="396"/>
      <point x="402" y="343" type="curve" smooth="yes"/>
      <point x="402" y="339" type="line"/>
      <point x="526" y="339" type="line"/>
      <point x="526" y="345" type="line" smooth="yes"/>
      <point x="526" y="469"/>
      <point x="438" y="542"/>
      <point x="290" y="542" type="curve" smooth="yes"/>
      <point x="135" y="542"/>
      <point x="47" y="454"/>
      <point x="47" y="299" type="curve" smooth="yes"/>
      <point x="47" y="236" type="line" smooth="yes"/>
      <point x="47" y="80"/>
      <point x="135" y="-9"/>
    </contour>
  </outline>
</glyph>
<glyph name="njecyr" format="2">
  <advance width="884"/>
  <unicode hex="045A"/>
  <outline>
    <contour>
      <point x="55" y="0" type="line"/>
      <point x="181" y="0" type="line"/>
      <point x="181" y="227" type="line"/>
      <point x="402" y="227" type="line"/>
      <point x="402" y="0" type="line"/>
      <point x="658" y="0" type="line" smooth="yes"/>
      <point x="767" y="0"/>
      <point x="838" y="67"/>
      <point x="838" y="172" type="curve" smooth="yes"/>
      <point x="838" y="256"/>
      <point x="786" y="339"/>
      <point x="653" y="339" type="curve" smooth="yes"/>
      <point x="528" y="339" type="line"/>
      <point x="528" y="532" type="line"/>
      <point x="402" y="532" type="line"/>
      <point x="402" y="339" type="line"/>
      <point x="181" y="339" type="line"/>
      <point x="181" y="532" type="line"/>
      <point x="55" y="532" type="line"/>
    </contour>
    <contour>
      <point x="528" y="112" type="line"/>
      <point x="528" y="227" type="line"/>
      <point x="653" y="227" type="line" smooth="yes"/>
      <point x="689" y="227"/>
      <point x="712" y="205"/>
      <point x="712" y="171" type="curve" smooth="yes"/>
      <point x="712" y="135"/>
      <point x="689" y="112"/>
      <point x="653" y="112" type="curve" smooth="yes"/>
    </contour>
  </outline>
</glyph>
<glyph name="Gheupturncyrillic" format="2">
  <advance width="595"/>
  <unicode hex="0490"/>
  <outline>
    <component base="Gecyr"/>
    <contour>
      <point x="435" y="707" type="line"/>
      <point x="435" y="867" type="line"/>
      <point x="565" y="867" type="line"/>
      <point x="565" y="707" type="line"/>
    </contour>
  </outline>
</glyph>
<glyph name="ustraightcyrillic" format="2">
  <advance width="542"/>
  <unicode hex="04AF"/>
  <outline>
    <contour>
      <point x="205" y="-158" type="line"/>
      <point x="339" y="-158" type="line"/>
      <point x="339" y="134" type="line"/>
      <point x="538" y="533" type="line"/>
      <point x="387" y="533" type="line"/>
      <point x="271" y="293" type="line"/>
      <point x="156" y="533" type="line"/>
      <point x="4" y="533" type="line"/>
      <point x="205" y="133" type="line"/>
    </contour>
  </outline>
</glyph>
<glyph name="Germandbls" format="2">
  <advance width="808"/>
  <unicode hex="1E9E"/>
  <outline>
    <contour>
      <point x="307" y="-3" type="line"/>
      <point x="447" y="-3" type="line" smooth="yes"/>
      <point x="725" y="-3"/>
      <point x="768" y="81"/>
      <point x="768" y="211" type="curve" smooth="yes"/>
      <point x="768" y="329"/>
      <point x="697" y="410"/>
      <point x="536" y="423" type="curve"/>
      <point x="713" y="588" type="line"/>
      <point x="606" y="697"/>
      <point x="457" y="713"/>
      <point x="347" y="714" type="curve" smooth="yes"/>
      <point x="106" y="716"/>
      <point x="55" y="628"/>
      <point x="55" y="477" type="curve" smooth="yes"/>
      <point x="55" y="1" type="line"/>
      <point x="182" y="1" type="line"/>
      <point x="182" y="479" type="line" smooth="yes"/>
      <point x="182" y="560"/>
      <point x="195" y="594"/>
      <point x="346" y="594" type="curve" smooth="yes"/>
      <point x="414" y="594"/>
      <point x="456" y="595"/>
      <point x="523" y="570" type="curve"/>
      <point x="326" y="406" type="line"/>
      <point x="326" y="301" type="line"/>
      <point x="471" y="301" type="line" smooth="yes"/>
      <point x="610" y="301"/>
      <point x="641" y="275"/>
      <point x="641" y="212" type="curve" smooth="yes"/>
      <point x="641" y="141"/>
      <point x="616" y="122"/>
      <point x="475" y="122" type="curve" smooth="yes"/>
      <point x="307" y="122" type="line"/>
    </contour>
  </outline>
</glyph>
<glyph name="quoteright" format="2">
  <advance width="197"/>
  <unicode hex="2019"/>
  <outline>
    <contour>
      <point x="39" y="400" type="line"/>
      <point x="159" y="502" type="line"/>
      <point x="159" y="707" type="line"/>
      <point x="39" y="707" type="line"/>
    </contour>
  </outline>
</glyph>
<glyph name="quotedblright" format="2">
  <advance width="407"/>
  <unicode hex="201D"/>
  <outline>
    <contour>
      <point x="39" y="400" type="line"/>
      <point x="159" y="502" type="line"/>
      <point x="159" y="707" type="line"/>
      <point x="39" y="707" type="line"/>
    </contour>
    <contour>
      <point x="249" y="400" type="line"/>
      <point x="369" y="502" type="line"/>
      <point x="369" y="707" type="line"/>
      <point x="249" y="707" type="line"/>
    </contour>
  </outline>
</glyph>
<glyph name="bullet" format="2">
  <advance width="463"/>
  <unicode hex="2022"/>
  <outline>
    <contour>
      <point x="232" y="166" type="curve" smooth="yes"/>
      <point x="275" y="166"/>
      <point x="311" y="180"/>
      <point x="339" y="208" type="curve" smooth="yes"/>
      <point x="367" y="235"/>
      <point x="381" y="271"/>
      <point x="381" y="315" type="curve" smooth="yes"/>
      <point x="381" y="359"/>
      <point x="367" y="395"/>
      <point x="339" y="423" type="curve" smooth="yes"/>
      <point x="311" y="451"/>
      <point x="275" y="465"/>
      <point x="232" y="465" type="curve" smooth="yes"/>
      <point x="189" y="465"/>
      <point x="153" y="451"/>
      <point x="125" y="423" type="curve" smooth="yes"/>
      <point x="97" y="395"/>
      <point x="83" y="359"/>
      <point x="83" y="315" type="curve" smooth="yes"/>
      <point x="83" y="272"/>
      <point x="97" y="236"/>
      <point x="125" y="208" type="curve" smooth="yes"/>
      <point x="153" y="180"/>
      <point x="189" y="166"/>
    </contour>
  </outline>
</glyph>
<glyph name="guilsinglright" format="2">
  <advance width="344"/>
  <unicode hex="203A"/>
  <outline>
    <contour>
      <point x="55" y="38" type="line"/>
      <point x="316" y="270" type="line"/>
      <point x="55" y="503" type="line"/>
      <point x="55" y="375" type="line"/>
      <point x="175" y="270" type="line"/>
      <point x="55" y="166" type="line"/>
    </contour>
  </outline>
</glyph>
